<svg xmlns="http://www.w3.org/2000/svg" xmlns:xlink="http://www.w3.org/1999/xlink" width="66" height="66" viewBox="0 0 66 66" fill="none"><g opacity="1" transform="translate(0 0)  rotate(0 33 33)"><path  id="矩形 1" style="stroke:#242C6B; stroke-width:1; stroke-opacity:1; stroke-dasharray:0 0" transform="translate(0 0)  rotate(0 33 33)" d="M2.0206672185931327e-15,33C0,41.75214416470496 3.4767757320587833,50.14582329037093 9.665476220843924,56.33452377915607C15.854176709629066,62.52322426794122 24.247855835295034,66 32.999999999999986,66L33,66C41.75214416470495,66 50.14582329037093,62.52322426794122 56.33452377915607,56.33452377915607C62.52322426794122,50.14582329037093 66,41.75214416470495 66,33L66,33C66,24.247855835295034 62.5232242679412,15.854176709629058 56.33452377915606,9.665476220843917C50.14582329037091,3.476775732058776 41.752144164704944,-1.4210854715202004e-14 32.999999999999986,-7.105427357601002e-15L33,0C24.24785583529505,-7.105427357601002e-15 15.854176709629069,3.4767757320587833 9.665476220843924,9.665476220843928C3.4767757320587798,15.854176709629073 -7.105427357601002e-15,24.24785583529505 -7.105427357601002e-15,33Z " /><g opacity="1" transform="translate(21.496411085128784 13)  rotate(0 11.503589630126953 19.02734375)"><path id="并集" style="fill:#242C6B" transform="translate(0 0)  rotate(0 11.503589630126953 19.02734375)" opacity="1" d="M17.2221 17.8947L21.0072 17.8947C21.7246 17.8947 22.387 18.279 22.7432 18.9017C23.0994 19.5244 23.0948 20.2902 22.7312 20.9086L13.2276 37.0685C12.8682 37.6795 12.2124 38.0547 11.5036 38.0547C10.7948 38.0547 10.1389 37.6795 9.77961 37.0685L0.276026 20.9086C-0.0876446 20.2902 -0.0922517 19.5244 0.263953 18.9017C0.620157 18.279 1.2826 17.8947 2 17.8947L5.78507 17.8947L5.78507 2C5.78507 1.46957 5.99579 0.960859 6.37086 0.585786C6.74593 0.210714 7.25464 0 7.78507 0L15.2221 0C15.7525 0 16.2612 0.210714 16.6363 0.585786C17.0114 0.960859 17.2221 1.46957 17.2221 2L17.2221 17.8947Z " /></g></g></svg>