<svg xmlns="http://www.w3.org/2000/svg" xmlns:xlink="http://www.w3.org/1999/xlink" width="46" height="22" viewBox="0 0 46 22" fill="none"><path id="减去顶层" style="fill:#B0B4D6" transform="translate(0 0)  rotate(0 23 11)" opacity="1" d="M0 11C0 4.92 10.3 0 23 0C35.7 0 46 4.92 46 11C46 17.08 35.7 22 23 22C10.3 22 0 17.08 0 11Z M25.6066 5.12132C25.044 4.55871 24.2809 4.24264 23.4853 4.24264C22.6896 4.24264 21.9266 4.55871 21.364 5.12132L17.1213 9.36396C16.5587 9.92657 16.2426 10.6896 16.2426 11.4853C16.2426 12.2809 16.5587 13.044 17.1213 13.6066L21.364 17.8492C21.9266 18.4118 22.6896 18.7279 23.4853 18.7279C24.2809 18.7279 25.044 18.4118 25.6066 17.8492L27.4807 15.9752C25.4824 14.9103 22.8831 13.3578 24.4955 13.5013C25.6694 13.601 28.3268 13.5771 29.9157 13.538C31.0204 12.362 30.9982 10.5129 29.8492 9.36396L25.6066 5.12132Z " /></svg>