<svg xmlns="http://www.w3.org/2000/svg" xmlns:xlink="http://www.w3.org/1999/xlink" width="46" height="22" viewBox="0 0 46 22" fill="none"><defs><path id="path_0"
        transform="translate(0 0) rotate(0 23 11)"
        d="M0,22L46,22L46,0L0,0L0,22Z" /></defs><g opacity="1" transform="translate(0 0)  rotate(0 23 11)"><mask id="mask-0" fill="white"><use xlink:href="#path_0"></use></mask><g mask="url(#mask-0)"><path id="矩形 5" style="fill:#C4C4C4" transform="translate(0 0)  rotate(0 23 11)" opacity="0" d="M0,22L46,22L46,0L0,0L0,22Z " /><path  id="矩形 5" style="stroke:#B0B4D6; stroke-width:2; stroke-opacity:1; stroke-dasharray:0 0" transform="translate(0 0)  rotate(0 23 11)" d="M0,22L46,22L46,0L0,0L0,22Z " /></g><g mask="url(#mask-0)"><g opacity="1" transform="translate(2 2.5)  rotate(0 21 5.5)"><g opacity="1" transform="translate(0 0)  rotate(0 21.456521739130434 9)"><path  id="路径 19" style="stroke:#B0B4D6; stroke-width:2; stroke-opacity:1; stroke-dasharray:0 0" transform="translate(0 7)  rotate(0 1.826086956521739 3.0000000000000004)" d="M3.65,0L0,6 " /><path  id="路径 19" style="stroke:#B0B4D6; stroke-width:2; stroke-opacity:1; stroke-dasharray:0 0" transform="translate(39.26086956521739 7)  rotate(0 1.826086956521739 3.0000000000000004)" d="M0,0L3.65,6 " /><path  id="路径 19" style="stroke:#B0B4D6; stroke-width:2; stroke-opacity:1; stroke-dasharray:0 0" transform="translate(9.130434782608695 11)  rotate(0 1.826086956521739 3.0000000000000004)" d="M3.65,0L0,6 " /><path  id="路径 19" style="stroke:#B0B4D6; stroke-width:2; stroke-opacity:1; stroke-dasharray:0 0" transform="translate(30.130434782608695 11)  rotate(0 1.826086956521739 3.0000000000000004)" d="M0,0L3.65,6 " /><path  id="路径 20" style="stroke:#B0B4D6; stroke-width:2; stroke-opacity:1; stroke-dasharray:0 0" transform="translate(21.456521739130434 12)  rotate(0 0.45652173913043476 3)" d="M0,0L0,6 " /><path  id="圆形 1" style="stroke:#B0B4D6; stroke-width:2; stroke-opacity:1; stroke-dasharray:0 0" transform="translate(0 0)  rotate(0 21 5.5)" d="M42,0C42,6.08 32.6,11 21,11C9.4,11 0,6.08 0,0 " /></g></g></g></g></svg>