<svg xmlns="http://www.w3.org/2000/svg" xmlns:xlink="http://www.w3.org/1999/xlink" width="34" height="34" viewBox="0 0 34 34" fill="none"><g opacity="1" transform="translate(0 0)  rotate(0 17 17)"><path id="矩形 10" style="fill:#C4C4C4" transform="translate(0 0)  rotate(0 17 17)" opacity="0" d="M0,34L34,34L34,0L0,0L0,34Z " /><path id="并集" style="fill:#C8CBE3" transform="translate(0.5 0)  rotate(0 16.5 17)" opacity="1" d="M8 9C8 4.03 12.03 0 17 0C21.97 0 26 4.03 26 9C26 12.1341 24.3974 14.8944 21.9671 16.5061C28.3917 17.7368 33 21.0753 33 25C33 29.97 25.61 34 16.5 34C7.39 34 0 29.97 0 25C0 20.9152 4.99197 17.4654 11.828 16.3661C9.51291 14.7374 8 12.0452 8 9Z " /><path  id="路径 1" style="stroke:#FFFFFF; stroke-width:2; stroke-opacity:1; stroke-dasharray:0 0" transform="translate(13.5 10)  rotate(0 3.5 0.5)" d="M0,0C0.99,0.67 4.04,1.78 7,0 " /></g></svg>