<svg xmlns="http://www.w3.org/2000/svg" xmlns:xlink="http://www.w3.org/1999/xlink" width="172" height="172" viewBox="0 0 172 172" fill="none"><defs><path id="path_0"
        transform="translate(0 0) rotate(0 86 86)"
        d="M0,172L172,172L172,0L0,0L0,172Z" /><linearGradient id="linear_0" x1="16.944%" y1="100%" x2="75.996%" y2="8.346%" gradientUnits="objectBoundingBox"><stop offset="0" stop-color="#FADFCA" stop-opacity="1" /><stop offset="1" stop-color="#FAE5CA" stop-opacity="1" /></linearGradient></defs><g opacity="1" transform="translate(0 0)  rotate(0 86 86)"><mask id="mask-0" fill="white"><use xlink:href="#path_0"></use></mask><g mask="url(#mask-0)"><path id="矩形 18" style="fill:#C4C4C4" transform="translate(0 0)  rotate(0 86 86)" opacity="0" d="M0,172L172,172L172,0L0,0L0,172Z " /></g><g mask="url(#mask-0)"><path id="矩形 1" style="fill:#242C6B" transform="translate(36 36.224909170200135)  rotate(-45 50 50)" opacity="1" d="M100,20.000000000000004C100,14.695670203209115 97.89286319269164,9.608591945229735 94.14213562373095,5.857864376269042C90.39140805477025,2.1071368073083505 85.30432979679087,-3.552713678800501e-15 79.99999999999999,-3.552713678800501e-15L20.000000000000004,0C14.69567020320912,0 9.608591945229742,2.107136807308354 5.857864376269047,5.857864376269049C2.107136807308354,9.608591945229744 -3.552713678800501e-15,14.695670203209126 -3.552713678800501e-15,20.000000000000007L1.2246467991473535e-15,80C0,85.30432979679088 2.1071368073083576,90.39140805477025 5.857864376269051,94.14213562373095C9.608591945229746,97.89286319269165 14.69567020320912,100 20,100L80,100C91.04569499661586,100 100,91.04569499661586 100,80Z " /><path  id="矩形 1" style="stroke:#FFFFFF; stroke-width:20; stroke-opacity:1; stroke-dasharray:0 0" transform="translate(36 36.224909170200135)  rotate(-45 50 50)" d="M100,20.000000000000004C100,14.695670203209115 97.89286319269164,9.608591945229735 94.14213562373095,5.857864376269042C90.39140805477025,2.1071368073083505 85.30432979679087,-3.552713678800501e-15 79.99999999999999,-3.552713678800501e-15L20.000000000000004,0C14.69567020320912,0 9.608591945229742,2.107136807308354 5.857864376269047,5.857864376269049C2.107136807308354,9.608591945229744 -3.552713678800501e-15,14.695670203209126 -3.552713678800501e-15,20.000000000000007L1.2246467991473535e-15,80C0,85.30432979679088 2.1071368073083576,90.39140805477025 5.857864376269051,94.14213562373095C9.608591945229746,97.89286319269165 14.69567020320912,100 20,100L80,100C91.04569499661586,100 100,91.04569499661586 100,80Z " /></g><g mask="url(#mask-0)"><g opacity="1" transform="translate(63.5 45.22490917019968)  rotate(0 22 40.88754541490016)"><g opacity="1" transform="translate(2.5 0)  rotate(0 20 24.186046511627907)"><path id="并集" fill="url(#linear_0)" transform="translate(-4.1310624172098847e-16 -8.262124834419769e-16)  rotate(0 19.999998006644514 24.186046511627907)" opacity="1" d="M2.7907 48.3721C1.24944 48.3721 0 47.1227 0 45.5814L0 2.7907C0 2.05056 0.294019 1.34073 0.817376 0.817376C1.22012 0.414634 1.73329 0.147702 2.28571 0.0460573L2.28571 0L17.7143 0C18.7752 0 19.7926 0.421427 20.5427 1.17157C21.1432 1.77208 21.5331 2.54386 21.6647 3.37209L38 3.37209C38.5304 3.37209 39.0391 3.58281 39.4142 3.95788C39.7893 4.33295 40 4.84166 40 5.37209L40 28.3488C40 29.4534 39.1046 30.3488 38 30.3488L24.5714 30.3488C23.5106 30.3488 22.4931 29.9274 21.743 29.1773C21.1433 28.5775 20.7537 27.807 20.6215 26.98L5.5814 26.98L5.5814 45.5814C5.5814 47.1227 4.33196 48.3721 2.7907 48.3721Z " /><path id="并集" style="fill:#F8D9C1" transform="translate(-4.1310624172098847e-16 -8.262124834419769e-16)  rotate(0 19.999998006644514 24.186046511627907)" opacity="1" d="M2.7907 48.3721C1.24944 48.3721 0 47.1227 0 45.5814L0 2.7907C0 2.05056 0.294019 1.34073 0.817376 0.817376C1.22012 0.414634 1.73329 0.147702 2.28571 0.0460573L2.28571 0L17.7143 0C18.7752 0 19.7926 0.421427 20.5427 1.17157C21.1432 1.77208 21.5331 2.54386 21.6647 3.37209L38 3.37209C38.5304 3.37209 39.0391 3.58281 39.4142 3.95788C39.7893 4.33295 40 4.84166 40 5.37209L40 28.3488C40 29.4534 39.1046 30.3488 38 30.3488L24.5714 30.3488C23.5106 30.3488 22.4931 29.9274 21.743 29.1773C21.1433 28.5775 20.7537 27.807 20.6215 26.98L5.5814 26.98L5.5814 45.5814C5.5814 47.1227 4.33196 48.3721 2.7907 48.3721Z " /></g></g></g></g></svg>