<svg xmlns="http://www.w3.org/2000/svg" xmlns:xlink="http://www.w3.org/1999/xlink" width="34" height="34" viewBox="0 0 34 34" fill="none"><g opacity="1" transform="translate(0 0)  rotate(0 17 17)"><path id="矩形 8" style="fill:#C4C4C4" transform="translate(0 0)  rotate(0 17 17)" opacity="0" d="M0,34L34,34L34,0L0,0L0,34Z " /><path id="矩形 8" style="fill:#242C6B" transform="translate(0 0)  rotate(0 17 17)" opacity="1" d="M2.449293598294707e-16,30C0,31.060865959358175 0.42142736146167126,32.07828161095405 1.1715728752538102,32.82842712474619C1.921718389045949,33.57857263853833 2.9391340406418243,34 4,34L30,34C32.20913899932317,34 34,32.20913899932317 34,30L34,4.000000000000001C34,2.939134040641823 33.578572638538326,1.9217183890459468 32.82842712474619,1.1715728752538084C32.07828161095405,0.4214273614616699 31.060865959358175,-8.881784197001252e-16 30,-8.881784197001252e-16L4.000000000000001,0C2.9391340406418247,-8.881784197001252e-16 1.9217183890459482,0.4214273614616708 1.1715728752538093,1.1715728752538097C0.42142736146167037,1.9217183890459486 -8.881784197001252e-16,2.939134040641825 -8.881784197001252e-16,4.000000000000001Z " /><path  id="路径 2" style="stroke:#FFFFFF; stroke-width:2; stroke-opacity:1; stroke-dasharray:0 0" transform="translate(17.5 2)  rotate(0 7.5 7.5)" d="M0,15L15,0 " /></g></svg>