<svg xmlns="http://www.w3.org/2000/svg" xmlns:xlink="http://www.w3.org/1999/xlink" width="36" height="36" viewBox="0 0 36 36" fill="none"><g opacity="1" transform="translate(0 0)  rotate(0 18 18)"><path id="矩形 9" style="fill:#C4C4C4" transform="translate(0 0)  rotate(0 18 18)" opacity="0" d="M0,36L36,36L36,0L0,0L0,36Z " /><path id="圆形 2" style="fill:#242C6B" transform="translate(0 0)  rotate(0 18 16.41176470588235)" opacity="1" d="M18,0C8.06,0 0,7.35 0,16.41C0,25.48 8.06,32.82 18,32.82C27.94,32.82 36,25.48 36,16.41C36,7.35 27.94,0 18,0Z " /><path  id="路径 4" style="stroke:#F8D9C1; stroke-width:2; stroke-opacity:1; stroke-dasharray:0 0" transform="translate(7.411764705882353 15.882352941176471)  rotate(0 5.823529411764706 0.5294117647058824)" d="M0,0L11.65,0 " /><path id="路径 3" style="fill:#242C6B" transform="translate(24.35294117647061 25.411764705882433)  rotate(0 4.235294117647059 4.52551445261413)" opacity="1" d="M5.82,1.64C5.82,-2.91 0,3.23 0,5.36C0.01,7.02 5.85,8.65 8.47,9.05C7.61,7.66 5.82,5.35 5.82,1.64Z " /></g></svg>