<svg xmlns="http://www.w3.org/2000/svg" xmlns:xlink="http://www.w3.org/1999/xlink" width="39.99999999999977" height="48.37209302325573" viewBox="0 0 39.99999999999977 48.37209302325573" fill="none"><defs><linearGradient id="linear_0" x1="16.944%" y1="100%" x2="75.996%" y2="8.346%" gradientUnits="objectBoundingBox"><stop offset="0" stop-color="#FADFCA" stop-opacity="1" /><stop offset="1" stop-color="#FAE5CA" stop-opacity="1" /></linearGradient></defs><g opacity="1" transform="translate(0 0)  rotate(0 20 24.186046511627907)"><path id="并集" fill="url(#linear_0)" transform="translate(-4.1310624172098847e-16 -8.262124834419769e-16)  rotate(0 19.999998006644514 24.186046511627907)" opacity="1" d="M2.7907 48.3721C1.24944 48.3721 0 47.1227 0 45.5814L0 2.7907C0 2.05056 0.294019 1.34073 0.817376 0.817376C1.22012 0.414634 1.73329 0.147702 2.28571 0.0460573L2.28571 0L17.7143 0C18.7752 0 19.7926 0.421427 20.5427 1.17157C21.1432 1.77208 21.5331 2.54386 21.6647 3.37209L38 3.37209C38.5304 3.37209 39.0391 3.58281 39.4142 3.95788C39.7893 4.33295 40 4.84166 40 5.37209L40 28.3488C40 29.4534 39.1046 30.3488 38 30.3488L24.5714 30.3488C23.5106 30.3488 22.4931 29.9274 21.743 29.1773C21.1433 28.5775 20.7537 27.807 20.6215 26.98L5.5814 26.98L5.5814 45.5814C5.5814 47.1227 4.33196 48.3721 2.7907 48.3721Z " /><path id="并集" style="fill:#F8D9C1" transform="translate(-4.1310624172098847e-16 -8.262124834419769e-16)  rotate(0 19.999998006644514 24.186046511627907)" opacity="1" d="M2.7907 48.3721C1.24944 48.3721 0 47.1227 0 45.5814L0 2.7907C0 2.05056 0.294019 1.34073 0.817376 0.817376C1.22012 0.414634 1.73329 0.147702 2.28571 0.0460573L2.28571 0L17.7143 0C18.7752 0 19.7926 0.421427 20.5427 1.17157C21.1432 1.77208 21.5331 2.54386 21.6647 3.37209L38 3.37209C38.5304 3.37209 39.0391 3.58281 39.4142 3.95788C39.7893 4.33295 40 4.84166 40 5.37209L40 28.3488C40 29.4534 39.1046 30.3488 38 30.3488L24.5714 30.3488C23.5106 30.3488 22.4931 29.9274 21.743 29.1773C21.1433 28.5775 20.7537 27.807 20.6215 26.98L5.5814 26.98L5.5814 45.5814C5.5814 47.1227 4.33196 48.3721 2.7907 48.3721Z " /></g></svg>