<svg xmlns="http://www.w3.org/2000/svg" xmlns:xlink="http://www.w3.org/1999/xlink" width="40" height="40" viewBox="0 0 40 40" fill="none"><defs><linearGradient id="linear_0" x1="100%" y1="100%" x2="34.195%" y2="0%" gradientUnits="objectBoundingBox"><stop offset="0" stop-color="#DE9E6D" stop-opacity="1" /><stop offset="1" stop-color="#F0BC97" stop-opacity="1" /></linearGradient></defs><g opacity="1" transform="translate(0 0)  rotate(0 20 20)"><path id="圆形 6" style="fill:#F8D9C1" transform="translate(0 0)  rotate(0 20 20)" opacity="1" d="M20,0C8.95,0 0,8.95 0,20C0,31.05 8.95,40 20,40C31.05,40 40,31.05 40,20C40,8.95 31.05,0 20,0Z " /><path  id="圆形 6" style="stroke:#FFFFFF; stroke-width:2; stroke-opacity:1; stroke-dasharray:0 0" transform="translate(0 0)  rotate(0 20 20)" d="M20,0C8.95,0 0,8.95 0,20C0,31.05 8.95,40 20,40C31.05,40 40,31.05 40,20C40,8.95 31.05,0 20,0Z " /><path id="路径 7" fill="url(#linear_0)" transform="translate(8.25 10.5)  rotate(0 11.75 9.5)" opacity="1" d="M2.5,19L22,19L23.5,4.5L18,8L11.5,0L6,8L0,4.5L2.5,19Z " /></g></svg>