<svg xmlns="http://www.w3.org/2000/svg" xmlns:xlink="http://www.w3.org/1999/xlink" width="238" height="238" viewBox="0 0 238 238" fill="none"><defs><path id="path_0"
        transform="translate(0 0) rotate(0 119 119)"
        d="M0,238L238,238L238,0L0,0L0,238Z" /><filter id="filter_5" x="0" y="0" width="287" height="319" filterUnits="userSpaceOnUse" color-interpolation-filters="sRGB"><feFlood flood-opacity="0" result="BackgroundImageFix"/>
          <feBlend mode="normal" in="SourceGraphic" in2="BackgroundImageFix" result="shape"/>
          <feGaussianBlur stdDeviation="31" result="effect1_foregroundBlur" /></filter><linearGradient id="linear_0" x1="54.74400000000001%" y1="40.425%" x2="75.84100000000001%" y2="91.108%" gradientUnits="objectBoundingBox"><stop offset="0" stop-color="#FFEDED" stop-opacity="1" /><stop offset="1" stop-color="#E39696" stop-opacity="1" /></linearGradient><filter id="filter_8" x="15.702379836948012" y="56.18741166998052" width="202.90462535248525" height="73.96915115663933" filterUnits="userSpaceOnUse" color-interpolation-filters="sRGB"></filter><rect id="path_1" x="0" y="0" width="157.09695618496488" height="143.41443923084006" /><linearGradient id="linear_1" x1="48.86899159844432%" y1="89.35644018887727%" x2="50%" y2="-36.510999999999996%" gradientUnits="objectBoundingBox"><stop offset="0" stop-color="#FFABAB" stop-opacity="1" /><stop offset="1" stop-color="#FF8787" stop-opacity="1" /></linearGradient><filter id="filter_12" x="1.1826395927551179" y="11.234977990390261" width="155.91431659220976" height="39.42619153631779" filterUnits="userSpaceOnUse" color-interpolation-filters="sRGB"></filter><filter id="filter_14" x="26.94795215971702" y="21.21346100710854" width="111.53289793784406" height="16.93490219305046" filterUnits="userSpaceOnUse" color-interpolation-filters="sRGB"></filter><linearGradient id="linear_2" x1="0%" y1="50%" x2="100%" y2="50%" gradientUnits="objectBoundingBox"><stop offset="0" stop-color="#FFA45E" stop-opacity="1" /><stop offset="0.3698" stop-color="#F8D9C1" stop-opacity="1" /><stop offset="0.5718484650555192" stop-color="#FFEBDB" stop-opacity="1" /><stop offset="0.8348573916829959" stop-color="#F8D9C1" stop-opacity="1" /><stop offset="1" stop-color="#F7A76A" stop-opacity="1" /></linearGradient><filter id="filter_16" x="83.58373144350865" y="0.5592354547042007" width="52.34062296857785" height="29.221040206120747" filterUnits="userSpaceOnUse" color-interpolation-filters="sRGB"></filter><linearGradient id="linear_3" x1="50%" y1="20.445%" x2="51%" y2="74.29299999999999%" gradientUnits="objectBoundingBox"><stop offset="0" stop-color="#F58282" stop-opacity="1" /><stop offset="1" stop-color="#E04141" stop-opacity="1" /></linearGradient><filter id="filter_18" x="74.23179594104994" y="46.14634076723999" width="75.19405870437936" height="97.26809846360007" filterUnits="userSpaceOnUse" color-interpolation-filters="sRGB"></filter><linearGradient id="linear_4" x1="5.489999999999999%" y1="76.52600000000001%" x2="89.262%" y2="14.649000000000001%" gradientUnits="objectBoundingBox"><stop offset="0" stop-color="#FF7373" stop-opacity="1" /><stop offset="1" stop-color="#FF8C8C" stop-opacity="1" /></linearGradient><filter id="filter_20" x="74.68020240376788" y="26.14520135077811" width="81.97809604153204" height="44.96004252574676" filterUnits="userSpaceOnUse" color-interpolation-filters="sRGB"></filter><linearGradient id="linear_5" x1="100%" y1="0%" x2="0%" y2="100%" gradientUnits="objectBoundingBox"><stop offset="0" stop-color="#A35518" stop-opacity="1" /><stop offset="0.3441" stop-color="#F0B07F" stop-opacity="1" /><stop offset="0.5718" stop-color="#FCBA83" stop-opacity="1" /><stop offset="0.8348573916829959" stop-color="#F28E41" stop-opacity="1" /><stop offset="1" stop-color="#A34700" stop-opacity="1" /></linearGradient><filter id="filter_22" x="83.58644286814138" y="0" width="37.35182475093792" height="23.848349675267286" filterUnits="userSpaceOnUse" color-interpolation-filters="sRGB"></filter><filter id="filter_24" x="110.486486650311" y="56.323177379011405" width="2.1257569121278976" height="71.83688463055381" filterUnits="userSpaceOnUse" color-interpolation-filters="sRGB"></filter><filter id="filter_26" x="74.10459092718285" y="45.34335781563271" width="75.19865076652452" height="29.35672890126174" filterUnits="userSpaceOnUse" color-interpolation-filters="sRGB"></filter><linearGradient id="linear_6" x1="50%" y1="0%" x2="51%" y2="100%" gradientUnits="objectBoundingBox"><stop offset="0" stop-color="#A35518" stop-opacity="1" /><stop offset="0.3441" stop-color="#F0B07F" stop-opacity="1" /><stop offset="0.5718484650555192" stop-color="#FFDFC4" stop-opacity="1" /><stop offset="0.8348573916829959" stop-color="#F0A267" stop-opacity="1" /><stop offset="1" stop-color="#BF5E13" stop-opacity="1" /></linearGradient><filter id="filter_28" x="112.17163705960624" y="49.39620096241971" width="12.170229464395504" height="78.08404697856028" filterUnits="userSpaceOnUse" color-interpolation-filters="sRGB"></filter><linearGradient id="linear_7" x1="173.827%" y1="50%" x2="0%" y2="50%" gradientUnits="objectBoundingBox"><stop offset="0" stop-color="#A35518" stop-opacity="1" /><stop offset="0.3441" stop-color="#F0B07F" stop-opacity="1" /><stop offset="0.5718" stop-color="#FCBA83" stop-opacity="1" /><stop offset="0.8348573916829959" stop-color="#F28E41" stop-opacity="1" /><stop offset="1" stop-color="#A34700" stop-opacity="1" /></linearGradient><filter id="filter_30" x="74.40962619837492" y="20.779591192493058" width="9.176816669766424" height="12.069441927126732" filterUnits="userSpaceOnUse" color-interpolation-filters="sRGB"></filter><linearGradient id="linear_8" x1="100%" y1="23.941000000000003%" x2="50%" y2="72.237%" gradientUnits="objectBoundingBox"><stop offset="0" stop-color="#FF8F8F" stop-opacity="1" /><stop offset="1" stop-color="#E35252" stop-opacity="1" /></linearGradient><filter id="filter_32" x="7.872082443070674" y="51.063955074556304" width="67.0066226967428" height="91.83169205931145" filterUnits="userSpaceOnUse" color-interpolation-filters="sRGB"></filter><linearGradient id="linear_9" x1="8.48%" y1="31.878%" x2="100%" y2="79.798%" gradientUnits="objectBoundingBox"><stop offset="0" stop-color="#FFA45E" stop-opacity="1" /><stop offset="0.1216" stop-color="#F8D9C1" stop-opacity="1" /><stop offset="0.2248" stop-color="#FFEBDB" stop-opacity="1" /><stop offset="0.3736" stop-color="#F8D9C1" stop-opacity="1" /><stop offset="1" stop-color="#F7A76A" stop-opacity="1" /></linearGradient><filter id="filter_34" x="26.95969512409151" y="0.5551236760635883" width="47.4485753619671" height="29.22378139188118" filterUnits="userSpaceOnUse" color-interpolation-filters="sRGB"></filter><filter id="filter_36" x="43.637668040543964" y="61.30802368434266" width="2.1244011998114942" height="71.66693111340751" filterUnits="userSpaceOnUse" color-interpolation-filters="sRGB"></filter><linearGradient id="linear_10" x1="100%" y1="0%" x2="0%" y2="100%" gradientUnits="objectBoundingBox"><stop offset="0" stop-color="#A35518" stop-opacity="1" /><stop offset="0.3441" stop-color="#F0B07F" stop-opacity="1" /><stop offset="0.5718" stop-color="#FCBA83" stop-opacity="1" /><stop offset="0.8348573916829959" stop-color="#F28E41" stop-opacity="1" /><stop offset="1" stop-color="#A34700" stop-opacity="1" /></linearGradient><filter id="filter_38" x="26.95969512409151" y="23.16975391146446" width="37.058396169015424" height="8.630775654793034" filterUnits="userSpaceOnUse" color-interpolation-filters="sRGB"></filter><linearGradient id="linear_11" x1="50%" y1="0%" x2="51%" y2="100%" gradientUnits="objectBoundingBox"><stop offset="0" stop-color="#A35518" stop-opacity="1" /><stop offset="0.3441" stop-color="#F0B07F" stop-opacity="1" /><stop offset="0.5718484650555192" stop-color="#FFDFC4" stop-opacity="1" /><stop offset="0.8348573916829959" stop-color="#F0A267" stop-opacity="1" /><stop offset="1" stop-color="#BF5E13" stop-opacity="1" /></linearGradient><filter id="filter_40" x="30.877703718510958" y="56.323177379011405" width="13.822842778096998" height="76.29816445564401" filterUnits="userSpaceOnUse" color-interpolation-filters="sRGB"></filter><filter id="filter_42" x="7.689600258666783" y="50.77090562127238" width="66.71867022739184" height="23.92918109562204" filterUnits="userSpaceOnUse" color-interpolation-filters="sRGB"></filter><linearGradient id="linear_12" x1="-0.00036502059759557114%" y1="50.00108879089772%" x2="100%" y2="71.77799999999999%" gradientUnits="objectBoundingBox"><stop offset="0" stop-color="#FF8C8C" stop-opacity="1" /><stop offset="1" stop-color="#FF8F8F" stop-opacity="1" /></linearGradient><filter id="filter_44" x="1.7398443080698769" y="30.014691150693324" width="74.09708656351967" height="40.60226073768419" filterUnits="userSpaceOnUse" color-interpolation-filters="sRGB"></filter><filter id="filter_48" x="0" y="-3.552713678800501e-15" width="70.17302520959969" height="19.480236606453765" filterUnits="userSpaceOnUse" color-interpolation-filters="sRGB"></filter><filter id="filter_50" x="17.46021892301995" y="28.042363888716125" width="53.913967398917336" height="45.09798813049704" filterUnits="userSpaceOnUse" color-interpolation-filters="sRGB"></filter><linearGradient id="linear_13" x1="36.86%" y1="78.726%" x2="82.586%" y2="0%" gradientUnits="objectBoundingBox"><stop offset="0" stop-color="#FFA45E" stop-opacity="1" /><stop offset="0.3545" stop-color="#F8D9C1" stop-opacity="1" /><stop offset="0.5119" stop-color="#FFEBDB" stop-opacity="1" /><stop offset="0.7071" stop-color="#F8D9C1" stop-opacity="1" /><stop offset="1" stop-color="#F7A76A" stop-opacity="1" /></linearGradient><filter id="filter_52" x="17.462930347652712" y="26.814312668046103" width="52.70060487573207" height="44.28385595965109" filterUnits="userSpaceOnUse" color-interpolation-filters="sRGB"></filter><filter id="filter_54" x="83.58644286814138" y="29.482857005818943" width="44.22875861049786" height="34.21959244025407" filterUnits="userSpaceOnUse" color-interpolation-filters="sRGB"></filter><linearGradient id="linear_14" x1="35.992000000000004%" y1="11.068%" x2="50%" y2="82.187%" gradientUnits="objectBoundingBox"><stop offset="0" stop-color="#FFA45E" stop-opacity="1" /><stop offset="0.3032" stop-color="#F8D9C1" stop-opacity="1" /><stop offset="0.5072" stop-color="#FFEBDB" stop-opacity="1" /><stop offset="0.6935" stop-color="#F8D9C1" stop-opacity="1" /><stop offset="1" stop-color="#F7A76A" stop-opacity="1" /></linearGradient><filter id="filter_56" x="89.78747100339201" y="28.688204038389866" width="38.02773047524721" height="30.979219968338956" filterUnits="userSpaceOnUse" color-interpolation-filters="sRGB"></filter><filter id="filter_58" x="83.58644286814138" y="18.720961710393983" width="16.204829318026015" height="7.181906692311106" filterUnits="userSpaceOnUse" color-interpolation-filters="sRGB"></filter><filter id="filter_62" x="0" y="-7.105427357601002e-14" width="1.6084861468464418" height="72.99366502145274" filterUnits="userSpaceOnUse" color-interpolation-filters="sRGB"></filter><filter id="filter_66" x="0" y="0" width="0.6604790086946483" height="16.5362030997583" filterUnits="userSpaceOnUse" color-interpolation-filters="sRGB"></filter><filter id="filter_70" x="0" y="0" width="30.064276328666026" height="9.2528725343115" filterUnits="userSpaceOnUse" color-interpolation-filters="sRGB"></filter><linearGradient id="linear_15" x1="7.381%" y1="31.52%" x2="84.629%" y2="100%" gradientUnits="objectBoundingBox"><stop offset="0" stop-color="#FFEDED" stop-opacity="1" /><stop offset="1" stop-color="#FFCCCC" stop-opacity="1" /></linearGradient><filter id="filter_72" x="4.702379836948012" y="85.18741166998052" width="202.90462535248525" height="73.96915115663933" filterUnits="userSpaceOnUse" color-interpolation-filters="sRGB"></filter></defs><g opacity="1" transform="translate(0 0)  rotate(0 119 119)"><mask id="mask-0" fill="white"><use xlink:href="#path_0"></use></mask><g mask="url(#mask-0)"><path id="矩形 26" style="fill:#C4C4C4" transform="translate(0 0)  rotate(0 119 119)" opacity="0" d="M0,238L238,238L238,0L0,0L0,238Z " /></g><g mask="url(#mask-0)"><g id="圆形 1" filter="url(#filter_5)"><path id="圆形 1" style="fill:#484F7D" transform="translate(62 138)  rotate(0 81.5 21.5)" opacity="0.57" d="M81.5,0C36.49,0 0,9.63 0,21.5C0,33.37 36.49,43 81.5,43C126.51,43 163,33.37 163,21.5C163,9.63 126.51,0 81.5,0Z " /></g></g><g mask="url(#mask-0)"><g opacity="1" transform="translate(48 31)  rotate(0 111.65469251319064 87.6719872483003)"><path id="路径 1" fill="url(#linear_0)" transform="translate(15.702379836948012 56.18741166998052)  rotate(-9.46961866972169 101.45231267624263 36.984575578319664)" opacity="1" d="M64.85,31.47C48.38,25.14 18.41,13.74 15.45,11.2C9.54,6.14 -11.14,4.87 7.85,29.78C26.85,54.69 51.76,70.31 104.54,72.84C157.31,75.38 202.9,72.84 202.9,72.84L197.42,36.99L186.86,37.38C186.86,37.38 154.78,37.38 145.06,37.38C135.35,37.38 135.78,34.85 124.8,34.85C113.82,34.85 112.96,25.88 97.78,12.05C82.6,-1.78 71.18,-6.11 76.67,12.05C82.16,30.2 81.31,37.8 64.85,31.47Z " /><g opacity="1" transform="translate(2.5265432617201213 1.6755105924457894)  rotate(-1.234405337728056 78.54847809248244 71.70721961542003)"><mask id="bg-mask" fill="white"><use xlink:href="#path_1"></use></mask><g mask="url(#bg-mask)" ><path id="并集" fill="url(#linear_1)" transform="translate(1.1826395927551179 11.234977990390261)  rotate(0 77.95715829610488 19.713095768158894)" opacity="1" d="M74.4053 13.88C74.4053 13.88 69.0353 8.43 63.1653 3.27L76.2654 0L96.6753 3.77C89.5253 9.07 83.5753 13.88 83.5753 13.88C83.5753 12.18 82.2153 10.81 80.5453 10.81L77.4454 10.81C75.7654 10.81 74.4053 12.18 74.4053 13.88Z M135.913 11.0004L155.913 14.6904L150.333 16.3704L124.333 24.1804L123.503 24.4304C123.273 24.0404 123.033 23.6804 122.783 23.3504C122.223 22.6204 121.613 22.0604 120.933 21.6904C119.643 21.0104 118.333 20.4704 117.053 20.0704C116.793 19.9804 116.543 19.9104 116.283 19.8304Q115.818 19.6954 115.383 19.5904C115.083 19.5204 114.793 19.4504 114.503 19.3904C114.363 19.3604 114.213 19.3204 114.073 19.3004C113.983 19.2804 113.893 19.2604 113.813 19.2504C113.703 19.2204 113.603 19.2104 113.503 19.1904C113.273 19.1504 113.043 19.1104 112.823 19.0804L112.823 19.0704C112.583 19.0404 112.353 19.0004 112.133 18.9704C111.903 18.9404 111.683 18.9204 111.473 18.8904C110.713 18.8104 110.023 18.7704 109.433 18.7404C109.323 18.7404 109.223 18.7304 109.123 18.7304C109.033 18.7304 108.953 18.7304 108.863 18.7204L107.963 18.7204C107.793 18.7204 107.643 18.7304 107.513 18.7304C107.463 18.7304 107.413 18.7404 107.373 18.7404L107.313 18.7404C119.183 17.8904 131.663 16.4204 134.723 13.8804C135.603 13.1504 135.953 12.1604 135.913 11.0004Z M28.52 11.9255L26.95 16.8455C26.95 16.8455 28.16 19.2355 33.27 21.8355C30.38 22.7555 28.09 23.8155 26.95 25.0355C26.63 25.3755 26.31 25.7855 26 26.2455L5.66 20.6155L0 19.0555L28.52 11.9255Z M83.5777 19.809C83.5777 19.809 85.9877 19.769 89.7777 19.639L89.7777 19.809C89.7777 19.809 104.998 20.309 109.738 24.739C110.288 25.259 110.738 25.979 111.118 26.859L111.538 28.029L73.9277 39.329L73.6177 39.429L48.4477 32.459C48.7077 31.999 48.9877 31.579 49.2777 31.209C49.7077 30.679 50.1677 30.249 50.6777 29.939C50.6777 29.939 59.3077 22.979 70.1477 18.529C71.5277 18.929 72.9377 19.359 74.3977 19.809C74.3977 21.509 75.7577 22.879 77.4377 22.879L80.5377 22.879C82.2177 22.879 83.5777 21.509 83.5777 19.809Z " /><path id="路径 9" style="fill:#E84A4A" transform="translate(26.94795215971702 21.21346100710854)  rotate(0 55.76644896892202 8.467451096525227)" opacity="1" d="M5.5,0L0.01,5.6C0.01,5.6 -1,13.93 16.86,16.55C34.72,19.18 40.08,7.25 44.95,10.59C49.83,13.92 55.19,11.52 61.03,10.59C66.88,9.66 91.56,11.15 99.35,8.27C107.15,5.39 111.37,2.21 111.53,0.68C111.69,-0.85 99.52,0.68 99.52,0.68L58.11,0L52.05,2.64L45.5,0.68L5.5,0Z " /><path id="路径 10" fill="url(#linear_2)" transform="translate(83.58373144350865 0.5592354547042007)  rotate(0 26.170311484288924 14.610520103060374)" opacity="1" d="M37.27,0C39.43,5.18 0,23.29 0,23.29L0,29.22C0,29.22 2.41,29.18 6.2,29.05C10.63,28.9 16.95,28.63 23.47,28.17C23.49,28.17 23.51,28.17 23.53,28.16C23.55,28.16 23.57,28.16 23.6,28.16C23.62,28.16 23.62,28.16 23.63,28.16C23.65,28.16 23.67,28.15 23.68,28.15C23.7,28.15 23.72,28.15 23.74,28.15C35.6,27.3 48.08,25.83 51.15,23.29C52.03,22.56 52.38,21.57 52.34,20.41C52.07,13.43 37.5,0.2 37.27,0Z " /><path id="并集" fill="url(#linear_3)" transform="translate(74.23179594104994 46.14634076723999)  rotate(0 37.59702935218968 48.634049231800034)" opacity="1" d="M71.4573 68.66L75.1973 0L53.4473 7.02C53.6873 10.15 53.7073 12.36 53.7073 12.36L50.2373 9.4L50.2373 77.22L71.4573 68.66Z M38.07 14.3272L38.07 82.1372L0.59 97.2672L0 24.2772L38.07 11.9872L38.07 14.3272Z " /><path id="并集" fill="url(#linear_4)" transform="translate(74.68020240376788 26.14520135077811)  rotate(0 40.98904802076602 22.480021262873375)" opacity="1" d="M50.3976 9.49L49.5676 9.74C49.8676 10.25 50.1376 10.81 50.3976 11.4C51.8863 14.8389 52.0286 19.6852 52.1525 23.9055C52.1951 25.3549 52.2355 26.7306 52.3276 27.95L75.3576 20.68L81.0076 18.86L81.9776 0L76.3976 1.68L50.3976 9.49Z M0 24.6386L37.61 13.3386C37.86 14.1586 38.07 15.0686 38.23 16.0386L38.23 32.6686L0.16 44.9586L0 24.6386Z " /><path id="路径 12" fill="url(#linear_5)" transform="translate(83.58644286814138 0)  rotate(0 18.67591237546896 11.924174837633643)" opacity="1" d="M37.26,0.56L37.26,0.55C35.77,-2.26 23.22,6.23 13.1,13.73C5.95,19.03 0,23.85 0,23.85C0,23.85 39.43,5.73 37.27,0.56C37.26,0.56 37.26,0.56 37.26,0.56Z " /><path id="路径 13" style="fill:#D65C5C" transform="translate(110.486486650311 56.323177379011405)  rotate(0 1.062878456063947 35.918442315276906)" opacity="1" d="M0,71.84L2.13,70.98L2.13,0.57L0.11,0L0,71.84Z " /><path id="路径 14" style="fill:#D65C5C" transform="translate(74.10459092718285 45.34335781563271)  rotate(0 37.599325383262254 14.678364450630871)" opacity="1" d="M0,24.27L0.3,29.36L74.91,5.25L75.2,0L0,24.27Z " /><path id="路径 15" fill="url(#linear_6)" transform="translate(112.17163705960624 49.39620096241971)  rotate(0 6.085114732197755 39.04202348928014)" opacity="1" d="M5.9,0L1.65,7.4L1.65,7.4L0,10.27L0,78.08L12.17,73.17L12.17,5.34L11.03,4.37L5.9,0Z " /><path id="路径 17" fill="url(#linear_7)" transform="translate(74.40962619837492 20.779591192493058)  rotate(0 4.588408334883211 6.034720963563365)" opacity="1" d="M6.14,0L3.04,0C1.36,0 0,1.37 0,3.07L0,9C0,10.69 1.36,12.07 3.04,12.07L6.14,12.07C7.82,12.07 9.18,10.7 9.18,9L9.18,3.07C9.18,1.37 7.82,0 6.14,0Z " /><path id="并集" fill="url(#linear_8)" transform="translate(7.872082443070674 51.063955074556304)  rotate(0 33.5033113483714 45.915846029655725)" opacity="1" d="M9.77 14.88C9.77 14.88 10.62 9.65 12.06 3.42L0 0L7.2 71.92L25.45 78L23.19 6.89L9.77 14.88Z M66.4009 18.8444L37.1109 10.5344C37.0709 11.5144 37.0309 12.4544 37.0109 13.3444L37.0109 81.8444L67.0009 91.8344L66.4109 18.8444L66.4009 18.8444Z " /><path id="路径 19" fill="url(#linear_9)" transform="translate(26.95969512409151 0.5551236760635883)  rotate(0 23.72428768098355 14.61189069594059)" opacity="1" d="M47.45,23.29C47.45,23.29 42.09,17.85 36.21,12.69C32.29,9.23 28.14,5.91 25.21,4.43C17.9,0.74 8.4,0 8.4,0L1.57,21.34L0,26.26C0,26.26 5.07,18.06 37.06,26.26C37.06,26.26 37.06,26.26 37.06,26.26C39.01,26.76 41.05,27.32 43.2,27.94C44.57,28.34 45.99,28.77 47.45,29.22L47.45,23.29Z " /><path id="路径 21" style="fill:#D65C5C" transform="translate(43.637668040543964 61.30802368434266)  rotate(0 1.0622005999057476 35.83346555670376)" opacity="1" d="M0,70.93L2.12,71.67L2.12,0.57L0.11,0L0,70.93Z " /><path id="路径 22" fill="url(#linear_10)" transform="translate(26.95969512409151 23.16975391146446)  rotate(0 18.529198084507712 4.315387827396516)" opacity="1" d="M0,3.64C0,3.64 1.21,6.03 6.32,8.63C17.21,5.16 36.78,3.67 37.06,3.64C5.06,-4.56 0,3.64 0,3.64Z " /><path id="路径 23" fill="url(#linear_11)" transform="translate(30.877703718510958 56.323177379011405)  rotate(0 6.911421389048497 38.149082227822014)" opacity="1" d="M3.94,2.15L2.26,0L0.36,1.13L0,1.34L2.26,72.45L13.82,76.3L13.82,14.77L3.94,2.15Z " /><path id="路径 24" style="fill:#D65C5C" transform="translate(7.689600258666783 50.77090562127238)  rotate(0 33.35933511369592 11.964590547811024)" opacity="1" d="M0.66,6.56L66.72,23.93L66.41,18.84L0,0L0.66,6.56Z " /><path id="并集" fill="url(#linear_12)" transform="translate(1.7398443080698769 30.014691150693324)  rotate(0 37.048543281759834 20.301130368842095)" opacity="1" d="M0 0L2.84 20.38L7.68 21.75L19.75 25.18C21.26 18.64 23.44 11 26 7.2L5.66 1.57L0 0Z M73.6154 20.3813L48.4454 13.4113C45.9954 17.7413 45.1054 25.8113 44.7954 32.2913L74.0754 40.6012L74.0954 40.5913L73.9354 20.2812L73.6154 20.3813Z " /><g opacity="1" transform="translate(0 28.99081416182284)  rotate(0 35.08651260479984 9.740118303226883)"><path id="路径 25" style="fill:#F8D9C1" transform="translate(0 -3.552713678800501e-15)  rotate(0 35.08651260479984 9.740118303226883)" opacity="1" d="M34.91,10.39L43.69,12.79L48.09,13.96L50.28,14.54L52.49,15.11C58.36,16.64 64.24,18.12 70.16,19.48L70.17,19.42C64.4,17.54 58.59,15.79 52.77,14.08L50.58,13.44L48.4,12.81L44.02,11.55L35.26,9.09C32.34,8.3 29.41,7.49 26.48,6.7C23.55,5.92 20.62,5.13 17.69,4.38C11.81,2.85 5.93,1.36 0.02,0L0,0.06C5.78,1.93 11.59,3.68 17.41,5.39C20.32,6.26 23.24,7.08 26.15,7.92C29.07,8.76 31.99,9.57 34.91,10.39Z " /></g><path id="路径 26" style="fill:#E84A4A" transform="translate(17.46021892301995 28.042363888716125)  rotate(0 26.956983699458664 22.548994065248525)" opacity="1" d="M51.11,0L46.56,1.74L0,37.62L15.68,29.29C15.68,29.29 25.9,43.01 28.03,45.1C27.75,40.42 29.8,21.95 33.22,15C36.64,8.06 53.91,0.98 53.91,0.98L51.11,0Z " /><path id="路径 28" fill="url(#linear_13)" transform="translate(17.462930347652712 26.814312668046103)  rotate(0 26.350302437866038 22.141927979825546)" opacity="1" d="M27.24,34.46L27.34,34.49C27.65,28.02 28.55,19.95 31,15.62C31.25,15.16 31.53,14.74 31.83,14.37C32.25,13.84 32.72,13.41 33.22,13.1C33.22,13.1 41.86,6.14 52.7,1.68C50.55,1.06 48.5,0.5 46.56,0C46.56,0 46.56,0 46.56,0C46.27,0.02 26.71,1.51 15.82,4.99C12.93,5.91 10.64,6.97 9.5,8.19C9.18,8.53 8.86,8.94 8.55,9.4C5.99,13.21 3.81,20.84 2.29,27.38C0.85,33.61 0,38.85 0,38.85L13.42,30.85L13.41,30.54L13.77,30.64L15.68,29.51L17.36,31.66L27.24,44.28C27.24,44.28 27.13,41.37 27.24,37.3L27.24,34.46Z " /><path id="路径 29" style="fill:#D65C5C" transform="translate(83.58644286814138 29.482857005818943)  rotate(0 22.114379305248928 17.109796220127034)" opacity="1" d="M26.17,34.22L35.41,23.63L44.23,28.22L40.28,13.29L26.17,0.65L9.55,0L0,0.3C0,0.3 14.87,1.14 20.71,3.77C26.56,6.4 26.17,10.25 26.17,10.25L26.17,34.22Z " /><path id="路径 30" fill="url(#linear_14)" transform="translate(89.78747100339201 28.688204038389866)  rotate(0 19.013865237623605 15.489609984169478)" opacity="1" d="M34.55,26.05L38.03,29.01C38.03,29.01 38,26.81 37.77,23.68C37.41,18.91 36.55,11.99 34.56,7.37C34.3,6.78 34.02,6.22 33.72,5.71C33.5,5.32 33.26,4.96 33,4.63C32.45,3.9 31.83,3.34 31.15,2.97C29.86,2.29 28.55,1.76 27.28,1.35C27.02,1.26 26.76,1.19 26.51,1.11C26.5,1.11 26.5,1.11 26.5,1.11C26.2,1.02 25.9,0.95 25.61,0.87C25.61,0.87 25.6,0.87 25.6,0.87C25.31,0.8 25.01,0.73 24.73,0.67C24.58,0.64 24.44,0.61 24.29,0.58C24.21,0.56 24.12,0.54 24.03,0.53C23.93,0.51 23.83,0.49 23.72,0.47C23.49,0.43 23.27,0.39 23.05,0.36C23.05,0.36 23.04,0.35 23.04,0.35C22.81,0.32 22.58,0.28 22.35,0.26C22.12,0.23 21.9,0.2 21.69,0.18C20.93,0.09 20.25,0.05 19.65,0.02C19.55,0.02 19.45,0.02 19.35,0.01C19.26,0.01 19.17,0.01 19.09,0.01C18.75,0 18.45,0 18.19,0C18.02,0.01 17.86,0.01 17.74,0.01C17.69,0.02 17.64,0.02 17.6,0.02C17.55,0.02 17.51,0.02 17.47,0.03C17.47,0.03 17.46,0.03 17.46,0.03L17.43,0.03C17.42,0.03 17.41,0.03 17.4,0.03C17.39,0.03 17.37,0.03 17.36,0.03C17.34,0.03 17.33,0.03 17.32,0.04C17.29,0.04 17.27,0.04 17.27,0.04C10.75,0.5 4.43,0.77 0,0.92L0.01,1.09C0.01,1.09 15.22,1.59 19.97,6.02C20.51,6.53 20.96,7.26 21.34,8.14L21.76,9.31C22.02,10.13 22.22,11.04 22.38,12.01L22.38,28.64L22.61,28.57C22.49,30.06 22.38,30.98 22.38,30.98L24.03,28.11L24.03,28.11L28.28,20.71L33.41,25.08L34.55,26.05Z " /><path id="路径 31" style="fill:#F8D9C1" transform="translate(83.58644286814138 18.720961710393983)  rotate(0 8.102414659013009 3.5909533461555534)" opacity="1" d="M0,7.18C2.29,6.69 10.39,3.6 16.11,0.06C14.46,1.01 0,6.61 0,6.61C0,6.61 0,6.98 0,7.18Z M16.2,0C16.17,0.02 16.14,0.04 16.11,0.06C16.15,0.04 16.18,0.02 16.2,0Z " /><g opacity="1" transform="translate(73.58535310999883 69.6165577241881)  rotate(0 0.8042430734232209 36.496832510726364)"><path id="路径 32" style="fill:#F8D9C1" transform="translate(0 -7.105427357601002e-14)  rotate(0 0.8042430734232209 36.49683251072637)" opacity="1" d="M0.4,0C0.17,6.09 0.08,12.17 0.03,18.25C0.01,19.77 0.01,21.29 0.01,22.82L0,27.38C0.01,30.42 0.02,33.46 0.05,36.5C0.11,42.59 0.2,48.67 0.35,54.75C0.49,60.83 0.68,66.91 0.98,72.99L1.23,72.99C1.44,66.91 1.53,60.82 1.57,54.74C1.63,48.66 1.61,42.57 1.58,36.49C1.56,33.45 1.52,30.41 1.48,27.37L1.4,22.81C1.37,21.29 1.34,19.76 1.3,18.24C1.16,12.16 0.97,6.08 0.64,0L0.4,0Z " /></g><g opacity="1" transform="translate(73.68206058856934 49.30025946080489)  rotate(0 0.33023950434732413 8.26810154987915)"><path id="路径 33" style="fill:#F4D29A" transform="translate(0 0)  rotate(0 0.33023950434732413 8.26810154987915)" opacity="1" d="M0,8.27C0.01,9.65 0.03,11.03 0.07,12.4C0.11,13.78 0.17,15.16 0.27,16.54L0.51,16.53C0.59,15.16 0.63,13.78 0.65,12.4C0.66,11.02 0.67,9.64 0.65,8.27C0.63,6.89 0.61,5.51 0.57,4.13C0.52,2.75 0.47,1.38 0.38,0L0.14,0C0.07,1.38 0.04,2.76 0.02,4.14C0,5.51 0,6.89 0,8.27Z " /></g><g opacity="1" transform="translate(78.9989501357151 40.452155355236904)  rotate(0 15.032138164333013 4.62643626715575)"><path id="路径 34" style="fill:#F8D9C1" transform="translate(0 0)  rotate(0 15.032138164333013 4.62643626715575)" opacity="1" d="M3.73,7.82C2.49,8.22 1.24,8.61 0,9.01L0.07,9.25C1.33,8.91 2.58,8.55 3.84,8.2L7.6,7.11C10.11,6.38 12.61,5.64 15.11,4.88L18.85,3.74C20.1,3.36 21.35,2.99 22.6,2.6L26.33,1.43C27.58,1.03 28.82,0.64 30.06,0.24L30,0C28.74,0.35 27.48,0.71 26.23,1.06L22.47,2.15C21.21,2.51 19.96,2.88 18.71,3.25L14.96,4.37C12.46,5.12 9.96,5.87 7.47,6.65L3.73,7.82Z " /></g></g></g><path id="路径 1" fill="url(#linear_15)" transform="translate(4.702379836948012 85.18741166998052)  rotate(-9.46961866972169 101.45231267624263 36.984575578319664)" opacity="1" d="M64.85,31.47C48.38,25.14 18.41,13.74 15.45,11.2C9.54,6.14 -11.14,4.87 7.85,29.78C26.85,54.69 51.76,70.31 104.54,72.84C157.31,75.38 202.9,72.84 202.9,72.84L197.42,36.99L186.86,37.38C186.86,37.38 154.78,37.38 145.06,37.38C135.35,37.38 135.78,34.85 124.8,34.85C113.82,34.85 112.96,25.88 97.78,12.05C82.6,-1.78 71.18,-6.11 76.67,12.05C82.16,30.2 81.31,37.8 64.85,31.47Z " /></g></g></g></svg>