<svg xmlns="http://www.w3.org/2000/svg" xmlns:xlink="http://www.w3.org/1999/xlink" width="334" height="200" viewBox="0 0 334 200" fill="none"><defs><path id="path_0"
        transform="translate(0 0) rotate(0 167 100)"
        d="M1.2246467991473535e-15,180C0,185.30432979679088 2.1071368073083576,190.39140805477027 5.857864376269051,194.14213562373095C9.608591945229746,197.89286319269164 14.69567020320912,200 20,200L314,200C325.04569499661585,200 334,191.04569499661588 334,180L334,20.000000000000004C334,14.695670203209115 331.89286319269166,9.608591945229735 328.14213562373095,5.857864376269042C324.39140805477024,2.1071368073083505 319.30432979679085,-3.552713678800501e-15 314,-3.552713678800501e-15L20.000000000000004,0C14.69567020320912,0 9.608591945229742,2.107136807308354 5.857864376269047,5.857864376269049C2.107136807308354,9.608591945229744 -3.552713678800501e-15,14.695670203209126 -3.552713678800501e-15,20.000000000000007Z" /><linearGradient id="linear_0" x1="36.071%" y1="76.93299999999999%" x2="77.63600000000001%" y2="0%" gradientUnits="objectBoundingBox"><stop offset="0" stop-color="#F2E8CE" stop-opacity="1" /><stop offset="1" stop-color="#F0E1BD" stop-opacity="1" /></linearGradient><linearGradient id="linear_1" x1="30.243%" y1="39.137%" x2="50%" y2="84.961%" gradientUnits="objectBoundingBox"><stop offset="0" stop-color="#F2E8CE" stop-opacity="1" /><stop offset="1" stop-color="#F0E1BD" stop-opacity="1" /></linearGradient><linearGradient id="linear_2" x1="37.084%" y1="9.133%" x2="81.549%" y2="100%" gradientUnits="objectBoundingBox"><stop offset="0" stop-color="#FFFFFF" stop-opacity="1" /><stop offset="1" stop-color="#F2E8CE" stop-opacity="1" /></linearGradient></defs><g opacity="1" transform="translate(0 0)  rotate(0 167 100)"><mask id="mask-0" fill="white"><use xlink:href="#path_0"></use></mask><g mask="url(#mask-0)"><path id="矩形 16" style="fill:#F2E8CE" transform="translate(0 0)  rotate(0 167 100)" opacity="1" d="M1.2246467991473535e-15,180C0,185.30432979679088 2.1071368073083576,190.39140805477027 5.857864376269051,194.14213562373095C9.608591945229746,197.89286319269164 14.69567020320912,200 20,200L314,200C325.04569499661585,200 334,191.04569499661588 334,180L334,20.000000000000004C334,14.695670203209115 331.89286319269166,9.608591945229735 328.14213562373095,5.857864376269042C324.39140805477024,2.1071368073083505 319.30432979679085,-3.552713678800501e-15 314,-3.552713678800501e-15L20.000000000000004,0C14.69567020320912,0 9.608591945229742,2.107136807308354 5.857864376269047,5.857864376269049C2.107136807308354,9.608591945229744 -3.552713678800501e-15,14.695670203209126 -3.552713678800501e-15,20.000000000000007Z " /></g><g mask="url(#mask-0)"><path id="圆形 1" fill="url(#linear_0)" transform="translate(-24 157)  rotate(0 84 40.5)" opacity="1" d="M84,0C37.61,0 0,18.13 0,40.5C0,62.87 37.61,81 84,81C130.39,81 168,62.87 168,40.5C168,18.13 130.39,0 84,0Z " /></g><g mask="url(#mask-0)"><path id="路径 1" fill="url(#linear_1)" transform="translate(-30.5 -58.5)  rotate(0 225.70541957135399 84.29589591886906)" opacity="1" d="M203.5,146.5C348.54,106.17 301.32,108.84 403,108C530.1,106.95 375.76,32.01 296,0L13,48L0,160.5C17.54,168.4 87.47,178.76 203.5,146.5Z " /></g><g mask="url(#mask-0)"><path id="拼合图形" fill="url(#linear_2)" transform="translate(228 79)  rotate(0 53 53.5)" opacity="1" d="M0 76.1558C0 78.808 1.05357 81.3515 2.92893 83.2269C4.8043 85.1023 7.34784 86.1558 10 86.1558L96 86.1558C101.523 86.1558 106 81.6787 106 76.1558L106 10C106 7.34784 104.946 4.8043 103.071 2.92893C101.196 1.05357 98.6522 0 96 0L10 0C7.34784 0 4.8043 1.05357 2.92893 2.92893C1.05357 4.8043 0 7.34784 0 10L0 76.1558Z M22.3158 64.5964C22.3158 66.076 22.9036 67.495 23.9498 68.5413C24.9961 69.5875 26.4151 70.1753 27.8947 70.1753C29.3744 70.1753 30.7934 69.5875 31.8396 68.5413C32.8859 67.495 33.4737 66.076 33.4737 64.5964L33.4737 29.8971C33.4737 28.4175 32.8859 26.9985 31.8396 25.9522C30.7934 24.906 29.3744 24.3182 27.8947 24.3182C26.4151 24.3182 24.9961 24.906 23.9498 25.9522C22.9036 26.9985 22.3158 28.4175 22.3158 29.8971L22.3158 64.5964Z M74.1603 68.5413C73.1141 67.495 72.5263 66.076 72.5263 64.5964L72.5263 43.0984C72.5263 41.6188 73.1141 40.1998 74.1603 39.1535C75.2066 38.1073 76.6256 37.5195 78.1053 37.5195C79.5849 37.5195 81.0039 38.1073 82.0502 39.1535C83.0964 40.1998 83.6842 41.6188 83.6842 43.0984L83.6842 64.5964C83.6842 66.076 83.0964 67.495 82.0502 68.5413C81.0039 69.5875 79.5849 70.1753 78.1053 70.1753C76.6256 70.1753 75.2066 69.5875 74.1603 68.5413Z M47.4211 64.5964C47.4211 66.076 48.0088 67.495 49.0551 68.5413C50.1013 69.5875 51.5204 70.1753 53 70.1753C54.4796 70.1753 55.8987 69.5875 56.9449 68.5413C57.9912 67.495 58.5789 66.076 58.5789 64.5964L58.5789 52.8257C58.5789 51.3461 57.9912 49.927 56.9449 48.8808C55.8987 47.8345 54.4796 47.2468 53 47.2468C51.5204 47.2468 50.1013 47.8345 49.0551 48.8808C48.0088 49.927 47.4211 51.3461 47.4211 52.8257L47.4211 64.5964Z M0 101.442C0 102.916 0.58562 104.33 1.62803 105.372C2.67044 106.414 4.08425 107 5.55844 107L100.442 107C101.916 107 103.33 106.414 104.372 105.372C105.414 104.33 106 102.916 106 101.442C106 99.9674 105.414 98.5536 104.372 97.5111C103.33 96.4687 101.916 95.8831 100.442 95.8831L5.55844 95.8831C4.08425 95.8831 2.67044 96.4687 1.62803 97.5111C0.58562 98.5536 0 99.9674 0 101.442Z " /></g></g></svg>