<svg xmlns="http://www.w3.org/2000/svg" xmlns:xlink="http://www.w3.org/1999/xlink" width="600" height="129.9999999999999" viewBox="0 0 600 129.9999999999999" fill="none"><defs><path id="path_0"
        transform="translate(0 0) rotate(0 300 64.99999999999994)"
        d="M0,130L600,130L600,20.000000000000004C600,14.695670203209115 597.8928631926916,9.608591945229735 594.142135623731,5.857864376269042C590.3914080547703,2.1071368073083505 585.3043297967909,-3.552713678800501e-15 580,-3.552713678800501e-15L20.000000000000004,0C14.69567020320912,0 9.608591945229742,2.107136807308354 5.857864376269047,5.857864376269049C2.107136807308354,9.608591945229744 -3.552713678800501e-15,14.695670203209126 -3.552713678800501e-15,20.000000000000007L0,130Z" /></defs><g opacity="1" transform="translate(0 0)  rotate(0 300 64.99999999999994)"><mask id="mask-0" fill="white"><use xlink:href="#path_0"></use></mask><g mask="url(#mask-0)"><path id="矩形 2" style="fill:#FFFFFF" transform="translate(0 0)  rotate(0 300 64.99999999999994)" opacity="1" d="M0,130L600,130L600,20.000000000000004C600,14.695670203209115 597.8928631926916,9.608591945229735 594.142135623731,5.857864376269042C590.3914080547703,2.1071368073083505 585.3043297967909,-3.552713678800501e-15 580,-3.552713678800501e-15L20.000000000000004,0C14.69567020320912,0 9.608591945229742,2.107136807308354 5.857864376269047,5.857864376269049C2.107136807308354,9.608591945229744 -3.552713678800501e-15,14.695670203209126 -3.552713678800501e-15,20.000000000000007L0,130Z " /></g><g mask="url(#mask-0)"><path id="矩形 3" style="fill:#F8D9C1" transform="translate(-14 0)  rotate(0 314 65)" opacity="1" d="M0,130L628,130L628,0L0,0L0,130Z " /></g><g mask="url(#mask-0)"><path id="圆形 1" style="fill:#F5CFB3" transform="translate(279 -108)  rotate(0 192.5 119)" opacity="1" d="M192.5,0C86.19,0 0,53.28 0,119C0,184.72 86.19,238 192.5,238C298.81,238 385,184.72 385,119C385,53.28 298.81,0 192.5,0Z " /></g></g></svg>