<svg xmlns="http://www.w3.org/2000/svg" xmlns:xlink="http://www.w3.org/1999/xlink" width="100" height="100" viewBox="0 0 100 100" fill="none"><defs><linearGradient id="linear_0" x1="16.944%" y1="100%" x2="75.996%" y2="8.346%" gradientUnits="objectBoundingBox"><stop offset="0" stop-color="#FADFCA" stop-opacity="1" /><stop offset="1" stop-color="#FAE5CA" stop-opacity="1" /></linearGradient></defs><g opacity="1" transform="translate(0 0)  rotate(0 50 50)"><path id="矩形 12" style="fill:#F5F6FF" transform="translate(0 0)  rotate(0 50 50)" opacity="0" d="M0,100L100,100L100,0L0,0L0,100Z " /><path id="圆形 1" style="fill:#F5F6FF" transform="translate(0 0)  rotate(0 50 50)" opacity="1" d="M50,0C22.39,0 0,22.39 0,50C0,77.61 22.39,100 50,100C77.61,100 100,77.61 100,50C100,22.39 77.61,0 50,0Z " /><path id="矩形 1" style="fill:#242C6B" transform="translate(24 18.5)  rotate(0 26 31.5)" opacity="1" d="M3.6739403974420604e-16,57C0,58.591298939037266 0.6321410421925062,60.117422416431076 1.7573593128807143,61.242640687119284C2.8825775835689216,62.36785895780749 4.408701060962734,63 5.999999999999999,63L46,63C49.31370849898476,63 52,60.31370849898476 52,57L52,6.000000000000001C52,4.408701060962735 51.36785895780749,2.8825775835689207 50.242640687119284,1.7573593128807135C49.117422416431076,0.6321410421925053 47.59129893903726,-8.881784197001252e-16 46,-8.881784197001252e-16L6.000000000000001,0C4.408701060962738,0 2.8825775835689234,0.6321410421925062 1.7573593128807152,1.7573593128807143C0.6321410421925071,2.882577583568923 0,4.408701060962735 0,5.999999999999999Z " /><path id="矩形 2" style="fill:#F5F6FF" transform="translate(19 35)  rotate(0 13 5.5)" opacity="1" d="M3.3677786976552215e-16,5.5C0,6.958690694117492 0.5794626220097969,8.357637215061821 1.6109127034739874,9.38908729652601C2.642362784938178,10.420537377990202 4.041309305882506,11 5.499999999999998,11L20.5,11C21.95869069411749,11 23.35763721506182,10.420537377990202 24.38908729652601,9.38908729652601C25.4205373779902,8.357637215061821 26,6.958690694117491 26,5.5L26,5.5C26,4.041309305882506 25.4205373779902,2.642362784938177 24.38908729652601,1.6109127034739865C23.357637215061818,0.579462622009796 21.95869069411749,-8.881784197001252e-16 20.499999999999996,-8.881784197001252e-16L5.5,0C4.041309305882508,0 2.6423627849381788,0.5794626220097969 1.6109127034739879,1.6109127034739883C0.5794626220097969,2.6423627849381788 -8.881784197001252e-16,4.041309305882507 -8.881784197001252e-16,5.499999999999998Z " /><path id="矩形 20" style="fill:#242C6B" transform="translate(24 39)  rotate(0 5 2)" opacity="1" d="M1.2246467991473532e-16,2C-7.904066956498923e-9,2.530432949876766 0.21071366524643098,3.0391407788145814 0.5857864165534805,3.4142135412996706C0.96085916786053,3.7892863037847597 1.4695669905185893,3.9999999920959324 1.999999970197677,4L8,3.9999999999999996C9.104569499661586,4 10,3.104569499661587 10,2.0000000000000004L10,2C10,1.4695670203209117 9.789286319269165,0.9608591945229736 9.414213562373094,0.5857864376269044C9.039140805477025,0.21071368073083518 8.530432979679087,-2.220446049250313e-16 7.999999999999999,-2.220446049250313e-16L2,0C1.4695670203209117,-2.220446049250313e-16 0.9608591945229739,0.21071368073083518 0.5857864376269044,0.5857864376269046C0.21071368073083496,0.9608591945229741 -6.661338147750939e-16,1.4695670203209121 -6.661338147750939e-16,2Z " /><path id="路径 2" fill="url(#linear_0)" transform="translate(57.71477168726318 48.285228312736876)  rotate(90 8.035418077428622 9.750189764691786)" opacity="1" d="M3.49,10.33L5.92,7.87L5.92,17.45C5.92,18.58 6.9,19.5 8.04,19.5C9.17,19.5 10.15,18.58 10.15,17.45L10.15,7.87L12.58,10.33C12.96,10.72 13.48,10.94 14.02,10.94C14.57,10.94 15.09,10.72 15.47,10.33C16.27,9.53 16.27,8.23 15.47,7.43L8.04,0L0.6,7.43C0.02,8.01 -0.16,8.9 0.15,9.66C0.47,10.43 1.22,10.93 2.05,10.94C2.58,10.94 3.09,10.74 3.49,10.33Z " /><path  id="路径 2" style="stroke:#FFF2E0; stroke-width:1; stroke-opacity:1; stroke-dasharray:0 0" transform="translate(57.71477168726318 48.285228312736876)  rotate(90 8.035418077428622 9.750189764691786)" d="M3.49,10.33L5.92,7.87L5.92,17.45C5.92,18.58 6.9,19.5 8.04,19.5C9.17,19.5 10.15,18.58 10.15,17.45L10.15,7.87L12.58,10.33C12.96,10.72 13.48,10.94 14.02,10.94C14.57,10.94 15.09,10.72 15.47,10.33C16.27,9.53 16.27,8.23 15.47,7.43L8.04,0L0.6,7.43C0.02,8.01 -0.16,8.9 0.15,9.66C0.47,10.43 1.22,10.93 2.05,10.94C2.58,10.94 3.09,10.74 3.49,10.33Z " /></g></svg>