<svg xmlns="http://www.w3.org/2000/svg" xmlns:xlink="http://www.w3.org/1999/xlink" width="334" height="200" viewBox="0 0 334 200" fill="none"><defs><path id="path_0"
        transform="translate(0 0) rotate(0 167 100)"
        d="M1.2246467991473535e-15,180C0,185.30432979679088 2.1071368073083576,190.39140805477027 5.857864376269051,194.14213562373095C9.608591945229746,197.89286319269164 14.69567020320912,200 20,200L314,200C325.04569499661585,200 334,191.04569499661588 334,180L334,20.000000000000004C334,14.695670203209115 331.89286319269166,9.608591945229735 328.14213562373095,5.857864376269042C324.39140805477024,2.1071368073083505 319.30432979679085,-3.552713678800501e-15 314,-3.552713678800501e-15L20.000000000000004,0C14.69567020320912,0 9.608591945229742,2.107136807308354 5.857864376269047,5.857864376269049C2.107136807308354,9.608591945229744 -3.552713678800501e-15,14.695670203209126 -3.552713678800501e-15,20.000000000000007Z" /><linearGradient id="linear_0" x1="36.071%" y1="76.93299999999999%" x2="77.63600000000001%" y2="0%" gradientUnits="objectBoundingBox"><stop offset="0" stop-color="#EBD1D1" stop-opacity="1" /><stop offset="1" stop-color="#E8C3C3" stop-opacity="1" /></linearGradient><linearGradient id="linear_1" x1="30.243%" y1="39.137%" x2="50%" y2="84.961%" gradientUnits="objectBoundingBox"><stop offset="0" stop-color="#EBD1D1" stop-opacity="1" /><stop offset="1" stop-color="#E8C3C3" stop-opacity="1" /></linearGradient><linearGradient id="linear_2" x1="50%" y1="12.573%" x2="69.244%" y2="100%" gradientUnits="objectBoundingBox"><stop offset="0" stop-color="#FFFFFF" stop-opacity="1" /><stop offset="1" stop-color="#EBD1D1" stop-opacity="1" /></linearGradient></defs><g opacity="1" transform="translate(0 0)  rotate(0 167 100)"><mask id="mask-0" fill="white"><use xlink:href="#path_0"></use></mask><g mask="url(#mask-0)"><path id="矩形 16" style="fill:#EBD1D1" transform="translate(0 0)  rotate(0 167 100)" opacity="1" d="M1.2246467991473535e-15,180C0,185.30432979679088 2.1071368073083576,190.39140805477027 5.857864376269051,194.14213562373095C9.608591945229746,197.89286319269164 14.69567020320912,200 20,200L314,200C325.04569499661585,200 334,191.04569499661588 334,180L334,20.000000000000004C334,14.695670203209115 331.89286319269166,9.608591945229735 328.14213562373095,5.857864376269042C324.39140805477024,2.1071368073083505 319.30432979679085,-3.552713678800501e-15 314,-3.552713678800501e-15L20.000000000000004,0C14.69567020320912,0 9.608591945229742,2.107136807308354 5.857864376269047,5.857864376269049C2.107136807308354,9.608591945229744 -3.552713678800501e-15,14.695670203209126 -3.552713678800501e-15,20.000000000000007Z " /></g><g mask="url(#mask-0)"><path id="圆形 1" fill="url(#linear_0)" transform="translate(-24 157)  rotate(0 84 40.5)" opacity="1" d="M84,0C37.61,0 0,18.13 0,40.5C0,62.87 37.61,81 84,81C130.39,81 168,62.87 168,40.5C168,18.13 130.39,0 84,0Z " /></g><g mask="url(#mask-0)"><path id="路径 1" fill="url(#linear_1)" transform="translate(-30.5 -58.5)  rotate(0 225.70541957135399 84.29589591886906)" opacity="1" d="M203.5,146.5C348.54,106.17 301.32,108.84 403,108C530.1,106.95 375.76,32.01 296,0L13,48L0,160.5C17.54,168.4 87.47,178.76 203.5,146.5Z " /></g><g mask="url(#mask-0)"><path id="分组 3" fill="url(#linear_2)" transform="translate(205 75)  rotate(0 78.5 70.5)" opacity="1" d="M111.36 141L125.17 113.54L157 118.04L128.48 68.53C134.67 46.01 125.81 22.04 106.51 9.08C87.21 -3.88 61.83 -2.89 43.58 11.53C25.33 25.95 18.33 50.54 26.22 72.51L0 118.04L33.36 111.56L45.63 141L64.39 106.7C73.56 108.87 83.14 108.58 92.16 105.87L111.36 141Z M63.1947 72.8035L76.7247 65.6335L90.2547 72.8035L87.6747 57.6335L98.6147 46.8835L83.4947 44.6635L76.7247 30.8635L69.9547 44.6635L54.8347 46.8835L65.7747 57.6235L63.1947 72.8035Z " /></g></g></svg>