<svg xmlns="http://www.w3.org/2000/svg" xmlns:xlink="http://www.w3.org/1999/xlink" width="334" height="200" viewBox="0 0 334 200" fill="none"><defs><path id="path_0"
        transform="translate(0 0) rotate(0 167 100)"
        d="M1.2246467991473535e-15,180C0,185.30432979679088 2.1071368073083576,190.39140805477027 5.857864376269051,194.14213562373095C9.608591945229746,197.89286319269164 14.69567020320912,200 20,200L314,200C325.04569499661585,200 334,191.04569499661588 334,180L334,20.000000000000004C334,14.695670203209115 331.89286319269166,9.608591945229735 328.14213562373095,5.857864376269042C324.39140805477024,2.1071368073083505 319.30432979679085,-3.552713678800501e-15 314,-3.552713678800501e-15L20.000000000000004,0C14.69567020320912,0 9.608591945229742,2.107136807308354 5.857864376269047,5.857864376269049C2.107136807308354,9.608591945229744 -3.552713678800501e-15,14.695670203209126 -3.552713678800501e-15,20.000000000000007Z" /><linearGradient id="linear_0" x1="36.071%" y1="76.93299999999999%" x2="77.63600000000001%" y2="0%" gradientUnits="objectBoundingBox"><stop offset="0" stop-color="#DECCE6" stop-opacity="1" /><stop offset="1" stop-color="#D4BDDE" stop-opacity="1" /></linearGradient><linearGradient id="linear_1" x1="30.243%" y1="39.137%" x2="50%" y2="84.961%" gradientUnits="objectBoundingBox"><stop offset="0" stop-color="#DECCE6" stop-opacity="1" /><stop offset="1" stop-color="#D1BADB" stop-opacity="1" /></linearGradient><rect id="path_1" x="0" y="0" width="134" height="117" /><linearGradient id="linear_2" x1="0%" y1="50%" x2="100%" y2="50%" gradientUnits="objectBoundingBox"><stop offset="0" stop-color="#FFFFFF" stop-opacity="1" /><stop offset="1" stop-color="#DECCE6" stop-opacity="1" /></linearGradient><linearGradient id="linear_3" x1="0%" y1="50%" x2="100%" y2="50%" gradientUnits="objectBoundingBox"><stop offset="0" stop-color="#FFFFFF" stop-opacity="1" /><stop offset="1" stop-color="#DECCE6" stop-opacity="1" /></linearGradient><linearGradient id="linear_4" x1="0%" y1="50%" x2="100%" y2="50%" gradientUnits="objectBoundingBox"><stop offset="0" stop-color="#FFFFFF" stop-opacity="1" /><stop offset="1" stop-color="#DECCE6" stop-opacity="1" /></linearGradient></defs><g opacity="1" transform="translate(0 0)  rotate(0 167 100)"><mask id="mask-0" fill="white"><use xlink:href="#path_0"></use></mask><g mask="url(#mask-0)"><path id="矩形 16" style="fill:#DECCE6" transform="translate(0 0)  rotate(0 167 100)" opacity="1" d="M1.2246467991473535e-15,180C0,185.30432979679088 2.1071368073083576,190.39140805477027 5.857864376269051,194.14213562373095C9.608591945229746,197.89286319269164 14.69567020320912,200 20,200L314,200C325.04569499661585,200 334,191.04569499661588 334,180L334,20.000000000000004C334,14.695670203209115 331.89286319269166,9.608591945229735 328.14213562373095,5.857864376269042C324.39140805477024,2.1071368073083505 319.30432979679085,-3.552713678800501e-15 314,-3.552713678800501e-15L20.000000000000004,0C14.69567020320912,0 9.608591945229742,2.107136807308354 5.857864376269047,5.857864376269049C2.107136807308354,9.608591945229744 -3.552713678800501e-15,14.695670203209126 -3.552713678800501e-15,20.000000000000007Z " /></g><g mask="url(#mask-0)"><path id="圆形 1" fill="url(#linear_0)" transform="translate(-24 157)  rotate(0 84 40.5)" opacity="1" d="M84,0C37.61,0 0,18.13 0,40.5C0,62.87 37.61,81 84,81C130.39,81 168,62.87 168,40.5C168,18.13 130.39,0 84,0Z " /></g><g mask="url(#mask-0)"><path id="路径 1" fill="url(#linear_1)" transform="translate(-30.5 -58.5)  rotate(0 225.70541957135399 84.29589591886906)" opacity="1" d="M203.5,146.5C348.54,106.17 301.32,108.84 403,108C530.1,106.95 375.76,32.01 296,0L13,48L0,160.5C17.54,168.4 87.47,178.76 203.5,146.5Z " /></g><g mask="url(#mask-0)"><g opacity="1" transform="translate(212 83)  rotate(0 67 58.5)"><mask id="bg-mask" fill="white"><use xlink:href="#path_1"></use></mask><g mask="url(#bg-mask)" ><path id="路径 1" fill="url(#linear_2)" transform="translate(32.51719277627565 0.07622183974087449)  rotate(0 50.63973255730608 38.44995298990399)" opacity="1" d="M77.69,76.9L92.92,76.9C97.54,76.9 101.28,73.17 101.28,68.56L101.28,26.85C101.28,22.25 97.54,18.51 92.92,18.51L85.18,18.51L85.18,18.52L85.18,18.52C76.18,15.22 67.56,10.98 59.46,5.86C49.67,-0.32 40.95,-1.61 33.31,1.98C32.81,2.18 32.32,2.43 31.84,2.72C13.65,13.81 3.35,21.18 0.93,24.85C-1.57,28.63 0.98,31.29 8.58,32.81C10.32,33.15 12.12,32.94 13.73,32.2L38.63,20.73L42.7,26.48L77.69,76.9Z " /><path id="路径 2" fill="url(#linear_3)" transform="translate(0 18.590977443609027)  rotate(0 53.78331928853931 49.08769690655605)" opacity="1" d="M49.86,20.08C42.46,22.77 34.19,21.4 28.06,16.46C25.59,14.47 24.12,11.51 24.03,8.35C23.95,5.19 25.25,2.15 27.61,0.03L27.64,0L8.36,0C3.74,0 0,3.73 0,8.34L0,50.05C0,53.63 2.3,56.82 5.71,57.96L17.39,46.17C19.75,43.79 22.96,42.45 26.31,42.45C29.67,42.45 32.88,43.79 35.23,46.17L61.99,73.18C68.43,79.67 68.43,90.13 61.99,96.63L60.63,98.01C62.38,98.37 64.26,98.15 65.98,97.31L102.92,79.08C105.09,78 106.69,76.04 107.3,73.69C107.91,71.35 107.46,68.85 106.08,66.86L82.96,33.53C82.64,33.07 82.27,32.64 81.87,32.25L68.68,13.24L49.86,20.08Z M5.71,57.96L5.71,57.96L5.71,57.96C5.71,57.96 5.71,57.96 5.71,57.96Z " /><path id="路径 3" fill="url(#linear_4)" transform="translate(12.623538805559352 70.47368421052633)  rotate(0 22.724263034555975 21.868450189614872)" opacity="1" d="M19.3,2.49L19.3,2.48C17.73,0.89 15.59,0 13.35,0C11.12,0 8.97,0.89 7.4,2.48L2.42,7.52C0.71,9.24 -0.16,11.62 0.03,14.03C0.22,16.45 1.45,18.66 3.41,20.1L33.92,42.49C35.64,43.75 37.87,44.08 39.88,43.37C41.89,42.66 43.42,41.01 43.97,38.95L45.17,34.44C45.93,31.58 45.12,28.54 43.04,26.43L19.3,2.49Z " /></g></g></g></g></svg>