<svg xmlns="http://www.w3.org/2000/svg" xmlns:xlink="http://www.w3.org/1999/xlink" width="100" height="100" viewBox="0 0 100 100" fill="none"><defs><rect id="path_0" x="0" y="0" width="61.386138613861384" height="70" /><linearGradient id="linear_0" x1="16.944%" y1="100%" x2="75.996%" y2="8.346%" gradientUnits="objectBoundingBox"><stop offset="0" stop-color="#FADFCA" stop-opacity="1" /><stop offset="1" stop-color="#FAE5CA" stop-opacity="1" /></linearGradient></defs><g opacity="1" transform="translate(0 0)  rotate(0 50 50)"><path id="矩形 12" style="fill:#9DA3D1" transform="translate(0 0)  rotate(0 49.504950495049506 50)" opacity="0" d="M0,100L99.01,100L99.01,0L0,0L0,100Z " /><path id="圆形 1" style="fill:#F5F6FF" transform="translate(0.9900990099009901 0)  rotate(0 49.504950495049506 50)" opacity="1" d="M49.5,0C22.16,0 0,22.39 0,50C0,77.61 22.16,100 49.5,100C76.85,100 99.01,77.61 99.01,50C99.01,22.39 76.85,0 49.5,0Z " /><g opacity="1" transform="translate(19.801980198019802 15)  rotate(0 30.693069306930692 35)"><mask id="bg-mask" fill="white"><use xlink:href="#path_0"></use></mask><g mask="url(#bg-mask)" ><g opacity="1" transform="translate(0 0.0004387043206719454)  rotate(0 30.693595233409553 35.00030673420801)"><path id="路径 1" style="fill:#242C6B" transform="translate(11.167522852353766 0)  rotate(0 20.57704423314827 10.28792566730486)" opacity="1" d="M0,9.58C0,12.2 2.34,15.75 4.89,18.7C5.21,19.07 5.58,19.39 5.98,19.65C6.86,20.25 7.9,20.58 8.98,20.58L31.83,20.58C33.36,20.58 34.86,19.94 35.85,18.77C38.21,16.01 40.45,12.61 40.95,9.58C41.96,3.51 39.31,0.42 31.64,0.42C31.64,0.42 31.64,0.42 31.63,0.42C31.63,0.42 31.63,0.42 31.62,0.42C23.94,0.42 26.54,5.37 23.56,5.79C23.28,5.82 23.04,5.81 22.83,5.75C22.8,5.75 22.77,5.74 22.74,5.73C22.72,5.72 22.7,5.71 22.68,5.71C21.29,5.19 20.89,2.76 17.94,0.42C17.55,0.11 17.15,-0.01 16.74,0C14.53,0.04 12.09,4.05 9.29,4.08C9.17,4.08 9.06,4.08 8.94,4.08C8.13,4.08 7.28,4.04 6.42,4.05C3.19,4.05 0,4.59 0,9.58Z " /><g opacity="1" transform="translate(0 24.231099421910017)  rotate(0 30.693595233409557 22.884757023253034)"><path id="路径 2" style="fill:#242C6B" transform="translate(0 0)  rotate(0 30.693595233409553 22.884757023253016)" opacity="1" d="M43.81,0L19.42,0C17.65,0 15.96,0.69 14.73,1.95C7.07,9.84 0,21.13 0,29.36C0,36.62 7.41,45.77 16.54,45.77L44.84,45.77C53.98,45.77 61.39,36.69 61.39,29.36C61.39,21 55.72,10.02 48.63,2.12C47.43,0.76 45.65,0 43.81,0Z " /><path id="路径 3" fill="url(#linear_0)" transform="translate(19.45608723839175 10.27236242841468)  rotate(0 12.778454117623731 12.679733649987224)" opacity="1" d="M25.5,14.02L25.49,14.02C25.54,13.58 25.56,13.14 25.56,12.69C25.56,5.67 19.84,0 12.77,0C8.47,0 4.66,2.11 2.34,5.34C0.87,7.41 0,9.94 0,12.67C-0.02,19.67 5.72,25.36 12.79,25.36C19.4,25.36 24.83,20.4 25.5,14.02Z " /></g></g><path id="路径 4" style="fill:#242C6B" transform="translate(25.779864141314743 40.95264824248757)  rotate(0 6.7818220953678034 6.7224726440765945)" opacity="1" d="M5.53,0.52L0.52,5.48C-0.17,6.17 -0.17,7.27 0.52,7.96L3.81,11.24L3.83,11.24L5.53,12.93C6.22,13.62 7.34,13.62 8.03,12.93L13.05,7.96C13.74,7.27 13.74,6.17 13.05,5.48L8.03,0.52C7.69,0.17 7.23,0 6.78,0C6.32,0 5.87,0.17 5.53,0.52Z " /><path  id="路径 4" style="stroke:#FFF2E0; stroke-width:1; stroke-opacity:1; stroke-dasharray:0 0" transform="translate(25.779864141314743 40.95264824248757)  rotate(0 6.7818220953678034 6.7224726440765945)" d="M5.53,0.52L0.52,5.48C-0.17,6.17 -0.17,7.27 0.52,7.96L3.81,11.24L3.83,11.24L5.53,12.93C6.22,13.62 7.34,13.62 8.03,12.93L13.05,7.96C13.74,7.27 13.74,6.17 13.05,5.48L8.03,0.52C7.69,0.17 7.23,0 6.78,0C6.32,0 5.87,0.17 5.53,0.52Z " /></g></g></g></svg>