<svg xmlns="http://www.w3.org/2000/svg" xmlns:xlink="http://www.w3.org/1999/xlink" width="100" height="100" viewBox="0 0 100 100" fill="none"><defs><linearGradient id="linear_0" x1="16.944%" y1="100%" x2="75.996%" y2="8.346%" gradientUnits="objectBoundingBox"><stop offset="0" stop-color="#FADFCA" stop-opacity="1" /><stop offset="1" stop-color="#FAE5CA" stop-opacity="1" /></linearGradient></defs><g opacity="1" transform="translate(0 0)  rotate(0 50 50)"><path id="圆形 1" style="fill:#F5F6FF" transform="translate(0 0)  rotate(0 50 50)" opacity="1" d="M50,0C22.39,0 0,22.39 0,50C0,77.61 22.39,100 50,100C77.61,100 100,77.61 100,50C100,22.39 77.61,0 50,0Z " /><path id="矩形 1" style="fill:#242C6B" transform="translate(18.5 27)  rotate(0 31.5 23)" opacity="1" d="M3.6739403974420604e-16,40C0,41.591298939037266 0.6321410421925062,43.117422416431076 1.7573593128807143,44.242640687119284C2.8825775835689216,45.36785895780749 4.408701060962734,46 5.999999999999999,46L57,46C60.31370849898476,46 63,43.31370849898476 63,40L63,6.000000000000001C63,4.408701060962735 62.36785895780749,2.8825775835689207 61.242640687119284,1.7573593128807135C60.117422416431076,0.6321410421925053 58.59129893903726,-8.881784197001252e-16 57,-8.881784197001252e-16L6.000000000000001,0C4.408701060962738,0 2.8825775835689234,0.6321410421925062 1.7573593128807152,1.7573593128807143C0.6321410421925071,2.882577583568923 0,4.408701060962735 0,5.999999999999999Z " /><path  id="路径 2" style="stroke:#FFFFFF; stroke-width:4; stroke-opacity:1; stroke-dasharray:0 0" transform="translate(27.5 42)  rotate(0 6.75 0.5)" d="M0,0L13.5,0 " /><path  id="路径 2" style="stroke:#FFFFFF; stroke-width:4; stroke-opacity:1; stroke-dasharray:0 0" transform="translate(28 55)  rotate(0 6.75 0.5)" d="M0,0L13.5,0 " /><path id="路径 1" fill="url(#linear_0)" transform="translate(53 46)  rotate(0 12 10.5)" opacity="1" d="M1.12,3.1C0.39,4.27 0,5.7 0,7.24C0,9.24 0.63,11.2 1.88,13.09C2.85,14.56 4.2,15.98 5.88,17.32C8.68,19.54 11.46,20.76 11.63,20.84L11.63,20.84L12,21L12.38,20.84C12.5,20.79 15.29,19.56 18.12,17.32C19.81,15.98 21.15,14.56 22.13,13.08C23.37,11.2 24,9.23 24,7.24C24,5.71 23.61,4.27 22.88,3.1C22.17,1.96 21.15,1.08 19.92,0.56C18.64,0 17.2,-0.14 15.74,0.14C14.45,0.39 13.17,0.97 12,1.84C10.83,0.97 9.55,0.39 8.26,0.14C6.8,-0.14 5.36,0 4.08,0.56C2.86,1.08 1.83,1.96 1.12,3.1Z " /><path  id="路径 1" style="stroke:#FFF2E0; stroke-width:1; stroke-opacity:1; stroke-dasharray:0 0" transform="translate(53 46)  rotate(0 12 10.5)" d="M1.12,3.1C0.39,4.27 0,5.7 0,7.24C0,9.24 0.63,11.2 1.88,13.09C2.85,14.56 4.2,15.98 5.88,17.32C8.68,19.54 11.46,20.76 11.63,20.84L11.63,20.84L12,21L12.38,20.84C12.5,20.79 15.29,19.56 18.12,17.32C19.81,15.98 21.15,14.56 22.13,13.08C23.37,11.2 24,9.23 24,7.24C24,5.71 23.61,4.27 22.88,3.1C22.17,1.96 21.15,1.08 19.92,0.56C18.64,0 17.2,-0.14 15.74,0.14C14.45,0.39 13.17,0.97 12,1.84C10.83,0.97 9.55,0.39 8.26,0.14C6.8,-0.14 5.36,0 4.08,0.56C2.86,1.08 1.83,1.96 1.12,3.1Z " /></g></svg>