<svg xmlns="http://www.w3.org/2000/svg" xmlns:xlink="http://www.w3.org/1999/xlink" width="334" height="200" viewBox="0 0 334 200" fill="none"><defs><path id="path_0"
        transform="translate(0 0) rotate(0 167 100)"
        d="M1.2246467991473535e-15,180C0,185.30432979679088 2.1071368073083576,190.39140805477027 5.857864376269051,194.14213562373095C9.608591945229746,197.89286319269164 14.69567020320912,200 20,200L314,200C325.04569499661585,200 334,191.04569499661588 334,180L334,20.000000000000004C334,14.695670203209115 331.89286319269166,9.608591945229735 328.14213562373095,5.857864376269042C324.39140805477024,2.1071368073083505 319.30432979679085,-3.552713678800501e-15 314,-3.552713678800501e-15L20.000000000000004,0C14.69567020320912,0 9.608591945229742,2.107136807308354 5.857864376269047,5.857864376269049C2.107136807308354,9.608591945229744 -3.552713678800501e-15,14.695670203209126 -3.552713678800501e-15,20.000000000000007Z" /><linearGradient id="linear_0" x1="36.071%" y1="76.93299999999999%" x2="77.63600000000001%" y2="0%" gradientUnits="objectBoundingBox"><stop offset="0" stop-color="#D1E0EB" stop-opacity="1" /><stop offset="1" stop-color="#C3D6E3" stop-opacity="1" /></linearGradient><linearGradient id="linear_1" x1="30.243%" y1="39.137%" x2="50%" y2="84.961%" gradientUnits="objectBoundingBox"><stop offset="0" stop-color="#D1E0EB" stop-opacity="1" /><stop offset="1" stop-color="#C3D6E3" stop-opacity="1" /></linearGradient><linearGradient id="linear_2" x1="8.735%" y1="9.788%" x2="80.2%" y2="91.648%" gradientUnits="objectBoundingBox"><stop offset="0" stop-color="#FFFFFF" stop-opacity="1" /><stop offset="1" stop-color="#D1E0EB" stop-opacity="1" /></linearGradient></defs><g opacity="1" transform="translate(0 0)  rotate(0 167 100)"><mask id="mask-0" fill="white"><use xlink:href="#path_0"></use></mask><g mask="url(#mask-0)"><path id="矩形 16" style="fill:#D1E0EB" transform="translate(0 0)  rotate(0 167 100)" opacity="1" d="M1.2246467991473535e-15,180C0,185.30432979679088 2.1071368073083576,190.39140805477027 5.857864376269051,194.14213562373095C9.608591945229746,197.89286319269164 14.69567020320912,200 20,200L314,200C325.04569499661585,200 334,191.04569499661588 334,180L334,20.000000000000004C334,14.695670203209115 331.89286319269166,9.608591945229735 328.14213562373095,5.857864376269042C324.39140805477024,2.1071368073083505 319.30432979679085,-3.552713678800501e-15 314,-3.552713678800501e-15L20.000000000000004,0C14.69567020320912,0 9.608591945229742,2.107136807308354 5.857864376269047,5.857864376269049C2.107136807308354,9.608591945229744 -3.552713678800501e-15,14.695670203209126 -3.552713678800501e-15,20.000000000000007Z " /></g><g mask="url(#mask-0)"><path id="圆形 1" fill="url(#linear_0)" transform="translate(-24 157)  rotate(0 84 40.5)" opacity="1" d="M84,0C37.61,0 0,18.13 0,40.5C0,62.87 37.61,81 84,81C130.39,81 168,62.87 168,40.5C168,18.13 130.39,0 84,0Z " /></g><g mask="url(#mask-0)"><path id="路径 1" fill="url(#linear_1)" transform="translate(-30.5 -58.5)  rotate(0 225.70541957135399 84.29589591886906)" opacity="1" d="M203.5,146.5C348.54,106.17 301.32,108.84 403,108C530.1,106.95 375.76,32.01 296,0L13,48L0,160.5C17.54,168.4 87.47,178.76 203.5,146.5Z " /></g><g mask="url(#mask-0)"><path id="减去顶层" fill="url(#linear_2)" transform="translate(237 82)  rotate(0 48.5 59)" opacity="1" d="M0 108C0 110.652 1.05357 113.196 2.92893 115.071C4.8043 116.946 7.34784 118 10 118L87 118C92.5229 118 97 113.523 97 108L97 16.3002C97 14.693 96.3552 13.1531 95.2102 12.0253L84.7516 1.72513C83.6292 0.619645 82.1169 0 80.5415 0L10 0C7.34784 0 4.8043 1.05357 2.92893 2.92893C1.05357 4.8043 0 7.34784 0 10L0 108Z M19.2574 41.2426C18.1321 40.1174 17.5 38.5913 17.5 37C17.5 35.4087 18.1321 33.8826 19.2574 32.7574C20.3826 31.6321 21.9087 31 23.5 31L73.5 31C75.0913 31 76.6174 31.6321 77.7426 32.7574C78.8679 33.8826 79.5 35.4087 79.5 37C79.5 38.5913 78.8679 40.1174 77.7426 41.2426C76.6174 42.3679 75.0913 43 73.5 43L23.5 43C21.9087 43 20.3826 42.3679 19.2574 41.2426Z M19.7574 73.2426C18.6321 72.1174 18 70.5913 18 69C18 67.4087 18.6321 65.8826 19.7574 64.7574C20.8826 63.6321 22.4087 63 24 63L74 63C75.5913 63 77.1174 63.6321 78.2426 64.7574C79.3679 65.8826 80 67.4087 80 69C80 70.5913 79.3679 72.1174 78.2426 73.2426C77.1174 74.3679 75.5913 75 74 75L24 75C22.4087 75 20.8826 74.3679 19.7574 73.2426Z " /></g></g></svg>