<svg xmlns="http://www.w3.org/2000/svg" xmlns:xlink="http://www.w3.org/1999/xlink" width="100" height="100" viewBox="0 0 100 100" fill="none"><defs><rect id="path_0" x="0" y="0" width="66" height="49.49846190723504" /><linearGradient id="linear_0" x1="16.944%" y1="100%" x2="75.996%" y2="8.346%" gradientUnits="objectBoundingBox"><stop offset="0" stop-color="#FADFCA" stop-opacity="1" /><stop offset="1" stop-color="#FAE5CA" stop-opacity="1" /></linearGradient></defs><g opacity="1" transform="translate(0 0)  rotate(0 50 50)"><path id="矩形 12" style="fill:#9DA3D1" transform="translate(0 0)  rotate(0 50 50)" opacity="0" d="M0,100L100,100L100,0L0,0L0,100Z " /><path id="圆形 1" style="fill:#F5F6FF" transform="translate(0 0)  rotate(0 50 50)" opacity="1" d="M50,0C22.39,0 0,22.39 0,50C0,77.61 22.39,100 50,100C77.61,100 100,77.61 100,50C100,22.39 77.61,0 50,0Z " /><g opacity="1" transform="translate(17 25.250769046382516)  rotate(0 33 24.74923095361752)"><mask id="bg-mask" fill="white"><use xlink:href="#path_0"></use></mask><g mask="url(#bg-mask)" ><path id="路径 1" style="fill:#242C6B" transform="translate(0 0)  rotate(0 33 24.74923095361752)" opacity="1" d="M0,43.99C0,47.02 2.52,49.5 5.6,49.5L60.4,49.5C63.48,49.5 66,47.02 66,43.99L66,5.5C66,2.48 63.47,0 60.4,0L5.6,0C2.52,0 0,2.48 0,5.51L0,13.17L65.98,13.17L65.98,17.99L0,17.99L0,17.98L0,43.99Z " /><path id="路径 2" fill="url(#linear_0)" transform="translate(4.500715121559999 25.515640605648986)  rotate(0 8.035418077428622 9.750189764691786)" opacity="1" d="M3.49,10.33L5.92,7.87L5.92,17.45C5.92,18.58 6.9,19.5 8.04,19.5C9.17,19.5 10.15,18.58 10.15,17.45L10.15,7.87L12.58,10.33C12.96,10.72 13.48,10.94 14.02,10.94C14.57,10.94 15.09,10.72 15.47,10.33C16.27,9.53 16.27,8.23 15.47,7.43L8.04,0L0.6,7.43C0.02,8.01 -0.16,8.9 0.15,9.66C0.47,10.43 1.22,10.93 2.05,10.94C2.58,10.94 3.09,10.74 3.49,10.33Z " /><path  id="路径 2" style="stroke:#FFF2E0; stroke-width:1; stroke-opacity:1; stroke-dasharray:0 0" transform="translate(4.500715121559999 25.515640605648986)  rotate(0 8.035418077428622 9.750189764691786)" d="M3.49,10.33L5.92,7.87L5.92,17.45C5.92,18.58 6.9,19.5 8.04,19.5C9.17,19.5 10.15,18.58 10.15,17.45L10.15,7.87L12.58,10.33C12.96,10.72 13.48,10.94 14.02,10.94C14.57,10.94 15.09,10.72 15.47,10.33C16.27,9.53 16.27,8.23 15.47,7.43L8.04,0L0.6,7.43C0.02,8.01 -0.16,8.9 0.15,9.66C0.47,10.43 1.22,10.93 2.05,10.94C2.58,10.94 3.09,10.74 3.49,10.33Z " /></g></g></g></svg>