<svg xmlns="http://www.w3.org/2000/svg" xmlns:xlink="http://www.w3.org/1999/xlink" width="66" height="66" viewBox="0 0 66 66" fill="none"><defs><linearGradient id="linear_0" x1="0%" y1="100%" x2="84.857%" y2="15.143%" gradientUnits="objectBoundingBox"><stop offset="0" stop-color="#F8D9C1" stop-opacity="0.04" /><stop offset="1" stop-color="#F8D9C1" stop-opacity="1" /></linearGradient></defs><g opacity="1" transform="translate(0 0)  rotate(0 33 33)"><path id="矩形 1" style="fill:#C4C4C4" transform="translate(0 0)  rotate(0 33 33)" opacity="0" d="M0,66L66,66L66,0L0,0L0,66Z " /><g opacity="1" transform="translate(8.499892745961006 7.5)  rotate(0 24.5001072540388 25.500000000000004)"><path id="矩形 1" fill="url(#linear_0)" transform="translate(25.33087335594928 24.18532266495174)  rotate(-45 9 9.145443436958583)" opacity="1" d="M2.449293598294707e-16,14.290886873917167C0,15.351752833275343 0.42142736146167126,16.369168484871217 1.1715728752538102,17.11931399866336C1.921718389045949,17.869459512455496 2.9391340406418243,18.290886873917167 4,18.290886873917167L14,18.290886873917167C16.209138999323173,18.290886873917167 18,16.50002587324034 18,14.290886873917167L18,4.000000000000001C18,2.939134040641823 17.57857263853833,1.9217183890459468 16.828427124746188,1.1715728752538084C16.07828161095405,0.4214273614616699 15.060865959358175,-8.881784197001252e-16 13.999999999999998,-8.881784197001252e-16L4.000000000000001,0C2.9391340406418247,-8.881784197001252e-16 1.9217183890459482,0.4214273614616708 1.1715728752538093,1.1715728752538097C0.42142736146167037,1.9217183890459486 -8.881784197001252e-16,2.939134040641825 -8.881784197001252e-16,4.000000000000001Z " /><path id="分组 1" style="fill:#242C6B" transform="translate(0 0)  rotate(0 24.5001072540388 25.500000000000004)" opacity="1" d="M49 49.18L49 40.07C49.01 39.33 48.57 38.65 47.89 38.38C46.72 37.9 43.33 36.51 39.84 35.15C43.36 31.3 45.37 26.23 45.37 20.98C45.39 9.41 36.01 0 24.49 0C12.97 0 3.6 9.41 3.6 20.97C3.6 21.89 3.66 22.81 3.77 23.7C3.91 24.69 4.83 25.38 5.81 25.27C6.8 25.14 7.51 24.23 7.37 23.23C7.28 22.48 7.23 21.73 7.23 20.97C7.23 11.41 14.97 3.64 24.49 3.64C34.01 3.64 41.75 11.41 41.75 20.97C41.75 25.8 39.81 30.28 36.3 33.59C36.25 33.62 36.24 33.68 36.2 33.73C33.76 32.82 31.69 32.11 30.87 31.99C29.46 31.77 28.1 32.42 27.29 33.64C26.61 34.64 26.44 35.85 26.83 36.84C27.07 37.45 27.99 38.71 29.08 40.1C26.45 40.1 22.42 39.75 18.13 38.09C16.35 37.4 14.19 35.09 12.27 33.04C9.55 30.14 6.98 27.4 4.18 27.4C3.14 27.4 2.14 27.79 1.32 28.53C0.28 29.45 -0.67 31.29 0.64 34.75C3.06 41.15 12.47 51 20.04 51L47.19 51C48.19 51 49 50.19 49 49.18Z M9.62404 35.5526C7.84404 33.6426 5.40404 31.0526 4.17404 31.0526C4.10404 31.0526 3.96404 31.0526 3.73404 31.2626C3.66404 31.3326 3.46404 31.9426 4.04404 33.4626C6.02404 38.6926 14.514 47.3626 20.054 47.3626L20.054 49.1826L20.114 47.3626L45.384 47.3626L45.354 41.3226C39.514 38.9326 31.594 35.8226 30.294 35.6226C30.294 35.6226 30.284 35.6526 30.274 35.6926C30.764 36.4526 32.564 38.7126 34.094 40.5426C34.524 41.0426 34.634 41.7226 34.414 42.3426C34.194 42.9526 33.654 43.4026 33.014 43.5126C32.954 43.5226 31.474 43.7726 29.114 43.7726C26.174 43.7726 21.654 43.3626 16.824 41.4926C14.274 40.5126 11.904 37.9926 9.62404 35.5526Z " /><g opacity="1" transform="translate(16.500107254038994 8.5)  rotate(0 8 12)"><text><tspan x="0" y="20" font-size="24" line-height="24" fill="#242C6B" opacity="1" font-family="HarmonyOSSansTC-Medium" letter-spacing="0" >R</tspan></text></g></g></g></svg>