<svg xmlns="http://www.w3.org/2000/svg" xmlns:xlink="http://www.w3.org/1999/xlink" width="66" height="66" viewBox="0 0 66 66" fill="none"><defs><linearGradient id="linear_0" x1="0%" y1="100%" x2="84.857%" y2="15.143%" gradientUnits="objectBoundingBox"><stop offset="0" stop-color="#F8D9C1" stop-opacity="0.04" /><stop offset="1" stop-color="#F8D9C1" stop-opacity="1" /></linearGradient></defs><g opacity="1" transform="translate(0 0)  rotate(0 33 33)"><path id="矩形 1" style="fill:#C4C4C4" transform="translate(0 0)  rotate(0 33 33)" opacity="0" d="M0,66L66,66L66,0L0,0L0,66Z " /><g opacity="1" transform="translate(11.169616949044666 11.666895230565387)  rotate(0 21.830383050955174 21.333104769434467)"><path id="矩形 1" fill="url(#linear_0)" transform="translate(21.83 20.69)  rotate(-45 9 9.145443436958583)" opacity="1" d="M2.449293598294707e-16,14.290886873917167C0,15.351752833275343 0.42142736146167126,16.369168484871217 1.1715728752538102,17.11931399866336C1.921718389045949,17.869459512455496 2.9391340406418243,18.290886873917167 4,18.290886873917167L14,18.290886873917167C16.209138999323173,18.290886873917167 18,16.50002587324034 18,14.290886873917167L18,4.000000000000001C18,2.939134040641823 17.57857263853833,1.9217183890459468 16.828427124746188,1.1715728752538084C16.07828161095405,0.4214273614616699 15.060865959358175,-8.881784197001252e-16 13.999999999999998,-8.881784197001252e-16L4.000000000000001,0C2.9391340406418247,-8.881784197001252e-16 1.9217183890459482,0.4214273614616708 1.1715728752538093,1.1715728752538097C0.42142736146167037,1.9217183890459486 -8.881784197001252e-16,2.939134040641825 -8.881784197001252e-16,4.000000000000001Z " /><path  id="矩形 2" style="stroke:#242C6B; stroke-width:3; stroke-opacity:1; stroke-dasharray:0 0" transform="translate(0 0)  rotate(0 21 21)" d="M3.6739403974420604e-16,36C0,37.591298939037266 0.6321410421925062,39.117422416431076 1.7573593128807143,40.242640687119284C2.8825775835689216,41.36785895780749 4.408701060962734,42 5.999999999999999,42L36,42C39.31370849898476,42 42,39.31370849898476 42,36L42,6.000000000000001C42,4.408701060962735 41.36785895780749,2.8825775835689207 40.242640687119284,1.7573593128807135C39.117422416431076,0.6321410421925053 37.59129893903726,-8.881784197001252e-16 36,-8.881784197001252e-16L6.000000000000001,0C4.408701060962738,0 2.8825775835689234,0.6321410421925062 1.7573593128807152,1.7573593128807143C0.6321410421925071,2.882577583568923 0,4.408701060962735 0,5.999999999999999Z " /><path  id="路径 1" style="stroke:#242C6B; stroke-width:3; stroke-opacity:1; stroke-dasharray:0 0" transform="translate(8 17)  rotate(0 0.5 9.25)" d="M0,0L0,18.5 " /><path  id="路径 1" style="stroke:#242C6B; stroke-width:3; stroke-opacity:1; stroke-dasharray:0 0" transform="translate(34 12)  rotate(0 0.5 12)" d="M0,0L0,24 " /><path  id="路径 1" style="stroke:#242C6B; stroke-width:3; stroke-opacity:1; stroke-dasharray:0 0" transform="translate(21 23)  rotate(0 0.5 6.5)" d="M0,0L0,13 " /></g></g></svg>