<svg xmlns="http://www.w3.org/2000/svg" xmlns:xlink="http://www.w3.org/1999/xlink" width="66" height="66" viewBox="0 0 66 66" fill="none"><defs><rect id="path_0" x="0" y="0" width="37" height="42.99999999999999" /><linearGradient id="linear_0" x1="0%" y1="100%" x2="84.857%" y2="15.143%" gradientUnits="objectBoundingBox"><stop offset="0" stop-color="#F8D9C1" stop-opacity="0.04" /><stop offset="1" stop-color="#F8D9C1" stop-opacity="1" /></linearGradient></defs><g opacity="1" transform="translate(0 0)  rotate(0 33 33)"><path id="矩形 11" style="fill:#C4C4C4" transform="translate(0 0)  rotate(0 33 33)" opacity="0" d="M0,66L66,66L66,0L0,0L0,66Z " /><g opacity="1" transform="translate(14.5 11.5)  rotate(0 18.5 21.499999999999996)"><mask id="bg-mask" fill="white"><use xlink:href="#path_0"></use></mask><g mask="url(#bg-mask)" ><path id="矩形 1" fill="url(#linear_0)" transform="translate(15.13430964188382 19.488866204925067)  rotate(-45 9 9.145443436958582)" opacity="1" d="M2.449293598294707e-16,14.290886873917163C0,15.35175283327534 0.42142736146167126,16.369168484871214 1.1715728752538102,17.119313998663355C1.921718389045949,17.869459512455492 2.9391340406418243,18.290886873917163 4,18.290886873917163L14,18.290886873917163C16.209138999323173,18.290886873917163 18,16.500025873240336 18,14.290886873917163L18,4.000000000000001C18,2.939134040641823 17.57857263853833,1.9217183890459468 16.828427124746188,1.1715728752538084C16.07828161095405,0.4214273614616699 15.060865959358175,-8.881784197001252e-16 13.999999999999998,-8.881784197001252e-16L4.000000000000001,0C2.9391340406418247,-8.881784197001252e-16 1.9217183890459482,0.4214273614616708 1.1715728752538093,1.1715728752538097C0.42142736146167037,1.9217183890459486 -8.881784197001252e-16,2.939134040641825 -8.881784197001252e-16,4.000000000000001Z " /><path  id="路径 1" style="stroke:#242C6B; stroke-width:3; stroke-opacity:1; stroke-dasharray:0 0" transform="translate(0 0)  rotate(0 18.5 21.499999999999996)" d="M24.39,43C31.36,43 37.01,38.09 37,32.05L37,4.28C37,1.92 34.8,0 32.07,0L4.93,0C2.21,0 0,1.91 0,4.28L0,38.72C0,41.08 2.2,43 4.93,43L24.39,43Z " /><path  id="路径 2" style="stroke:#242C6B; stroke-width:3; stroke-opacity:1; stroke-dasharray:0 0" transform="translate(8.185003081757996 10.852856254614954)  rotate(0 10.566435822613126 0.005139692381814283)" d="M0,0Z M21.13,0L0,0 " /><path  id="路径 3" style="stroke:#242C6B; stroke-width:3; stroke-opacity:1; stroke-dasharray:0 0" transform="translate(8.185003081757996 24.300492904503066)  rotate(0 7.753719986957458 0.005139692381814283)" d="M0,0Z M15.51,0L0,0 " /></g></g></g></svg>