<svg xmlns="http://www.w3.org/2000/svg" xmlns:xlink="http://www.w3.org/1999/xlink" width="66" height="66" viewBox="0 0 66 66" fill="none"><defs><rect id="path_0" x="0" y="0" width="41.82153220382054" height="48.36153220382069" /><linearGradient id="linear_0" x1="0%" y1="100%" x2="84.857%" y2="15.143%" gradientUnits="objectBoundingBox"><stop offset="0" stop-color="#F8D9C1" stop-opacity="0.04" /><stop offset="1" stop-color="#F8D9C1" stop-opacity="1" /></linearGradient></defs><g opacity="1" transform="translate(0 0)  rotate(0 33 33)"><path id="矩形 12" style="fill:#C4C4C4" transform="translate(0 0)  rotate(0 33 33)" opacity="0" d="M0,66L66,66L66,0L0,0L0,66Z " /><g opacity="1" transform="translate(12.089233898089788 8.819233898089692)  rotate(0 20.91076610191027 24.180766101910343)"><mask id="bg-mask" fill="white"><use xlink:href="#path_0"></use></mask><g mask="url(#bg-mask)" ><path id="矩形 1" fill="url(#linear_0)" transform="translate(19.990766101910193 26.385322664951758)  rotate(-45 9 9.145443436958583)" opacity="1" d="M2.449293598294707e-16,14.290886873917167C0,15.351752833275343 0.42142736146167126,16.369168484871217 1.1715728752538102,17.11931399866336C1.921718389045949,17.869459512455496 2.9391340406418243,18.290886873917167 4,18.290886873917167L14,18.290886873917167C16.209138999323173,18.290886873917167 18,16.50002587324034 18,14.290886873917167L18,4.000000000000001C18,2.939134040641823 17.57857263853833,1.9217183890459468 16.828427124746188,1.1715728752538084C16.07828161095405,0.4214273614616699 15.060865959358175,-8.881784197001252e-16 13.999999999999998,-8.881784197001252e-16L4.000000000000001,0C2.9391340406418247,-8.881784197001252e-16 1.9217183890459482,0.4214273614616708 1.1715728752538093,1.1715728752538097C0.42142736146167037,1.9217183890459486 -8.881784197001252e-16,2.939134040641825 -8.881784197001252e-16,4.000000000000001Z " /><path  id="路径 1" style="stroke:#242C6B; stroke-width:3; stroke-opacity:1; stroke-dasharray:0 0" transform="translate(0 4)  rotate(0 19.5 22)" d="M27.87,0L34.05,0C36.78,0 39,1.8 39,4.01L39,39.99C39,42.2 36.78,44 34.05,44L4.95,44C2.22,44 0,42.2 0,39.99L0,4.01C0,1.8 2.22,0 4.95,0L11.01,0 " /><path  id="路径 2" style="stroke:#242C6B; stroke-width:3; stroke-opacity:1; stroke-dasharray:0 0" transform="translate(11.57 0)  rotate(0 8.600000000000001 3.47)" d="M0,3.47Z M17.2,3.47Z M13.73,6.94C15.64,6.94 17.2,5.39 17.2,3.47C17.2,1.55 15.65,0 13.73,0L3.47,0C1.55,0 0,1.55 0,3.47C0,5.39 1.55,6.94 3.47,6.94L13.73,6.94Z " /><path  id="路径 3" style="stroke:#242C6B; stroke-width:3; stroke-opacity:1; stroke-dasharray:0 0" transform="translate(6.5 19.600000000000023)  rotate(0 13 0)" d="M0,0Z M26,0L0,0 " /><path  id="路径 4" style="stroke:#242C6B; stroke-width:3; stroke-opacity:1; stroke-dasharray:0 0" transform="translate(6.5 33.89999999999998)  rotate(0 13 0)" d="M0,0Z M26,0L0,0 " /></g></g></g></svg>