<svg xmlns="http://www.w3.org/2000/svg" xmlns:xlink="http://www.w3.org/1999/xlink" width="66" height="66" viewBox="0 0 66 66" fill="none"><defs><rect id="path_0" x="0" y="0" width="38.65076610191035" height="49.78000000000001" /><linearGradient id="linear_0" x1="0%" y1="100%" x2="84.857%" y2="15.143%" gradientUnits="objectBoundingBox"><stop offset="0" stop-color="#F8D9C1" stop-opacity="0.04" /><stop offset="1" stop-color="#F8D9C1" stop-opacity="1" /></linearGradient></defs><g opacity="1" transform="translate(0 0)  rotate(0 33 33)"><path id="矩形 1" style="fill:#C4C4C4" transform="translate(0 0)  rotate(0 33 33)" opacity="0" d="M0,66L66,66L66,0L0,0L0,66Z " /><g opacity="1" transform="translate(14.014999999999873 8.110000000000014)  rotate(0 19.325383050955175 24.890000000000004)"><mask id="bg-mask" fill="white"><use xlink:href="#path_0"></use></mask><g mask="url(#bg-mask)" ><path id="矩形 1" fill="url(#linear_0)" transform="translate(16.82 20.58)  rotate(-45 9 9.145443436958583)" opacity="1" d="M2.449293598294707e-16,14.290886873917167C0,15.351752833275343 0.42142736146167126,16.369168484871217 1.1715728752538102,17.11931399866336C1.921718389045949,17.869459512455496 2.9391340406418243,18.290886873917167 4,18.290886873917167L14,18.290886873917167C16.209138999323173,18.290886873917167 18,16.50002587324034 18,14.290886873917167L18,4.000000000000001C18,2.939134040641823 17.57857263853833,1.9217183890459468 16.828427124746188,1.1715728752538084C16.07828161095405,0.4214273614616699 15.060865959358175,-8.881784197001252e-16 13.999999999999998,-8.881784197001252e-16L4.000000000000001,0C2.9391340406418247,-8.881784197001252e-16 1.9217183890459482,0.4214273614616708 1.1715728752538093,1.1715728752538097C0.42142736146167037,1.9217183890459486 -8.881784197001252e-16,2.939134040641825 -8.881784197001252e-16,4.000000000000001Z " /><path  id="路径 1" style="stroke:#242C6B; stroke-width:3; stroke-opacity:1; stroke-dasharray:0 0" transform="translate(0 4.330000000000002)  rotate(0 18.985 18.815)" d="M35.97,15.38C35.97,6.89 29.08,0 20.59,0L17.38,0C8.89,0 2,6.89 2,15.38L2,24.4C2,28.88 1.33,33.34 0,37.63L37.97,37.63C36.65,33.35 35.97,28.89 35.97,24.4L35.97,15.38Z " /><path  id="路径 2" style="stroke:#242C6B; stroke-width:3; stroke-opacity:1; stroke-dasharray:0 0" transform="translate(11.579999999999998 42.370000000000005)  rotate(0 7.41 3.705000000000002)" d="M14.82,0C14.82,4.09 11.5,7.41 7.41,7.41C3.32,7.41 0,4.09 0,0 " /><path  id="路径 3" style="stroke:#242C6B; stroke-width:3; stroke-opacity:1; stroke-dasharray:0 0" transform="translate(14.649999999999999 0)  rotate(0 4.330000000000001 2.165)" d="M0,4.33C0,1.94 1.94,0 4.33,0C6.72,0 8.66,1.94 8.66,4.33 " /></g></g></g></svg>