<svg xmlns="http://www.w3.org/2000/svg" xmlns:xlink="http://www.w3.org/1999/xlink" width="66" height="66" viewBox="0 0 66 66" fill="none"><defs><linearGradient id="linear_0" x1="0%" y1="100%" x2="84.857%" y2="15.143%" gradientUnits="objectBoundingBox"><stop offset="0" stop-color="#F8D9C1" stop-opacity="0.04" /><stop offset="1" stop-color="#F8D9C1" stop-opacity="1" /></linearGradient></defs><g opacity="1" transform="translate(0 0)  rotate(0 33 33)"><path id="矩形 1" style="fill:#C4C4C4" transform="translate(0 0)  rotate(0 33 33)" opacity="0" d="M0,66L66,66L66,0L0,0L0,66Z " /><g opacity="1" transform="translate(9 9)  rotate(0 24.000000000000004 27.330766101910392)"><path id="矩形 1" fill="url(#linear_0)" transform="translate(25.830766101910285 32.685322664951855)  rotate(-45 9 9.145443436958583)" opacity="1" d="M2.449293598294707e-16,14.290886873917167C0,15.351752833275343 0.42142736146167126,16.369168484871217 1.1715728752538102,17.11931399866336C1.921718389045949,17.869459512455496 2.9391340406418243,18.290886873917167 4,18.290886873917167L14,18.290886873917167C16.209138999323173,18.290886873917167 18,16.50002587324034 18,14.290886873917167L18,4.000000000000001C18,2.939134040641823 17.57857263853833,1.9217183890459468 16.828427124746188,1.1715728752538084C16.07828161095405,0.4214273614616699 15.060865959358175,-8.881784197001252e-16 13.999999999999998,-8.881784197001252e-16L4.000000000000001,0C2.9391340406418247,-8.881784197001252e-16 1.9217183890459482,0.4214273614616708 1.1715728752538093,1.1715728752538097C0.42142736146167037,1.9217183890459486 -8.881784197001252e-16,2.939134040641825 -8.881784197001252e-16,4.000000000000001Z " /><path id="分组 3" style="fill:#242C6B" transform="translate(0 0)  rotate(0 24.000000000000004 24)" opacity="1" d="M1.78 38.02C2.92 35.4 4.55 33.06 6.62 31.04C8.7 29.03 11.12 27.45 13.81 26.34C16.6 25.2 19.56 24.62 22.62 24.62C28.79 24.62 33.82 19.74 33.82 13.75C33.82 7.76 28.79 2.88 22.62 2.88C16.44 2.88 11.41 7.76 11.41 13.75C11.41 16 12.11 18.16 13.44 19.99C13.92 20.64 13.75 21.54 13.08 22C12.41 22.46 11.49 22.3 11.01 21.65C9.33 19.33 8.44 16.6 8.44 13.75C8.44 10.08 9.92 6.62 12.59 4.03C15.27 1.43 18.83 0 22.62 0C26.4 0 29.96 1.43 32.64 4.03C35.32 6.62 36.79 10.08 36.79 13.75C36.79 17.42 35.32 20.88 32.64 23.47C29.96 26.07 26.4 27.5 22.62 27.5C11.78 27.5 2.97 36.05 2.97 46.56C2.97 47.35 2.31 48 1.49 48C0.66 48 0 47.36 0 46.56C0 43.6 0.6 40.72 1.78 38.02Z M26.7745 33.1771L46.5145 33.1771C47.3345 33.1771 48.0045 32.5371 48.0045 31.7371C48.0045 30.9371 47.3345 30.2971 46.5145 30.2971L26.7745 30.2971C25.9445 30.2971 25.2845 30.9371 25.2845 31.7371C25.2845 32.5371 25.9445 33.1771 26.7745 33.1771Z M26.7745 37.6356C25.9445 37.6356 25.2845 38.2856 25.2845 39.0756C25.2845 39.8756 25.9445 40.5156 26.7745 40.5156L46.5145 40.5156C47.3345 40.5156 48.0045 39.8756 48.0045 39.0756C48.0045 38.2856 47.3345 37.6356 46.5145 37.6356L26.7745 37.6356Z M26.7745 44.9756C25.9445 44.9756 25.2845 45.6156 25.2845 46.4156C25.2845 47.2156 25.9445 47.8556 26.7745 47.8556L46.5145 47.8556C47.3345 47.8556 48.0045 47.2156 48.0045 46.4156C48.0045 45.6256 47.3345 44.9756 46.5145 44.9756L26.7745 44.9756Z " /><path  id="分组 3" style="stroke:#242C6B; stroke-width:0.5; stroke-opacity:1; stroke-dasharray:0 0" transform="translate(0 0)  rotate(0 24.000000000000004 24)" d="M1.78 38.02C2.92 35.4 4.55 33.06 6.62 31.04C8.7 29.03 11.12 27.45 13.81 26.34C16.6 25.2 19.56 24.62 22.62 24.62C28.79 24.62 33.82 19.74 33.82 13.75C33.82 7.76 28.79 2.88 22.62 2.88C16.44 2.88 11.41 7.76 11.41 13.75C11.41 16 12.11 18.16 13.44 19.99C13.92 20.64 13.75 21.54 13.08 22C12.41 22.46 11.49 22.3 11.01 21.65C9.33 19.33 8.44 16.6 8.44 13.75C8.44 10.08 9.92 6.62 12.59 4.03C15.27 1.43 18.83 0 22.62 0C26.4 0 29.96 1.43 32.64 4.03C35.32 6.62 36.79 10.08 36.79 13.75C36.79 17.42 35.32 20.88 32.64 23.47C29.96 26.07 26.4 27.5 22.62 27.5C11.78 27.5 2.97 36.05 2.97 46.56C2.97 47.35 2.31 48 1.49 48C0.66 48 0 47.36 0 46.56C0 43.6 0.6 40.72 1.78 38.02Z M26.7745 33.1771L46.5145 33.1771C47.3345 33.1771 48.0045 32.5371 48.0045 31.7371C48.0045 30.9371 47.3345 30.2971 46.5145 30.2971L26.7745 30.2971C25.9445 30.2971 25.2845 30.9371 25.2845 31.7371C25.2845 32.5371 25.9445 33.1771 26.7745 33.1771Z M26.7745 37.6356C25.9445 37.6356 25.2845 38.2856 25.2845 39.0756C25.2845 39.8756 25.9445 40.5156 26.7745 40.5156L46.5145 40.5156C47.3345 40.5156 48.0045 39.8756 48.0045 39.0756C48.0045 38.2856 47.3345 37.6356 46.5145 37.6356L26.7745 37.6356Z M26.7745 44.9756C25.9445 44.9756 25.2845 45.6156 25.2845 46.4156C25.2845 47.2156 25.9445 47.8556 26.7745 47.8556L46.5145 47.8556C47.3345 47.8556 48.0045 47.2156 48.0045 46.4156C48.0045 45.6256 47.3345 44.9756 46.5145 44.9756L26.7745 44.9756Z " /></g></g></svg>