<svg xmlns="http://www.w3.org/2000/svg" xmlns:xlink="http://www.w3.org/1999/xlink" width="66" height="66" viewBox="0 0 66 66" fill="none"><g opacity="1" transform="translate(0 0)  rotate(0 33 33)"><path  id="矩形 1" style="stroke:#242C6B; stroke-width:1; stroke-opacity:1; stroke-dasharray:0 0" transform="translate(0 0)  rotate(0 33 33)" d="M2.0206672185931327e-15,33C0,41.75214416470496 3.4767757320587833,50.14582329037093 9.665476220843924,56.33452377915607C15.854176709629066,62.52322426794122 24.247855835295034,66 32.999999999999986,66L33,66C41.75214416470495,66 50.14582329037093,62.52322426794122 56.33452377915607,56.33452377915607C62.52322426794122,50.14582329037093 66,41.75214416470495 66,33L66,33C66,24.247855835295034 62.5232242679412,15.854176709629058 56.33452377915606,9.665476220843917C50.14582329037091,3.476775732058776 41.752144164704944,-1.4210854715202004e-14 32.999999999999986,-7.105427357601002e-15L33,0C24.24785583529505,-7.105427357601002e-15 15.854176709629069,3.4767757320587833 9.665476220843924,9.665476220843928C3.4767757320587798,15.854176709629073 -7.105427357601002e-15,24.24785583529505 -7.105427357601002e-15,33Z " /><g opacity="1" transform="translate(15 15)  rotate(0 18 18)"><path id="分组 2" style="fill:#242C6B" transform="translate(0 0)  rotate(0 18 18)" opacity="1" d="M31.56 11.61C31.76 12.04 31.95 12.48 32.11 12.93L32.37 13.02C34.4 13.21 36 14.92 36 17L36 19C36 21.08 34.4 22.8 32.37 22.98L32.11 23.07C31.94 23.52 31.76 23.97 31.56 24.39L31.68 24.64C32.28 25.36 32.61 26.25 32.61 27.19C32.61 28.26 32.19 29.27 31.43 30.02L30.02 31.44C29.26 32.19 28.26 32.61 27.19 32.61C26.25 32.61 25.35 32.28 24.64 31.69L24.39 31.56C23.96 31.76 23.52 31.95 23.07 32.11L22.98 32.38C22.79 34.41 21.08 36 19 36L17 36C14.92 36 13.21 34.41 13.02 32.38L12.93 32.11C12.48 31.95 12.04 31.77 11.61 31.56L11.35 31.69C10.64 32.28 9.75 32.61 8.81 32.61C7.74 32.61 6.73 32.19 5.98 31.44L4.57 30.02C3.81 29.27 3.39 28.26 3.39 27.19C3.39 26.25 3.72 25.36 4.31 24.65L4.44 24.39C4.24 23.96 4.05 23.52 3.89 23.07L3.62 22.98C1.59 22.79 0 21.08 0 19L0 17C0 14.92 1.59 13.21 3.62 13.02L3.89 12.93C4.06 12.48 4.24 12.04 4.44 11.61L4.31 11.36C3.72 10.64 3.39 9.75 3.39 8.81C3.39 7.74 3.81 6.73 4.57 5.98L5.98 4.57C6.74 3.81 7.74 3.39 8.81 3.39C9.75 3.39 10.64 3.72 11.36 4.31L11.61 4.44C12.04 4.23 12.48 4.05 12.93 3.89L13.02 3.63C13.21 1.6 14.92 0 17 0L19 0C21.08 0 22.8 1.6 22.98 3.63L23.07 3.89C23.52 4.05 23.97 4.24 24.4 4.44L24.64 4.32C25.36 3.72 26.25 3.39 27.19 3.39C28.26 3.39 29.27 3.81 30.02 4.57L31.44 5.98C32.19 6.73 32.61 7.74 32.61 8.81C32.61 9.75 32.28 10.65 31.69 11.36L31.56 11.61Z M6.16659 28.4448C5.39659 27.6748 5.39659 26.4248 6.16659 25.6548L6.85659 24.2748C6.35659 23.3948 5.96659 22.4448 5.68659 21.4448L4.21659 20.9548C3.12659 20.9548 2.24659 20.0748 2.24659 18.9848L2.24659 17.0148C2.24659 15.9248 3.12659 15.0448 4.21659 15.0448L5.68659 14.5548C5.96659 13.5548 6.35659 12.6048 6.85659 11.7248L6.16659 10.3448C5.39659 9.57476 5.39659 8.32476 6.16659 7.55476L7.55659 6.16476C7.94659 5.77476 8.44659 5.58476 8.94659 5.58476C9.45659 5.58476 9.82659 5.58476 10.2266 5.97476L11.6266 6.67476C12.5266 6.16476 13.4966 5.76476 14.5166 5.48476L15.0466 4.21476C15.0466 3.12476 15.9266 2.24476 17.0166 2.24476L18.9866 2.24476C20.0766 2.24476 20.9566 3.12476 20.9566 4.21476L21.4366 5.67476C22.4466 5.95476 23.3966 6.35476 24.2866 6.85476L25.6566 6.16476C26.0466 5.77476 26.6766 5.39476 27.1966 5.39476C27.7066 5.39476 28.0566 5.77476 28.4466 6.16476L29.8366 7.55476C30.6066 8.32476 30.6066 9.57476 29.8366 10.3448L29.1466 11.7148C29.6466 12.6048 30.0366 13.5648 30.3166 14.5648L31.7866 15.0448C32.8766 15.0448 33.7566 15.9248 33.7566 17.0148L33.7566 18.9848C33.7566 20.0748 32.8766 20.9548 31.7866 20.9548L30.3166 21.4348C30.0366 22.4448 29.6466 23.3948 29.1466 24.2848L29.8366 25.6548C30.6066 26.4248 30.6066 27.6748 29.8366 28.4448L28.4466 29.8348C28.0566 30.2248 27.5566 30.4148 27.0566 30.4148C26.5466 30.4148 26.0466 30.2248 25.6566 29.8348L24.2866 29.1448C23.3966 29.6448 22.4466 30.0348 21.4466 30.3148L20.9566 31.7848C20.9566 32.8748 20.0766 33.7548 18.9866 33.7548L17.0166 33.7548C15.9266 33.7548 15.0466 32.8748 15.0466 31.7848L14.5566 30.3148C13.5566 30.0348 12.6066 29.6448 11.7266 29.1448L10.3466 29.8348C9.95659 30.2248 9.45659 30.4148 8.94659 30.4148C8.44659 30.4148 7.94659 30.2248 7.55659 29.8348L6.16659 28.4448Z M12.3762 18.0046C12.3762 21.1046 14.8962 23.6246 18.0062 23.6246C21.1062 23.6246 23.6262 21.1046 23.6262 18.0046C23.6262 14.8946 21.1062 12.3746 18.0062 12.3746C14.8962 12.3746 12.3762 14.8946 12.3762 18.0046Z M21.3763 18.0047C21.3763 16.1347 19.8663 14.6247 18.0063 14.6247C16.1363 14.6247 14.6263 16.1347 14.6263 18.0047C14.6263 19.8647 16.1363 21.3747 18.0063 21.3747C19.8663 21.3747 21.3763 19.8647 21.3763 18.0047Z " /></g></g></svg>