<svg xmlns="http://www.w3.org/2000/svg" xmlns:xlink="http://www.w3.org/1999/xlink" width="8" height="8" viewBox="0 0 8 8" fill="none"><path id="矩形 3" style="fill:#FAE5CA" transform="translate(-4.618527782440651e-14 -2.842170943040401e-14)  rotate(-45 4 4)" opacity="1" d="M6.123233995736767e-17,7C0,7.265216489839544 0.10535684036541781,7.519570402738513 0.29289321881345254,7.707106781186548C0.48042959726148726,7.894643159634582 0.7347835101604561,8 1,8L7,8C7.552284749830793,8 8,7.552284749830793 8,7L8,1.0000000000000002C8,0.7347835101604557 7.894643159634582,0.4804295972614867 7.707106781186547,0.2928932188134521C7.519570402738513,0.10535684036541748 7.265216489839544,-2.220446049250313e-16 7,-2.220446049250313e-16L1.0000000000000002,0C0.7347835101604562,-2.220446049250313e-16 0.48042959726148704,0.1053568403654177 0.2928932188134523,0.2928932188134524C0.10535684036541759,0.48042959726148715 -2.220446049250313e-16,0.7347835101604563 -2.220446049250313e-16,1.0000000000000002Z " /></svg>