<svg xmlns="http://www.w3.org/2000/svg" xmlns:xlink="http://www.w3.org/1999/xlink" width="26" height="26" viewBox="0 0 26 26" fill="none"><g opacity="1" transform="translate(0 0)  rotate(0 13.000000000000004 13.000000000000007)"><path id="分组 3" style="fill:#242C6B" transform="translate(0 0)  rotate(0 13.000000000000004 13.000000000000009)" opacity="1" d="M15.87 16.29L16.84 15.32C18.03 14.1 19.94 13.96 21.27 14.97L24.74 17.73L24.81 17.79L25.08 18.07C26.35 19.4 26.3 21.51 24.98 22.76L22.66 25.08C20.05 27.59 14.13 24.76 8.08 18.85L7.63 18.41C1.37 12.15 -1.7 5.94 0.96 3.27L3.15 1.08L3.17 1.06C3.22 0.97 3.29 0.9 3.37 0.84L3.45 0.78C3.46 0.77 3.47 0.76 3.49 0.75L3.52 0.72C5 -0.43 7.14 -0.18 8.3 1.29L10.94 4.6C12.07 5.95 11.98 7.94 10.72 9.17L9.8 10.21L9.88 10.34C11.4 12.71 13.41 14.72 15.78 16.23L15.87 16.29Z M10.715 9.18L10.72 9.17C10.72 9.17219 10.7195 9.1739 10.7188 9.17534C10.7178 9.17719 10.7164 9.17859 10.715 9.18Z M10.715 9.18L10.71 9.19C10.71 9.185 10.7125 9.1825 10.715 9.18Z M8.84194 17.194C14.4019 22.754 19.8219 25.434 21.4619 23.864L23.7819 21.534C24.4319 20.924 24.4519 19.894 23.8419 19.244L23.6319 19.034L20.3219 16.404C19.6919 15.874 18.7719 15.894 18.1519 16.434L18.0619 16.524L16.1419 18.444L15.5719 18.114C12.4319 16.284 9.83194 13.674 8.00194 10.544L7.69194 10.004L9.69194 7.75403L9.74194 7.68403C10.1119 7.11403 10.1019 6.36403 9.69194 5.78403L6.96194 2.36403C6.39223 1.63715 5.34973 1.50848 4.61161 2.04436L4.61194 2.04403L4.60786 2.04709C4.5958 2.05589 4.58383 2.06487 4.57194 2.07403L4.60786 2.04709C4.60911 2.04618 4.61036 2.04527 4.61161 2.04436L2.17194 4.48403C0.561942 6.10403 3.16194 11.444 8.61194 16.964L8.84194 17.194Z " /></g></svg>