<svg xmlns="http://www.w3.org/2000/svg" xmlns:xlink="http://www.w3.org/1999/xlink" width="46" height="46" viewBox="0 0 46 46" fill="none"><g opacity="1" transform="translate(0 0)  rotate(0 23 23)"><path id="矩形 12" style="fill:#C4C4C4" transform="translate(0 0)  rotate(0 23 23)" opacity="0" d="M0,46L46,46L46,0L0,0L0,46Z " /><g opacity="1" transform="translate(3 5)  rotate(0 20 18)"><path  id="并集" style="stroke:#242C6B; stroke-width:2.5; stroke-opacity:1; stroke-dasharray:0 0" transform="translate(0 0)  rotate(0 20 18)" d="M18.647765892986236,34.759126348857954C19.412637375963566,35.46100841559009 20.587362624036434,35.46100841559009 21.352234107013764,34.759126348857954L39.030493200905795,18.536723886227623C39.61886950762465,17.996802098885617 39.82967359928637,17.158622821482975 39.56672948803457,16.404591914216763L34.3139437974355,1.34145647794004C34.03382349650919,0.5381703208719593 33.27620017090302,1.7763568394002505e-15 32.42547340329297,-4.440892098500626e-16L7.574526596707036,0C6.723799829096982,-8.881784197001252e-16 5.9661765034908045,0.5381703208719573 5.686056202564499,1.3414564779400397L0.4332705119654346,16.404591914216766C0.1703264007136278,17.158622821482975 0.38113049237535024,17.996802098885613 0.9695067990942043,18.53672388622762Z " /><path  id="路径 1" style="stroke:#242C6B; stroke-width:2.5; stroke-opacity:1; stroke-dasharray:0 0" transform="translate(13.846153846153847 10.17391304347826)  rotate(0 6.153846153846154 0.7826086956521738)" d="M0,0L12.31,0 " /></g></g></svg>