<svg xmlns="http://www.w3.org/2000/svg" xmlns:xlink="http://www.w3.org/1999/xlink" width="46" height="46" viewBox="0 0 46 46" fill="none"><g opacity="1" transform="translate(0 0)  rotate(0 23 23)"><path id="矩形 12" style="fill:#C4C4C4" transform="translate(0 0)  rotate(0 23 23)" opacity="0" d="M0,46L46,46L46,0L0,0L0,46Z " /><g opacity="1" transform="translate(8 2.3998598515736376)  rotate(0 15 20.600140148426362)"><path  id="并集" style="stroke:#242C6B; stroke-width:2.5; stroke-opacity:1; stroke-dasharray:0 0" transform="translate(0 0)  rotate(0 15 20.60014014842639)" d="M0 15C0 6.72 6.72 0 15 0C23.28 0 30 6.72 30 15C30 18.8993 28.5096 22.4527 26.0678 25.1212L16.7005 40.253C16.336 40.8419 15.6926 41.2003 15 41.2003C14.3074 41.2003 13.664 40.8419 13.2995 40.253L3.93215 25.1212C1.49036 22.4527 0 18.8993 0 15Z " /><path  id="圆形 2" style="stroke:#242C6B; stroke-width:2.5; stroke-opacity:1; stroke-dasharray:0 0" transform="translate(11 10)  rotate(0 4 4)" d="M4,0C1.79,0 0,1.79 0,4C0,6.21 1.79,8 4,8C6.21,8 8,6.21 8,4C8,1.79 6.21,0 4,0Z " /></g></g></svg>