<svg xmlns="http://www.w3.org/2000/svg" xmlns:xlink="http://www.w3.org/1999/xlink" width="46" height="46" viewBox="0 0 46 46" fill="none"><g opacity="1" transform="translate(0 0)  rotate(0 23 23)"><path id="矩形 11" style="fill:#C4C4C4" transform="translate(0 0)  rotate(0 23 23)" opacity="0" d="M46,0L0,0L0,46L46,46L46,0Z " /><g opacity="1" transform="translate(7 3)  rotate(0 16 20)"><path  id="圆形 1" style="stroke:#242C6B; stroke-width:2.5; stroke-opacity:1; stroke-dasharray:0 0" transform="translate(6.095238095238095 0)  rotate(0 9.904761904761905 10.399999999999999)" d="M0,10.4C0,16.14 4.43,20.8 9.9,20.8C15.38,20.8 19.81,16.14 19.81,10.4C19.81,4.66 15.38,0 9.9,0C4.43,0 0,4.66 0,10.4Z " /><path  id="圆形 1" style="stroke:#242C6B; stroke-width:2.5; stroke-opacity:1; stroke-dasharray:0 0" transform="translate(0 20.799999999999997)  rotate(0 16 9.600000000000001)" d="M0,9.6C0,14.9 7.16,19.2 16,19.2C24.84,19.2 32,14.9 32,9.6C32,4.3 24.84,0 16,0C7.16,0 0,4.3 0,9.6Z " /></g></g></svg>