<svg xmlns="http://www.w3.org/2000/svg" xmlns:xlink="http://www.w3.org/1999/xlink" width="46" height="46" viewBox="0 0 46 46" fill="none"><g opacity="1" transform="translate(0 0)  rotate(0 23 23)"><path id="矩形 12" style="fill:#C4C4C4" transform="translate(0 0)  rotate(0 23 23)" opacity="0" d="M0,46L46,46L46,0L0,0L0,46Z " /><g opacity="1" transform="translate(6 2)  rotate(0 17 21)"><path  id="并集" style="stroke:#242C6B; stroke-width:2.5; stroke-opacity:1; stroke-dasharray:0 0" transform="translate(0 0)  rotate(0 17 21)" d="M17,42C22.607638888888886,42 30.504677456381998,32.168050879161996 33.6309968628227,28.437577282878785C33.86766755684155,28.156049157453516 33.98953641176662,27.79566270928801 33.972304326761986,27.428274415980745L33.064119307703834,8.680486414717734C32.987205241680435,7.092738792964189 31.977428399857363,5.701211960834597 30.491810224710118,5.135706062007306L18.42300585802337,0.5416722952371342C17.50641534556967,0.1927688217384187 16.493584654430318,0.1927688217384178 15.576994141976622,0.5416722952371322L3.508189775289874,5.135706062007305C2.0225716001426286,5.701211960834598 1.0127947583195538,7.092738792964191 0.9358806922961578,8.680486414717738L0.07298646931087399,26.49333029626493C0.027281575229460397,27.461860955449268 0.3470431416681463,28.412227493763655 0.9689198347450403,29.1561427804266C4.42,33.29 11.72,42 17,42Z " /><g opacity="1" transform="translate(9.842105263157896 10.043478260869565)  rotate(0 7.5 11)"><text><tspan x="0" y="20" font-size="24" line-height="24" fill="#242C6B" opacity="1" font-family="HarmonyOSSansSC-Regular" letter-spacing="0" >R</tspan></text></g></g></g></svg>