<svg xmlns="http://www.w3.org/2000/svg" xmlns:xlink="http://www.w3.org/1999/xlink" width="46" height="46" viewBox="0 0 46 46" fill="none"><g opacity="1" transform="translate(0 0)  rotate(0 23 23)"><path id="矩形 12" style="fill:#C4C4C4" transform="translate(0 0)  rotate(0 23 23)" opacity="0" d="M0,46L46,46L46,0L0,0L0,46Z " /><g opacity="1" transform="translate(7.5 3.5)  rotate(0 15.5 19.5)"><path  id="矩形 13" style="stroke:#242C6B; stroke-width:2.5; stroke-opacity:1; stroke-dasharray:0 0" transform="translate(0 0)  rotate(0 15.5 19.5)" d="M2.449293598294707e-16,35C0,36.060865959358175 0.42142736146167126,37.07828161095405 1.1715728752538102,37.82842712474619C1.921718389045949,38.57857263853833 2.9391340406418243,39 4,39L27,39C29.209138999323173,39 31,37.20913899932317 31,35L31,4.000000000000001C31,2.939134040641823 30.57857263853833,1.9217183890459468 29.828427124746188,1.1715728752538084C29.07828161095405,0.4214273614616699 28.060865959358175,-8.881784197001252e-16 27,-8.881784197001252e-16L4.000000000000001,0C2.9391340406418247,-8.881784197001252e-16 1.9217183890459482,0.4214273614616708 1.1715728752538093,1.1715728752538097C0.42142736146167037,1.9217183890459486 -8.881784197001252e-16,2.939134040641825 -8.881784197001252e-16,4.000000000000001Z " /><path  id="路径 1" style="stroke:#242C6B; stroke-width:2.5; stroke-opacity:1; stroke-dasharray:0 0" transform="translate(0 28)  rotate(0 15.25 0.5)" d="M0,0L30.5,0 " /></g></g></svg>