<svg xmlns="http://www.w3.org/2000/svg" xmlns:xlink="http://www.w3.org/1999/xlink" width="46" height="46" viewBox="0 0 46 46" fill="none"><g opacity="1" transform="translate(0 0)  rotate(0 23 23)"><path id="矩形 12" style="fill:#C4C4C4" transform="translate(0 0)  rotate(0 23 23)" opacity="0" d="M0,46L46,46L46,0L0,0L0,46Z " /><g opacity="1" transform="translate(6.5 3)  rotate(0 16.5 20)"><path  id="矩形 14" style="stroke:#242C6B; stroke-width:2.5; stroke-opacity:1; stroke-dasharray:0 0" transform="translate(6 0)  rotate(0 10.5 17.5)" d="M6.429395695523604e-16,24.5C1.7763568394002505e-15,27.28477314331521 1.1062468238368872,29.95548922875438 3.0753787975412505,31.924621202458745C5.044510771245614,33.89375317616311 7.715226856684787,35 10.499999999999998,35L10.5,35C13.28477314331521,35 15.955489228754383,33.893753176163116 17.924621202458745,31.92462120245875C19.89375317616311,29.955489228754384 21,27.284773143315213 21,24.5L20.999999999999996,10.5C20.999999999999996,7.715226856684785 19.89375317616311,5.044510771245612 17.924621202458745,3.075378797541248C15.95548922875438,1.1062468238368837 13.284773143315208,-1.7763568394002505e-15 10.499999999999996,-1.7763568394002505e-15L10.5,0C7.715226856684787,0 5.044510771245614,1.1062468238368854 3.0753787975412497,3.0753787975412497C1.1062468238368854,5.044510771245614 -1.7763568394002505e-15,7.715226856684789 -1.7763568394002505e-15,10.500000000000002Z " /><path id="矩形 13" style="fill:#FFFFFF" transform="translate(0 14)  rotate(0 16.5 13)" opacity="1" d="M2.449293598294707e-16,22C0,23.060865959358175 0.42142736146167126,24.07828161095405 1.1715728752538102,24.82842712474619C1.921718389045949,25.57857263853833 2.9391340406418243,26 4,26L29,26C31.209138999323173,26 33,24.209138999323173 33,22L33,4.000000000000001C33,2.939134040641823 32.578572638538326,1.9217183890459468 31.828427124746188,1.1715728752538084C31.07828161095405,0.4214273614616699 30.060865959358175,-8.881784197001252e-16 29,-8.881784197001252e-16L4.000000000000001,0C2.9391340406418247,-8.881784197001252e-16 1.9217183890459482,0.4214273614616708 1.1715728752538093,1.1715728752538097C0.42142736146167037,1.9217183890459486 -8.881784197001252e-16,2.939134040641825 -8.881784197001252e-16,4.000000000000001Z " /><path  id="矩形 13" style="stroke:#242C6B; stroke-width:2.5; stroke-opacity:1; stroke-dasharray:0 0" transform="translate(0 14)  rotate(0 16.5 13)" d="M2.449293598294707e-16,22C0,23.060865959358175 0.42142736146167126,24.07828161095405 1.1715728752538102,24.82842712474619C1.921718389045949,25.57857263853833 2.9391340406418243,26 4,26L29,26C31.209138999323173,26 33,24.209138999323173 33,22L33,4.000000000000001C33,2.939134040641823 32.578572638538326,1.9217183890459468 31.828427124746188,1.1715728752538084C31.07828161095405,0.4214273614616699 30.060865959358175,-8.881784197001252e-16 29,-8.881784197001252e-16L4.000000000000001,0C2.9391340406418247,-8.881784197001252e-16 1.9217183890459482,0.4214273614616708 1.1715728752538093,1.1715728752538097C0.42142736146167037,1.9217183890459486 -8.881784197001252e-16,2.939134040641825 -8.881784197001252e-16,4.000000000000001Z " /></g></g></svg>