<svg xmlns="http://www.w3.org/2000/svg" xmlns:xlink="http://www.w3.org/1999/xlink" width="700" height="822" viewBox="0 0 700 822" fill="none"><defs><path id="path_0"
        transform="translate(0 0) rotate(0 350 411)"
        d="M0,822L700,822L700,0L0,0L0,822Z" /><filter id="filter_7" x="0" y="0" width="635" height="1522" filterUnits="userSpaceOnUse" color-interpolation-filters="sRGB"><feFlood flood-opacity="0" result="BackgroundImageFix"/>
          <feBlend mode="normal" in="SourceGraphic" in2="BackgroundImageFix" result="shape"/>
          <feGaussianBlur stdDeviation="22.5" result="effect1_foregroundBlur" /></filter><filter id="filter_8" x="67" y="653" width="107" height="128" filterUnits="userSpaceOnUse" color-interpolation-filters="sRGB"><feFlood flood-opacity="0" result="BackgroundImageFix"/>
          <feBlend mode="normal" in="SourceGraphic" in2="BackgroundImageFix" result="shape"/>
          <feColorMatrix in="SourceAlpha" type="matrix" values="0 0 0 0 0 0 0 0 0 0 0 0 0 0 0 0 0 0 127 0" result="hardAlpha"/>
          <feOffset dx="0" dy="0"/>
          <feGaussianBlur stdDeviation="10"/>
          <feComposite in2="hardAlpha" operator="arithmetic" k2="-1" k3="1"/>
          <feColorMatrix type="matrix" values="0 0 0 0 0.34901960784313724 0 0 0 0 0.3843137254901961 0 0 0 0 0.6588235294117647 0 0 0 1 0"/>
          <feBlend mode="normal" in2="shape" result="effect1_Shadow"/></filter><filter id="filter_10" x="460" y="653" width="107" height="128" filterUnits="userSpaceOnUse" color-interpolation-filters="sRGB"><feFlood flood-opacity="0" result="BackgroundImageFix"/>
          <feBlend mode="normal" in="SourceGraphic" in2="BackgroundImageFix" result="shape"/>
          <feColorMatrix in="SourceAlpha" type="matrix" values="0 0 0 0 0 0 0 0 0 0 0 0 0 0 0 0 0 0 127 0" result="hardAlpha"/>
          <feOffset dx="0" dy="0"/>
          <feGaussianBlur stdDeviation="10"/>
          <feComposite in2="hardAlpha" operator="arithmetic" k2="-1" k3="1"/>
          <feColorMatrix type="matrix" values="0 0 0 0 0.34901960784313724 0 0 0 0 0.3843137254901961 0 0 0 0 0.6588235294117647 0 0 0 1 0"/>
          <feBlend mode="normal" in2="shape" result="effect1_Shadow"/></filter><filter id="filter_14" x="33" y="41" width="16" height="55" filterUnits="userSpaceOnUse" color-interpolation-filters="sRGB"><feFlood flood-opacity="0" result="BackgroundImageFix"/>
          <feBlend mode="normal" in="SourceGraphic" in2="BackgroundImageFix" result="shape"/>
          <feColorMatrix in="SourceAlpha" type="matrix" values="0 0 0 0 0 0 0 0 0 0 0 0 0 0 0 0 0 0 127 0" result="hardAlpha"/>
          <feOffset dx="0" dy="2"/>
          <feGaussianBlur stdDeviation="2"/>
          <feComposite in2="hardAlpha" operator="arithmetic" k2="-1" k3="1"/>
          <feColorMatrix type="matrix" values="0 0 0 0 0.807843137254902 0 0 0 0 0.8235294117647058 0 0 0 0 0.9411764705882353 0 0 0 1 0"/>
          <feBlend mode="normal" in2="shape" result="effect1_Shadow"/></filter><filter id="filter_16" x="-10" y="139" width="59" height="55" filterUnits="userSpaceOnUse" color-interpolation-filters="sRGB"><feFlood flood-opacity="0" result="BackgroundImageFix"/>
          <feBlend mode="normal" in="SourceGraphic" in2="BackgroundImageFix" result="shape"/>
          <feColorMatrix in="SourceAlpha" type="matrix" values="0 0 0 0 0 0 0 0 0 0 0 0 0 0 0 0 0 0 127 0" result="hardAlpha"/>
          <feOffset dx="0" dy="0"/>
          <feGaussianBlur stdDeviation="5"/>
          <feComposite in2="hardAlpha" operator="arithmetic" k2="-1" k3="1"/>
          <feColorMatrix type="matrix" values="0 0 0 0 0.807843137254902 0 0 0 0 0.8235294117647058 0 0 0 0 0.9411764705882353 0 0 0 1 0"/>
          <feBlend mode="normal" in2="shape" result="effect1_Shadow"/></filter><filter id="filter_18" x="26" y="61" width="30" height="85" filterUnits="userSpaceOnUse" color-interpolation-filters="sRGB"><feFlood flood-opacity="0" result="BackgroundImageFix"/>
          <feBlend mode="normal" in="SourceGraphic" in2="BackgroundImageFix" result="shape"/>
          <feColorMatrix in="SourceAlpha" type="matrix" values="0 0 0 0 0 0 0 0 0 0 0 0 0 0 0 0 0 0 127 0" result="hardAlpha"/>
          <feOffset dx="0" dy="8"/>
          <feGaussianBlur stdDeviation="4"/>
          <feComposite in2="hardAlpha" operator="arithmetic" k2="-1" k3="1"/>
          <feColorMatrix type="matrix" values="0 0 0 0 0.807843137254902 0 0 0 0 0.8235294117647058 0 0 0 0 0.9411764705882353 0 0 0 1 0"/>
          <feBlend mode="normal" in2="shape" result="effect1_Shadow"/></filter><filter id="filter_20" x="10" y="120" width="59" height="94" filterUnits="userSpaceOnUse" color-interpolation-filters="sRGB"><feFlood flood-opacity="0" result="BackgroundImageFix"/>
          <feBlend mode="normal" in="SourceGraphic" in2="BackgroundImageFix" result="shape"/>
          <feColorMatrix in="SourceAlpha" type="matrix" values="0 0 0 0 0 0 0 0 0 0 0 0 0 0 0 0 0 0 127 0" result="hardAlpha"/>
          <feOffset dx="0" dy="-6"/>
          <feGaussianBlur stdDeviation="5"/>
          <feComposite in2="hardAlpha" operator="arithmetic" k2="-1" k3="1"/>
          <feColorMatrix type="matrix" values="0 0 0 0 0.3686274509803922 0 0 0 0 0.403921568627451 0 0 0 0 0.6705882352941176 0 0 0 1 0"/>
          <feBlend mode="normal" in2="shape" result="effect1_Shadow"/></filter><filter id="filter_22" x="1" y="-10" width="76" height="76" filterUnits="userSpaceOnUse" color-interpolation-filters="sRGB"><feFlood flood-opacity="0" result="BackgroundImageFix"/>
          <feBlend mode="normal" in="SourceGraphic" in2="BackgroundImageFix" result="shape"/>
          <feColorMatrix in="SourceAlpha" type="matrix" values="0 0 0 0 0 0 0 0 0 0 0 0 0 0 0 0 0 0 127 0" result="hardAlpha"/>
          <feOffset dx="0" dy="2"/>
          <feGaussianBlur stdDeviation="5"/>
          <feComposite in2="hardAlpha" operator="arithmetic" k2="-1" k3="1"/>
          <feColorMatrix type="matrix" values="0 0 0 0 0.807843137254902 0 0 0 0 0.8235294117647058 0 0 0 0 0.9411764705882353 0 0 0 1 0"/>
          <feBlend mode="normal" in2="shape" result="effect1_Shadow"/></filter><filter id="filter_24" x="10" y="1" width="48" height="48" filterUnits="userSpaceOnUse" color-interpolation-filters="sRGB"><feFlood flood-opacity="0" result="BackgroundImageFix"/>
          <feBlend mode="normal" in="SourceGraphic" in2="BackgroundImageFix" result="shape"/>
          <feColorMatrix in="SourceAlpha" type="matrix" values="0 0 0 0 0 0 0 0 0 0 0 0 0 0 0 0 0 0 127 0" result="hardAlpha"/>
          <feOffset dx="2" dy="2"/>
          <feGaussianBlur stdDeviation="5"/>
          <feComposite in2="hardAlpha" operator="arithmetic" k2="-1" k3="1"/>
          <feColorMatrix type="matrix" values="0 0 0 0 0.9725490196078431 0 0 0 0 0.8509803921568627 0 0 0 0 0.7568627450980392 0 0 0 1 0"/>
          <feBlend mode="normal" in2="shape" result="effect1_Shadow"/></filter><linearGradient id="linear_0" x1="0%" y1="50%" x2="50%" y2="50%" gradientUnits="objectBoundingBox"><stop offset="0" stop-color="#767DB8" stop-opacity="1" /><stop offset="1" stop-color="#0C1766" stop-opacity="1" /></linearGradient><linearGradient id="linear_1" x1="100%" y1="50%" x2="50%" y2="50%" gradientUnits="objectBoundingBox"><stop offset="0" stop-color="#767DB8" stop-opacity="1" /><stop offset="1" stop-color="#0C1766" stop-opacity="1" /></linearGradient><path id="path_1"
        transform="translate(0 0) rotate(0 291.5 353)"
        d="M1.2246467991473535e-15,686C0,691.3043297967909 2.1071368073083576,696.3914080547703 5.857864376269051,700.142135623731C9.608591945229746,703.8928631926916 14.69567020320912,706 20,706L563,706C574.0456949966159,706 583,697.0456949966159 583,686L583,20.000000000000004C583,14.695670203209115 580.8928631926916,9.608591945229735 577.142135623731,5.857864376269042C573.3914080547703,2.1071368073083505 568.3043297967909,-3.552713678800501e-15 563,-3.552713678800501e-15L20.000000000000004,0C14.69567020320912,0 9.608591945229742,2.107136807308354 5.857864376269047,5.857864376269049C2.107136807308354,9.608591945229744 -3.552713678800501e-15,14.695670203209126 -3.552713678800501e-15,20.000000000000007Z" /><filter id="filter_32" x="-26" y="-26" width="635" height="758" filterUnits="userSpaceOnUse" color-interpolation-filters="sRGB"><feFlood flood-opacity="0" result="BackgroundImageFix"/>
          <feBlend mode="normal" in="SourceGraphic" in2="BackgroundImageFix" result="shape"/>
          <feColorMatrix in="SourceAlpha" type="matrix" values="0 0 0 0 0 0 0 0 0 0 0 0 0 0 0 0 0 0 127 0" result="hardAlpha"/>
          <feOffset dx="0" dy="0"/>
          <feGaussianBlur stdDeviation="13"/>
          <feComposite in2="hardAlpha" operator="arithmetic" k2="-1" k3="1"/>
          <feColorMatrix type="matrix" values="0 0 0 0 0.5490196078431373 0 0 0 0 0.5725490196078431 0 0 0 0 0.7607843137254902 0 0 0 1 0"/>
          <feBlend mode="normal" in2="shape" result="effect1_Shadow"/></filter><filter id="filter_34" x="26.5" y="352" width="530" height="66" filterUnits="userSpaceOnUse" color-interpolation-filters="sRGB"></filter><filter id="filter_35" x="0" y="0" width="583" height="770" filterUnits="userSpaceOnUse" color-interpolation-filters="sRGB"><feFlood flood-opacity="0" result="BackgroundImageFix"/>
          <feBlend mode="normal" in="SourceGraphic" in2="BackgroundImageFix" result="shape"/>
          <feGaussianBlur stdDeviation="3" result="effect1_foregroundBlur" /></filter><filter id="filter_36" x="26.5" y="352" width="530" height="66" filterUnits="userSpaceOnUse" color-interpolation-filters="sRGB"></filter><filter id="filter_39" x="0" y="0" width="576" height="-17" filterUnits="userSpaceOnUse" color-interpolation-filters="sRGB"><feFlood flood-opacity="0" result="BackgroundImageFix"/>
          <feBlend mode="normal" in="SourceGraphic" in2="BackgroundImageFix" result="shape"/>
          <feGaussianBlur stdDeviation="2" result="effect1_foregroundBlur" /></filter><linearGradient id="linear_2" x1="5.395%" y1="4.0329999999999995%" x2="76.947%" y2="50%" gradientUnits="objectBoundingBox"><stop offset="0" stop-color="#FAE5CA" stop-opacity="1" /><stop offset="1" stop-color="#333D87" stop-opacity="0" /></linearGradient><filter id="filter_41" x="0" y="0" width="160" height="210" filterUnits="userSpaceOnUse" color-interpolation-filters="sRGB"><feFlood flood-opacity="0" result="BackgroundImageFix"/>
          <feBlend mode="normal" in="SourceGraphic" in2="BackgroundImageFix" result="shape"/>
          <feGaussianBlur stdDeviation="2" result="effect1_foregroundBlur" /></filter><linearGradient id="linear_3" x1="94.605%" y1="4.0329999999999995%" x2="23.053%" y2="50%" gradientUnits="objectBoundingBox"><stop offset="0" stop-color="#FAE5CA" stop-opacity="1" /><stop offset="1" stop-color="#333D87" stop-opacity="0" /></linearGradient><filter id="filter_43" x="0" y="0" width="1006" height="210" filterUnits="userSpaceOnUse" color-interpolation-filters="sRGB"><feFlood flood-opacity="0" result="BackgroundImageFix"/>
          <feBlend mode="normal" in="SourceGraphic" in2="BackgroundImageFix" result="shape"/>
          <feGaussianBlur stdDeviation="2" result="effect1_foregroundBlur" /></filter><path id="path_2"
        transform="translate(0 0) rotate(0 276.5 157)"
        d="M1.2246467991473535e-15,294C0,299.3043297967909 2.1071368073083576,304.39140805477024 5.857864376269051,308.14213562373095C9.608591945229746,311.89286319269166 14.69567020320912,314 20,314L533,314C544.0456949966159,314 553,305.04569499661585 553,294L553,20.000000000000004C553,14.695670203209115 550.8928631926916,9.608591945229735 547.142135623731,5.857864376269042C543.3914080547703,2.1071368073083505 538.3043297967909,-3.552713678800501e-15 533,-3.552713678800501e-15L20.000000000000004,0C14.69567020320912,0 9.608591945229742,2.107136807308354 5.857864376269047,5.857864376269049C2.107136807308354,9.608591945229744 -3.552713678800501e-15,14.695670203209126 -3.552713678800501e-15,20.000000000000007Z" /><filter id="filter_46" x="-20" y="-20" width="593" height="354" filterUnits="userSpaceOnUse" color-interpolation-filters="sRGB"><feFlood flood-opacity="0" result="BackgroundImageFix"/>
          <feBlend mode="normal" in="SourceGraphic" in2="BackgroundImageFix" result="shape"/>
          <feColorMatrix in="SourceAlpha" type="matrix" values="0 0 0 0 0 0 0 0 0 0 0 0 0 0 0 0 0 0 127 0" result="hardAlpha"/>
          <feOffset dx="0" dy="0"/>
          <feGaussianBlur stdDeviation="10"/>
          <feComposite in2="hardAlpha" operator="arithmetic" k2="-1" k3="1"/>
          <feColorMatrix type="matrix" values="0 0 0 0 0.807843137254902 0 0 0 0 0.8235294117647058 0 0 0 0 0.9411764705882353 0 0 0 1 0"/>
          <feBlend mode="normal" in2="shape" result="effect1_Shadow"/></filter><filter id="filter_49" x="0" y="0" width="549.5" height="5" filterUnits="userSpaceOnUse" color-interpolation-filters="sRGB"><feFlood flood-opacity="0" result="BackgroundImageFix"/>
          <feBlend mode="normal" in="SourceGraphic" in2="BackgroundImageFix" result="shape"/>
          <feGaussianBlur stdDeviation="2" result="effect1_foregroundBlur" /></filter><filter id="filter_128" x="67" y="53" width="505" height="249" filterUnits="userSpaceOnUse" color-interpolation-filters="sRGB"><feFlood flood-opacity="0" result="BackgroundImageFix"/>
          <feBlend mode="normal" in="SourceGraphic" in2="BackgroundImageFix" result="shape"/>
          <feColorMatrix in="SourceAlpha" type="matrix" values="0 0 0 0 0 0 0 0 0 0 0 0 0 0 0 0 0 0 127 0" result="hardAlpha"/>
          <feOffset dx="0" dy="2"/>
          <feGaussianBlur stdDeviation="5"/>
          <feComposite in2="hardAlpha" operator="arithmetic" k2="-1" k3="1"/>
          <feColorMatrix type="matrix" values="0 0 0 0 0.03137254901960784 0 0 0 0 0.07450980392156863 0 0 0 0 0.3686274509803922 0 0 0 1 0"/>
          <feBlend mode="normal" in2="shape" result="effect1_Shadow"/></filter><filter id="filter_132" x="-20" y="-20" width="70" height="70" filterUnits="userSpaceOnUse" color-interpolation-filters="sRGB"><feFlood flood-opacity="0" result="BackgroundImageFix"/>
          <feBlend mode="normal" in="SourceGraphic" in2="BackgroundImageFix" result="shape"/>
          <feColorMatrix in="SourceAlpha" type="matrix" values="0 0 0 0 0 0 0 0 0 0 0 0 0 0 0 0 0 0 127 0" result="hardAlpha"/>
          <feOffset dx="1" dy="2"/>
          <feGaussianBlur stdDeviation="2"/>
          <feComposite in2="hardAlpha" operator="arithmetic" k2="-1" k3="1"/>
          <feColorMatrix type="matrix" values="0 0 0 0 0.5411764705882353 0 0 0 0 0.6 0 0 0 0 1 0 0 0 1 0"/>
          <feBlend mode="normal" in2="shape" result="effect1_Shadow"/><feFlood flood-opacity="0" result="BackgroundImageFix"/>
          <feBlend mode="normal" in="SourceGraphic" in2="BackgroundImageFix" result="shape"/>
          <feColorMatrix in="SourceAlpha" type="matrix" values="0 0 0 0 0 0 0 0 0 0 0 0 0 0 0 0 0 0 127 0" result="hardAlpha"/>
          <feOffset dx="-1" dy="-2"/>
          <feGaussianBlur stdDeviation="2"/>
          <feComposite in2="hardAlpha" operator="arithmetic" k2="-1" k3="1"/>
          <feColorMatrix type="matrix" values="0 0 0 0 0.6196078431372549 0 0 0 0 0.6627450980392157 0 0 0 0 0.9686274509803922 0 0 0 1 0"/>
          <feBlend mode="normal" in2="shape" result="effect1_Shadow"/><feFlood flood-opacity="0" result="BackgroundImageFix"/>
          <feColorMatrix in="SourceAlpha" type="matrix" values="0 0 0 0 0 0 0 0 0 0 0 0 0 0 0 0 0 0 127 0"/>
          <feOffset dx="0" dy="6"/>
          <feGaussianBlur stdDeviation="10"/>
          <feColorMatrix type="matrix" values="0 0 0 0 0.18823529411764706 0 0 0 0 0.2196078431372549 0 0 0 0 0.4196078431372549 0 0 0 1 0"/>
          <feBlend mode="normal" in2="BackgroundImageFix" result="effect1_Shadow"/>
          <feBlend mode="normal" in="SourceGraphic" in2="effect1_Shadow" result="shape"/></filter><filter id="filter_134" x="1" y="1" width="28" height="28" filterUnits="userSpaceOnUse" color-interpolation-filters="sRGB"><feFlood flood-opacity="0" result="BackgroundImageFix"/>
          <feBlend mode="normal" in="SourceGraphic" in2="BackgroundImageFix" result="shape"/>
          <feColorMatrix in="SourceAlpha" type="matrix" values="0 0 0 0 0 0 0 0 0 0 0 0 0 0 0 0 0 0 127 0" result="hardAlpha"/>
          <feOffset dx="1" dy="2"/>
          <feGaussianBlur stdDeviation="2"/>
          <feComposite in2="hardAlpha" operator="arithmetic" k2="-1" k3="1"/>
          <feColorMatrix type="matrix" values="0 0 0 0 0.9725490196078431 0 0 0 0 0.8509803921568627 0 0 0 0 0.7568627450980392 0 0 0 1 0"/>
          <feBlend mode="normal" in2="shape" result="effect1_Shadow"/></filter><filter id="filter_138" x="-20" y="-20" width="70" height="70" filterUnits="userSpaceOnUse" color-interpolation-filters="sRGB"><feFlood flood-opacity="0" result="BackgroundImageFix"/>
          <feBlend mode="normal" in="SourceGraphic" in2="BackgroundImageFix" result="shape"/>
          <feColorMatrix in="SourceAlpha" type="matrix" values="0 0 0 0 0 0 0 0 0 0 0 0 0 0 0 0 0 0 127 0" result="hardAlpha"/>
          <feOffset dx="1" dy="2"/>
          <feGaussianBlur stdDeviation="2"/>
          <feComposite in2="hardAlpha" operator="arithmetic" k2="-1" k3="1"/>
          <feColorMatrix type="matrix" values="0 0 0 0 0.5411764705882353 0 0 0 0 0.6 0 0 0 0 1 0 0 0 1 0"/>
          <feBlend mode="normal" in2="shape" result="effect1_Shadow"/><feFlood flood-opacity="0" result="BackgroundImageFix"/>
          <feBlend mode="normal" in="SourceGraphic" in2="BackgroundImageFix" result="shape"/>
          <feColorMatrix in="SourceAlpha" type="matrix" values="0 0 0 0 0 0 0 0 0 0 0 0 0 0 0 0 0 0 127 0" result="hardAlpha"/>
          <feOffset dx="-1" dy="-2"/>
          <feGaussianBlur stdDeviation="2"/>
          <feComposite in2="hardAlpha" operator="arithmetic" k2="-1" k3="1"/>
          <feColorMatrix type="matrix" values="0 0 0 0 0.6196078431372549 0 0 0 0 0.6627450980392157 0 0 0 0 0.9686274509803922 0 0 0 1 0"/>
          <feBlend mode="normal" in2="shape" result="effect1_Shadow"/><feFlood flood-opacity="0" result="BackgroundImageFix"/>
          <feColorMatrix in="SourceAlpha" type="matrix" values="0 0 0 0 0 0 0 0 0 0 0 0 0 0 0 0 0 0 127 0"/>
          <feOffset dx="0" dy="6"/>
          <feGaussianBlur stdDeviation="10"/>
          <feColorMatrix type="matrix" values="0 0 0 0 0.18823529411764706 0 0 0 0 0.2196078431372549 0 0 0 0 0.4196078431372549 0 0 0 1 0"/>
          <feBlend mode="normal" in2="BackgroundImageFix" result="effect1_Shadow"/>
          <feBlend mode="normal" in="SourceGraphic" in2="effect1_Shadow" result="shape"/></filter><filter id="filter_140" x="1" y="1" width="28" height="28" filterUnits="userSpaceOnUse" color-interpolation-filters="sRGB"><feFlood flood-opacity="0" result="BackgroundImageFix"/>
          <feBlend mode="normal" in="SourceGraphic" in2="BackgroundImageFix" result="shape"/>
          <feColorMatrix in="SourceAlpha" type="matrix" values="0 0 0 0 0 0 0 0 0 0 0 0 0 0 0 0 0 0 127 0" result="hardAlpha"/>
          <feOffset dx="1" dy="2"/>
          <feGaussianBlur stdDeviation="2"/>
          <feComposite in2="hardAlpha" operator="arithmetic" k2="-1" k3="1"/>
          <feColorMatrix type="matrix" values="0 0 0 0 0.9803921568627451 0 0 0 0 0.9803921568627451 0 0 0 0 1 0 0 0 1 0"/>
          <feBlend mode="normal" in2="shape" result="effect1_Shadow"/></filter><filter id="filter_144" x="-20" y="-20" width="70" height="70" filterUnits="userSpaceOnUse" color-interpolation-filters="sRGB"><feFlood flood-opacity="0" result="BackgroundImageFix"/>
          <feBlend mode="normal" in="SourceGraphic" in2="BackgroundImageFix" result="shape"/>
          <feColorMatrix in="SourceAlpha" type="matrix" values="0 0 0 0 0 0 0 0 0 0 0 0 0 0 0 0 0 0 127 0" result="hardAlpha"/>
          <feOffset dx="1" dy="2"/>
          <feGaussianBlur stdDeviation="2"/>
          <feComposite in2="hardAlpha" operator="arithmetic" k2="-1" k3="1"/>
          <feColorMatrix type="matrix" values="0 0 0 0 0.5411764705882353 0 0 0 0 0.6 0 0 0 0 1 0 0 0 1 0"/>
          <feBlend mode="normal" in2="shape" result="effect1_Shadow"/><feFlood flood-opacity="0" result="BackgroundImageFix"/>
          <feBlend mode="normal" in="SourceGraphic" in2="BackgroundImageFix" result="shape"/>
          <feColorMatrix in="SourceAlpha" type="matrix" values="0 0 0 0 0 0 0 0 0 0 0 0 0 0 0 0 0 0 127 0" result="hardAlpha"/>
          <feOffset dx="-1" dy="-2"/>
          <feGaussianBlur stdDeviation="2"/>
          <feComposite in2="hardAlpha" operator="arithmetic" k2="-1" k3="1"/>
          <feColorMatrix type="matrix" values="0 0 0 0 0.6196078431372549 0 0 0 0 0.6627450980392157 0 0 0 0 0.9686274509803922 0 0 0 1 0"/>
          <feBlend mode="normal" in2="shape" result="effect1_Shadow"/><feFlood flood-opacity="0" result="BackgroundImageFix"/>
          <feColorMatrix in="SourceAlpha" type="matrix" values="0 0 0 0 0 0 0 0 0 0 0 0 0 0 0 0 0 0 127 0"/>
          <feOffset dx="0" dy="6"/>
          <feGaussianBlur stdDeviation="10"/>
          <feColorMatrix type="matrix" values="0 0 0 0 0 0 0 0 0 0.047058823529411764 0 0 0 0 0.38823529411764707 0 0 0 1 0"/>
          <feBlend mode="normal" in2="BackgroundImageFix" result="effect1_Shadow"/>
          <feBlend mode="normal" in="SourceGraphic" in2="effect1_Shadow" result="shape"/></filter><filter id="filter_146" x="1" y="1" width="28" height="28" filterUnits="userSpaceOnUse" color-interpolation-filters="sRGB"><feFlood flood-opacity="0" result="BackgroundImageFix"/>
          <feBlend mode="normal" in="SourceGraphic" in2="BackgroundImageFix" result="shape"/>
          <feColorMatrix in="SourceAlpha" type="matrix" values="0 0 0 0 0 0 0 0 0 0 0 0 0 0 0 0 0 0 127 0" result="hardAlpha"/>
          <feOffset dx="1" dy="2"/>
          <feGaussianBlur stdDeviation="2"/>
          <feComposite in2="hardAlpha" operator="arithmetic" k2="-1" k3="1"/>
          <feColorMatrix type="matrix" values="0 0 0 0 0.9725490196078431 0 0 0 0 0.8509803921568627 0 0 0 0 0.7568627450980392 0 0 0 1 0"/>
          <feBlend mode="normal" in2="shape" result="effect1_Shadow"/></filter><filter id="filter_150" x="-20" y="-20" width="70" height="70" filterUnits="userSpaceOnUse" color-interpolation-filters="sRGB"><feFlood flood-opacity="0" result="BackgroundImageFix"/>
          <feBlend mode="normal" in="SourceGraphic" in2="BackgroundImageFix" result="shape"/>
          <feColorMatrix in="SourceAlpha" type="matrix" values="0 0 0 0 0 0 0 0 0 0 0 0 0 0 0 0 0 0 127 0" result="hardAlpha"/>
          <feOffset dx="1" dy="2"/>
          <feGaussianBlur stdDeviation="2"/>
          <feComposite in2="hardAlpha" operator="arithmetic" k2="-1" k3="1"/>
          <feColorMatrix type="matrix" values="0 0 0 0 0.5411764705882353 0 0 0 0 0.6 0 0 0 0 1 0 0 0 1 0"/>
          <feBlend mode="normal" in2="shape" result="effect1_Shadow"/><feFlood flood-opacity="0" result="BackgroundImageFix"/>
          <feBlend mode="normal" in="SourceGraphic" in2="BackgroundImageFix" result="shape"/>
          <feColorMatrix in="SourceAlpha" type="matrix" values="0 0 0 0 0 0 0 0 0 0 0 0 0 0 0 0 0 0 127 0" result="hardAlpha"/>
          <feOffset dx="-1" dy="-2"/>
          <feGaussianBlur stdDeviation="2"/>
          <feComposite in2="hardAlpha" operator="arithmetic" k2="-1" k3="1"/>
          <feColorMatrix type="matrix" values="0 0 0 0 0.6196078431372549 0 0 0 0 0.6627450980392157 0 0 0 0 0.9686274509803922 0 0 0 1 0"/>
          <feBlend mode="normal" in2="shape" result="effect1_Shadow"/><feFlood flood-opacity="0" result="BackgroundImageFix"/>
          <feColorMatrix in="SourceAlpha" type="matrix" values="0 0 0 0 0 0 0 0 0 0 0 0 0 0 0 0 0 0 127 0"/>
          <feOffset dx="0" dy="6"/>
          <feGaussianBlur stdDeviation="10"/>
          <feColorMatrix type="matrix" values="0 0 0 0 0 0 0 0 0 0.047058823529411764 0 0 0 0 0.38823529411764707 0 0 0 1 0"/>
          <feBlend mode="normal" in2="BackgroundImageFix" result="effect1_Shadow"/>
          <feBlend mode="normal" in="SourceGraphic" in2="effect1_Shadow" result="shape"/></filter><filter id="filter_152" x="1" y="1" width="28" height="28" filterUnits="userSpaceOnUse" color-interpolation-filters="sRGB"><feFlood flood-opacity="0" result="BackgroundImageFix"/>
          <feBlend mode="normal" in="SourceGraphic" in2="BackgroundImageFix" result="shape"/>
          <feColorMatrix in="SourceAlpha" type="matrix" values="0 0 0 0 0 0 0 0 0 0 0 0 0 0 0 0 0 0 127 0" result="hardAlpha"/>
          <feOffset dx="1" dy="2"/>
          <feGaussianBlur stdDeviation="2"/>
          <feComposite in2="hardAlpha" operator="arithmetic" k2="-1" k3="1"/>
          <feColorMatrix type="matrix" values="0 0 0 0 0.9803921568627451 0 0 0 0 0.9803921568627451 0 0 0 0 1 0 0 0 1 0"/>
          <feBlend mode="normal" in2="shape" result="effect1_Shadow"/></filter></defs><g opacity="1" transform="translate(0 0)  rotate(0 350 411)"><mask id="mask-0" fill="white"><use xlink:href="#path_0"></use></mask><g mask="url(#mask-0)"><path id="矩形 21" style="fill:#C4C4C4" transform="translate(0 0)  rotate(0 350 411)" opacity="0" d="M0,822L700,822L700,0L0,0L0,822Z " /></g><g mask="url(#mask-0)"><g opacity="1" transform="translate(6 2)  rotate(0 345 390)"><g id="圆形 5" filter="url(#filter_7)"><path id="圆形 5" style="fill:#262F6D" transform="translate(28 742)  rotate(0 289.5 19)" opacity="1" d="M289.5,0C129.61,0 0,8.51 0,19C0,29.49 129.61,38 289.5,38C449.39,38 579,29.49 579,19C579,8.51 449.39,0 289.5,0Z " /></g><g id="矩形 13" filter="url(#filter_8)"><path id="矩形 13" style="fill:#071369" transform="translate(87 673)  rotate(0 33.5 44)" opacity="1" d="M1.1634144591899857e-15,69C0,74.03911330695134 2.0017799669429372,78.87183765203174 5.564971157455599,82.4350288425444C9.128162347968258,85.99822003305707 13.960886693048664,88 19,88L48,88C58.493410246785075,88 67,79.49341024678507 67,69L67,19.000000000000004C67,13.96088669304866 64.99822003305707,9.128162347968248 61.4350288425444,5.56497115745559C57.87183765203174,2.0017799669429337 53.03911330695133,-3.552713678800501e-15 47.99999999999999,-3.552713678800501e-15L19.000000000000004,0C13.960886693048664,-3.552713678800501e-15 9.128162347968253,2.0017799669429372 5.564971157455592,5.564971157455597C2.00177996694293,9.128162347968257 -7.105427357601002e-15,13.960886693048668 -7.105427357601002e-15,19.000000000000007Z " /></g><g id="矩形 13" filter="url(#filter_10)"><path id="矩形 13" style="fill:#071369" transform="translate(480 673)  rotate(0 33.5 44)" opacity="1" d="M1.1634144591899857e-15,69C0,74.03911330695134 2.0017799669429372,78.87183765203174 5.564971157455599,82.4350288425444C9.128162347968258,85.99822003305707 13.960886693048664,88 19,88L48,88C58.493410246785075,88 67,79.49341024678507 67,69L67,19.000000000000004C67,13.96088669304866 64.99822003305707,9.128162347968248 61.4350288425444,5.56497115745559C57.87183765203174,2.0017799669429337 53.03911330695133,-3.552713678800501e-15 47.99999999999999,-3.552713678800501e-15L19.000000000000004,0C13.960886693048664,-3.552713678800501e-15 9.128162347968253,2.0017799669429372 5.564971157455592,5.564971157455597C2.00177996694293,9.128162347968257 -7.105427357601002e-15,13.960886693048668 -7.105427357601002e-15,19.000000000000007Z " /></g><g opacity="1" transform="translate(623 171)  rotate(0 33.5 102)"><g id="矩形 30" filter="url(#filter_14)"><path id="矩形 30" style="fill:#2F3775" transform="translate(37 45)  rotate(0 4 23.5)" opacity="1" d="M2.4492935982947064e-16,43C-1.5808133912997846e-8,44.06086589975353 0.42142733049286196,45.07828155762916 1.171572833106961,45.82842708259934C1.92171833572106,46.57857260756952 2.9391339810371786,46.99999998419187 3.999999940395354,47L4,47C5.060865959358177,47 6.078281610954052,46.578572638538326 6.828427124746191,45.82842712474619C7.578572638538329,45.07828161095405 8,44.060865959358175 8,43L7.999999999999999,4C8,2.9391340406418234 7.578572638538328,1.9217183890459482 6.82842712474619,1.1715728752538093C6.0782816109540505,0.42142736146167037 5.060865959358175,-4.440892098500626e-16 3.9999999999999996,-4.440892098500626e-16L4,0C2.9391340406418234,-4.440892098500626e-16 1.9217183890459477,0.42142736146167037 1.1715728752538088,1.1715728752538093C0.4214273614616699,1.9217183890459482 -1.3322676295501878e-15,2.9391340406418243 -1.3322676295501878e-15,4Z " /></g><g id="矩形 29" filter="url(#filter_16)"><path id="矩形 29" style="fill:#242C6B" transform="translate(0 149)  rotate(0 19.5 17.5)" opacity="1" d="M0,35L39,35L39,0L0,0L0,35Z " /></g><g id="矩形 30" filter="url(#filter_18)"><path id="矩形 30" style="fill:#2E3775" transform="translate(34 69)  rotate(0 7 34.5)" opacity="1" d="M4.286263797015736e-16,62C0,63.856515428876804 0.7374978825579239,65.63699281916959 2.0502525316941655,66.94974746830583C3.363007180830408,68.26250211744207 5.14348457112319,69 6.999999999999998,69L7,69C8.856515428876808,69 10.63699281916959,68.26250211744207 11.949747468305834,66.94974746830583C13.262502117442075,65.63699281916959 14,63.85651542887681 14,62L13.999999999999998,7C14.000000027664235,5.143484675431319 13.26250217163749,3.3630072741489623 11.949747542062816,2.050252605451151C10.636992912488143,0.7374979367533401 8.856515533184934,2.7664235346946953e-8 7.0000001043081275,0L7,0C5.143484571123192,0 3.3630071808304094,0.7374978825579239 2.0502525316941664,2.0502525316941664C0.7374978825579239,3.36300718083041 -8.881784197001252e-16,5.1434845711231905 -8.881784197001252e-16,6.999999999999998Z " /></g><g id="矩形 28" filter="url(#filter_20)"><path id="矩形 28" style="fill:#242C6B" transform="translate(20 130)  rotate(0 19.5 37)" opacity="1" d="M1.1940306291686695e-15,54.5C-1.0898588342911353e-7,59.67172114093934 2.054458173617661,64.6316224857637 5.7114174762896806,68.28858194256503C9.3683767789617,71.94554139936636 14.328278037197116,73.99999989101411 19.499999589068224,74L19.5,74C24.67172155187111,74 29.631622853401005,71.94554161287437 33.28858223313768,68.28858223313767C36.94554161287436,64.63162285340101 39,59.671721551871116 39,54.5L38.99999999999999,19.5C38.99999999999999,14.328278448128884 36.94554161287435,9.368377146598995 33.28858223313767,5.7114177668623185C29.63162285340099,2.054458387125642 24.6717215518711,-3.552713678800501e-15 19.499999999999993,-3.552713678800501e-15L19.5,0C14.328278448128891,-7.105427357601002e-15 9.368377146598998,2.054458387125642 5.71141776686232,5.7114177668623185C2.054458387125642,9.368377146598995 -3.552713678800501e-15,14.32827844812889 -3.552713678800501e-15,19.5Z " /></g><g id="圆形 9" filter="url(#filter_22)"><path id="圆形 9" style="fill:#2D3674" transform="translate(11 0)  rotate(0 28 28)" opacity="1" d="M28,0C12.54,0 0,12.54 0,28C0,43.46 12.54,56 28,56C43.46,56 56,43.46 56,28C56,12.54 43.46,0 28,0Z " /></g><g id="圆形 9" filter="url(#filter_24)"><path id="圆形 9" style="fill:#FF7070" transform="translate(20 11)  rotate(0 14 14)" opacity="1" d="M14,0C6.27,0 0,6.27 0,14C0,21.73 6.27,28 14,28C21.73,28 28,21.73 28,14C28,6.27 21.73,0 14,0Z " /></g></g><path id="矩形 11" fill="url(#linear_0)" transform="translate(0 226)  rotate(0 28.5 91)" opacity="1" d="M1.7451216887849782e-15,153.5C0,161.058669960427 3.002669950414404,168.30775647804762 8.34745673618339,173.6525432638166C13.692243521952376,178.9973300495856 20.94133003957299,182 28.499999999999993,182L28.5,182C36.058669960427004,182 43.307756478047615,178.9973300495856 48.652543263816604,173.6525432638166C53.99733004958559,168.30775647804762 57,161.058669960427 57,153.5L56.99999999999999,28.5C57.000000112632954,20.941330464256083 53.99733027023835,13.692243901892203 48.65254356411289,8.347457036479685C43.307756857987435,3.0026701710671695 36.05867038511009,1.1263295718322297e-7 28.50000042468309,0L28.5,0C20.941330039572996,0 13.692243521952381,3.002669950414404 8.347456736183393,8.347456736183393C3.002669950414404,13.692243521952381 -3.552713678800501e-15,20.94133003957299 -3.552713678800501e-15,28.499999999999993Z " /><path id="矩形 11" fill="url(#linear_1)" transform="translate(581 226)  rotate(0 28.5 91)" opacity="1" d="M28.5,0C20.941330039572996,0 13.692243521952381,3.002669950414404 8.347456736183393,8.347456736183393C3.002669950414404,13.692243521952381 -3.552713678800501e-15,20.94133003957299 -3.552713678800501e-15,28.499999999999993L1.7451216887849782e-15,153.5C0,161.058669960427 3.002669950414404,168.30775647804762 8.34745673618339,173.6525432638166C13.692243521952376,178.9973300495856 20.94133003957299,182 28.499999999999993,182L28.5,182C36.058669960427004,182 43.307756478047615,178.9973300495856 48.652543263816604,173.6525432638166C53.99733004958559,168.30775647804762 57,161.058669960427 57,153.5L56.99999999999999,28.5C57.000000112632954,20.941330464256083 53.99733027023835,13.692243901892203 48.65254356411289,8.347457036479685C43.307756857987435,3.0026701710671695 36.05867038511009,1.1263295718322297e-7 28.50000042468309,0Z " /><g opacity="1" transform="translate(28 0)  rotate(0 291.5 353)"><mask id="mask-1" fill="white"><use xlink:href="#path_1"></use></mask><g mask="url(#mask-1)"><g id="矩形 2" filter="url(#filter_32)"><path id="矩形 2" style="fill:#333D87" transform="translate(0 0)  rotate(0 291.5 353)" opacity="1" d="M1.2246467991473535e-15,686C0,691.3043297967909 2.1071368073083576,696.3914080547703 5.857864376269051,700.142135623731C9.608591945229746,703.8928631926916 14.69567020320912,706 20,706L563,706C574.0456949966159,706 583,697.0456949966159 583,686L583,20.000000000000004C583,14.695670203209115 580.8928631926916,9.608591945229735 577.142135623731,5.857864376269042C573.3914080547703,2.1071368073083505 568.3043297967909,-3.552713678800501e-15 563,-3.552713678800501e-15L20.000000000000004,0C14.69567020320912,0 9.608591945229742,2.107136807308354 5.857864376269047,5.857864376269049C2.107136807308354,9.608591945229744 -3.552713678800501e-15,14.695670203209126 -3.552713678800501e-15,20.000000000000007Z " /></g></g><g mask="url(#mask-1)"><g id="矩形 3" filter="url(#filter_35)"><path  id="矩形 3" style="stroke:#999FD1; stroke-width:3; stroke-opacity:1; stroke-dasharray:0 0" transform="translate(26.5 352)  rotate(0 265 33)" d="M2.0206672185931327e-15,33C0,41.75214416470496 3.4767757320587833,50.14582329037093 9.665476220843924,56.33452377915607C15.854176709629066,62.52322426794122 24.247855835295034,66 32.999999999999986,66L497,66C505.75214416470493,66 514.1458232903709,62.52322426794122 520.334523779156,56.33452377915607C526.5232242679413,50.14582329037093 530,41.75214416470495 530,33L530,33C530,24.247855835295034 526.5232242679411,15.854176709629058 520.334523779156,9.665476220843917C514.1458232903709,3.476775732058776 505.75214416470493,-1.4210854715202004e-14 497,-7.105427357601002e-15L33,0C24.24785583529505,-7.105427357601002e-15 15.854176709629069,3.4767757320587833 9.665476220843924,9.665476220843928C3.4767757320587798,15.854176709629073 -7.105427357601002e-15,24.24785583529505 -7.105427357601002e-15,33Z " /></g></g><g mask="url(#mask-1)"><path id="矩形 3" style="fill:#1B267A" transform="translate(26.5 352)  rotate(0 265 33)" opacity="1" d="M2.0206672185931327e-15,33C0,41.75214416470496 3.4767757320587833,50.14582329037093 9.665476220843924,56.33452377915607C15.854176709629066,62.52322426794122 24.247855835295034,66 32.999999999999986,66L497,66C505.75214416470493,66 514.1458232903709,62.52322426794122 520.334523779156,56.33452377915607C526.5232242679413,50.14582329037093 530,41.75214416470495 530,33L530,33C530,24.247855835295034 526.5232242679411,15.854176709629058 520.334523779156,9.665476220843917C514.1458232903709,3.476775732058776 505.75214416470493,-1.4210854715202004e-14 497,-7.105427357601002e-15L33,0C24.24785583529505,-7.105427357601002e-15 15.854176709629069,3.4767757320587833 9.665476220843924,9.665476220843928C3.4767757320587798,15.854176709629073 -7.105427357601002e-15,24.24785583529505 -7.105427357601002e-15,33Z " /></g><g mask="url(#mask-1)"><g id="路径 1" filter="url(#filter_39)"><path  id="路径 1" style="stroke:#FAE5CA; stroke-width:10; stroke-opacity:1; stroke-dasharray:0 0" transform="translate(8 -18)  rotate(0 280 9.5)" d="M0,19L560,19 " /></g></g><g mask="url(#mask-1)"><g id="矩形 14" filter="url(#filter_41)"><path id="矩形 14" style="stroke:url(#linear_2); stroke-width:10; stroke-opacity:100; stroke-dasharray:0 0" transform="translate(0 0)  rotate(0 80 105)" d="M1.2246467991473535e-15,190C0,195.30432979679088 2.1071368073083576,200.39140805477027 5.857864376269051,204.14213562373095C9.608591945229746,207.89286319269164 14.69567020320912,210 20,210L140,210C151.04569499661588,210 160,201.04569499661588 160,190L160,20.000000000000004C160,14.695670203209115 157.89286319269164,9.608591945229735 154.14213562373095,5.857864376269042C150.39140805477024,2.1071368073083505 145.30432979679088,-3.552713678800501e-15 140,-3.552713678800501e-15L20.000000000000004,0C14.69567020320912,0 9.608591945229742,2.107136807308354 5.857864376269047,5.857864376269049C2.107136807308354,9.608591945229744 -3.552713678800501e-15,14.695670203209126 -3.552713678800501e-15,20.000000000000007Z " /></g></g><g mask="url(#mask-1)"><g id="矩形 14" filter="url(#filter_43)"><path id="矩形 14" style="stroke:url(#linear_3); stroke-width:10; stroke-opacity:100; stroke-dasharray:0 0" transform="translate(423 0)  rotate(0 80 105)" d="M20.000000000000004,0C14.69567020320912,0 9.608591945229742,2.107136807308354 5.857864376269047,5.857864376269049C2.107136807308354,9.608591945229744 -3.552713678800501e-15,14.695670203209126 -3.552713678800501e-15,20.000000000000007L1.2246467991473535e-15,190C0,195.30432979679088 2.1071368073083576,200.39140805477027 5.857864376269051,204.14213562373095C9.608591945229746,207.89286319269164 14.69567020320912,210 20,210L140,210C151.04569499661588,210 160,201.04569499661588 160,190L160,20.000000000000004C160,14.695670203209115 157.89286319269164,9.608591945229735 154.14213562373095,5.857864376269042C150.39140805477024,2.1071368073083505 145.30432979679088,-3.552713678800501e-15 140,-3.552713678800501e-15Z " /></g></g></g><g opacity="1" transform="translate(43 17)  rotate(0 276.5 157)"><mask id="mask-2" fill="white"><use xlink:href="#path_2"></use></mask><g mask="url(#mask-2)"><g id="矩形 2" filter="url(#filter_46)"><path id="矩形 2" style="fill:#495191" transform="translate(0 0)  rotate(0 276.5 157)" opacity="1" d="M1.2246467991473535e-15,294C0,299.3043297967909 2.1071368073083576,304.39140805477024 5.857864376269051,308.14213562373095C9.608591945229746,311.89286319269166 14.69567020320912,314 20,314L533,314C544.0456949966159,314 553,305.04569499661585 553,294L553,20.000000000000004C553,14.695670203209115 550.8928631926916,9.608591945229735 547.142135623731,5.857864376269042C543.3914080547703,2.1071368073083505 538.3043297967909,-3.552713678800501e-15 533,-3.552713678800501e-15L20.000000000000004,0C14.69567020320912,0 9.608591945229742,2.107136807308354 5.857864376269047,5.857864376269049C2.107136807308354,9.608591945229744 -3.552713678800501e-15,14.695670203209126 -3.552713678800501e-15,20.000000000000007Z " /></g></g><g mask="url(#mask-2)"><g id="路径 5" filter="url(#filter_49)"><path  id="路径 5" style="stroke:#FAE5CA; stroke-width:6; stroke-opacity:1; stroke-dasharray:0 0" transform="translate(13.5 2)  rotate(0 261.25 0.5)" d="M0,0L522.5,0 " /></g></g></g><g opacity="1" transform="translate(54 31)  rotate(0 267 143)"><path id="圆形 1" style="fill:#F8D9C1" transform="translate(0 270)  rotate(0 8 8)" opacity="1" d="M8,0C3.58,0 0,3.58 0,8C0,12.42 3.58,16 8,16C12.42,16 16,12.42 16,8C16,3.58 12.42,0 8,0Z " /><path id="圆形 1" style="fill:#F8D9C1" transform="translate(105.59999999999991 270)  rotate(0 8 8)" opacity="1" d="M8,0C3.58,0 0,3.58 0,8C0,12.42 3.58,16 8,16C12.42,16 16,12.42 16,8C16,3.58 12.42,0 8,0Z " /><path id="圆形 1" style="fill:#FF7070" transform="translate(51 273)  rotate(0 5 5)" opacity="1" d="M5,0C2.24,0 0,2.24 0,5C0,7.76 2.24,10 5,10C7.76,10 10,7.76 10,5C10,2.24 7.76,0 5,0Z " /><path id="圆形 1" style="fill:#FF7070" transform="translate(160 273)  rotate(0 5 5)" opacity="1" d="M5,0C2.24,0 0,2.24 0,5C0,7.76 2.24,10 5,10C7.76,10 10,7.76 10,5C10,2.24 7.76,0 5,0Z " /><path id="圆形 1" style="fill:#FF7070" transform="translate(262.5 273)  rotate(0 5 5)" opacity="1" d="M5,0C2.24,0 0,2.24 0,5C0,7.76 2.24,10 5,10C7.76,10 10,7.76 10,5C10,2.24 7.76,0 5,0Z " /><path id="圆形 1" style="fill:#FF7070" transform="translate(365.10000000000036 273)  rotate(0 5 5)" opacity="1" d="M5,0C2.24,0 0,2.24 0,5C0,7.76 2.24,10 5,10C7.76,10 10,7.76 10,5C10,2.24 7.76,0 5,0Z " /><path id="圆形 1" style="fill:#FF7070" transform="translate(467.6999999999998 273)  rotate(0 5 5)" opacity="1" d="M5,0C2.24,0 0,2.24 0,5C0,7.76 2.24,10 5,10C7.76,10 10,7.76 10,5C10,2.24 7.76,0 5,0Z " /><path id="圆形 1" style="fill:#F8D9C1" transform="translate(208.19999999999982 270)  rotate(0 8 8)" opacity="1" d="M8,0C3.58,0 0,3.58 0,8C0,12.42 3.58,16 8,16C12.42,16 16,12.42 16,8C16,3.58 12.42,0 8,0Z " /><path id="圆形 1" style="fill:#F8D9C1" transform="translate(310.8000000000002 270)  rotate(0 8 8)" opacity="1" d="M8,0C3.58,0 0,3.58 0,8C0,12.42 3.58,16 8,16C12.42,16 16,12.42 16,8C16,3.58 12.42,0 8,0Z " /><path id="圆形 1" style="fill:#F8D9C1" transform="translate(413.4000000000001 270)  rotate(0 8 8)" opacity="1" d="M8,0C3.58,0 0,3.58 0,8C0,12.42 3.58,16 8,16C12.42,16 16,12.42 16,8C16,3.58 12.42,0 8,0Z " /><path id="圆形 1" style="fill:#F8D9C1" transform="translate(518 270)  rotate(0 8 8)" opacity="1" d="M8,0C3.58,0 0,3.58 0,8C0,12.42 3.58,16 8,16C12.42,16 16,12.42 16,8C16,3.58 12.42,0 8,0Z " /><path id="圆形 1" style="fill:#F8D9C1" transform="translate(0 0)  rotate(0 8 8)" opacity="1" d="M8,0C3.58,0 0,3.58 0,8C0,12.42 3.58,16 8,16C12.42,16 16,12.42 16,8C16,3.58 12.42,0 8,0Z " /><g opacity="1" transform="translate(0 36.75)  rotate(0 8 106.25)"><path id="圆形 1" style="fill:#FF7070" transform="translate(3 0)  rotate(0 5 5)" opacity="1" d="M5,0C2.24,0 0,2.24 0,5C0,7.76 2.24,10 5,10C7.76,10 10,7.76 10,5C10,2.24 7.76,0 5,0Z " /><path id="圆形 1" style="fill:#FF7070" transform="translate(3 67.5)  rotate(0 5 5)" opacity="1" d="M5,0C2.24,0 0,2.24 0,5C0,7.76 2.24,10 5,10C7.76,10 10,7.76 10,5C10,2.24 7.76,0 5,0Z " /><path id="圆形 1" style="fill:#FF7070" transform="translate(3 135)  rotate(0 5 5)" opacity="1" d="M5,0C2.24,0 0,2.24 0,5C0,7.76 2.24,10 5,10C7.76,10 10,7.76 10,5C10,2.24 7.76,0 5,0Z " /><path id="圆形 1" style="fill:#FF7070" transform="translate(3 202.5)  rotate(0 5 5)" opacity="1" d="M5,0C2.24,0 0,2.24 0,5C0,7.76 2.24,10 5,10C7.76,10 10,7.76 10,5C10,2.24 7.76,0 5,0Z " /><path id="圆形 1" style="fill:#F8D9C1" transform="translate(0 30.75)  rotate(0 8 8)" opacity="1" d="M8,0C3.58,0 0,3.58 0,8C0,12.42 3.58,16 8,16C12.42,16 16,12.42 16,8C16,3.58 12.42,0 8,0Z " /><path id="圆形 1" style="fill:#F8D9C1" transform="translate(0 98.25)  rotate(0 8 8)" opacity="1" d="M8,0C3.58,0 0,3.58 0,8C0,12.42 3.58,16 8,16C12.42,16 16,12.42 16,8C16,3.58 12.42,0 8,0Z " /><path id="圆形 1" style="fill:#F8D9C1" transform="translate(0 165.75)  rotate(0 8 8)" opacity="1" d="M8,0C3.58,0 0,3.58 0,8C0,12.42 3.58,16 8,16C12.42,16 16,12.42 16,8C16,3.58 12.42,0 8,0Z " /></g><g opacity="1" transform="translate(518 37)  rotate(0 8 106.25)"><path id="圆形 1" style="fill:#FF7070" transform="translate(3 0)  rotate(0 5 5)" opacity="1" d="M5,0C2.24,0 0,2.24 0,5C0,7.76 2.24,10 5,10C7.76,10 10,7.76 10,5C10,2.24 7.76,0 5,0Z " /><path id="圆形 1" style="fill:#FF7070" transform="translate(3 67.5)  rotate(0 5 5)" opacity="1" d="M5,0C2.24,0 0,2.24 0,5C0,7.76 2.24,10 5,10C7.76,10 10,7.76 10,5C10,2.24 7.76,0 5,0Z " /><path id="圆形 1" style="fill:#FF7070" transform="translate(3 135)  rotate(0 5 5)" opacity="1" d="M5,0C2.24,0 0,2.24 0,5C0,7.76 2.24,10 5,10C7.76,10 10,7.76 10,5C10,2.24 7.76,0 5,0Z " /><path id="圆形 1" style="fill:#FF7070" transform="translate(3 202.5)  rotate(0 5 5)" opacity="1" d="M5,0C2.24,0 0,2.24 0,5C0,7.76 2.24,10 5,10C7.76,10 10,7.76 10,5C10,2.24 7.76,0 5,0Z " /><path id="圆形 1" style="fill:#F8D9C1" transform="translate(0 30.75)  rotate(0 8 8)" opacity="1" d="M8,0C3.58,0 0,3.58 0,8C0,12.42 3.58,16 8,16C12.42,16 16,12.42 16,8C16,3.58 12.42,0 8,0Z " /><path id="圆形 1" style="fill:#F8D9C1" transform="translate(0 98.25)  rotate(0 8 8)" opacity="1" d="M8,0C3.58,0 0,3.58 0,8C0,12.42 3.58,16 8,16C12.42,16 16,12.42 16,8C16,3.58 12.42,0 8,0Z " /><path id="圆形 1" style="fill:#F8D9C1" transform="translate(0 165.75)  rotate(0 8 8)" opacity="1" d="M8,0C3.58,0 0,3.58 0,8C0,12.42 3.58,16 8,16C12.42,16 16,12.42 16,8C16,3.58 12.42,0 8,0Z " /></g><path id="圆形 1" style="fill:#F8D9C1" transform="translate(105.59999999999991 0)  rotate(0 8 8)" opacity="1" d="M8,0C3.58,0 0,3.58 0,8C0,12.42 3.58,16 8,16C12.42,16 16,12.42 16,8C16,3.58 12.42,0 8,0Z " /><path id="圆形 1" style="fill:#FF7070" transform="translate(51 3)  rotate(0 5 5)" opacity="1" d="M5,0C2.24,0 0,2.24 0,5C0,7.76 2.24,10 5,10C7.76,10 10,7.76 10,5C10,2.24 7.76,0 5,0Z " /><path id="圆形 1" style="fill:#FF7070" transform="translate(160 3)  rotate(0 5 5)" opacity="1" d="M5,0C2.24,0 0,2.24 0,5C0,7.76 2.24,10 5,10C7.76,10 10,7.76 10,5C10,2.24 7.76,0 5,0Z " /><path id="圆形 1" style="fill:#FF7070" transform="translate(262.5 3)  rotate(0 5 5)" opacity="1" d="M5,0C2.24,0 0,2.24 0,5C0,7.76 2.24,10 5,10C7.76,10 10,7.76 10,5C10,2.24 7.76,0 5,0Z " /><path id="圆形 1" style="fill:#FF7070" transform="translate(365.10000000000036 3)  rotate(0 5 5)" opacity="1" d="M5,0C2.24,0 0,2.24 0,5C0,7.76 2.24,10 5,10C7.76,10 10,7.76 10,5C10,2.24 7.76,0 5,0Z " /><path id="圆形 1" style="fill:#FF7070" transform="translate(467.6999999999998 3)  rotate(0 5 5)" opacity="1" d="M5,0C2.24,0 0,2.24 0,5C0,7.76 2.24,10 5,10C7.76,10 10,7.76 10,5C10,2.24 7.76,0 5,0Z " /><path id="圆形 1" style="fill:#F8D9C1" transform="translate(208.19999999999982 0)  rotate(0 8 8)" opacity="1" d="M8,0C3.58,0 0,3.58 0,8C0,12.42 3.58,16 8,16C12.42,16 16,12.42 16,8C16,3.58 12.42,0 8,0Z " /><path id="圆形 1" style="fill:#F8D9C1" transform="translate(310.8000000000002 0)  rotate(0 8 8)" opacity="1" d="M8,0C3.58,0 0,3.58 0,8C0,12.42 3.58,16 8,16C12.42,16 16,12.42 16,8C16,3.58 12.42,0 8,0Z " /><path id="圆形 1" style="fill:#F8D9C1" transform="translate(413.4000000000001 0)  rotate(0 8 8)" opacity="1" d="M8,0C3.58,0 0,3.58 0,8C0,12.42 3.58,16 8,16C12.42,16 16,12.42 16,8C16,3.58 12.42,0 8,0Z " /><path id="圆形 1" style="fill:#F8D9C1" transform="translate(518 0)  rotate(0 8 8)" opacity="1" d="M8,0C3.58,0 0,3.58 0,8C0,12.42 3.58,16 8,16C12.42,16 16,12.42 16,8C16,3.58 12.42,0 8,0Z " /></g><g id="矩形 2" filter="url(#filter_128)"><path id="矩形 2" style="fill:#16206E" transform="translate(77 63)  rotate(0 242.5 114.49999999999999)" opacity="0.8" d="M1.2246467991473535e-15,208.99999999999997C0,214.30432979679085 2.1071368073083576,219.39140805477024 5.857864376269051,223.14213562373092C9.608591945229746,226.8928631926916 14.69567020320912,228.99999999999997 20,228.99999999999997L465,228.99999999999997C476.04569499661585,228.99999999999997 485,220.04569499661585 485,208.99999999999997L485,20.000000000000004C485,14.695670203209115 482.89286319269166,9.608591945229735 479.14213562373095,5.857864376269042C475.39140805477024,2.1071368073083505 470.30432979679085,-3.552713678800501e-15 465,-3.552713678800501e-15L20.000000000000004,0C14.69567020320912,0 9.608591945229742,2.107136807308354 5.857864376269047,5.857864376269049C2.107136807308354,9.608591945229744 -3.552713678800501e-15,14.695670203209126 -3.552713678800501e-15,20.000000000000007Z " /></g><g opacity="1" transform="translate(70 473)  rotate(0 15 15)"><g id="圆形 6" filter="url(#filter_132)"><path id="圆形 6" style="fill:#000C63" transform="translate(0 0)  rotate(0 15 15)" opacity="1" d="M15,0C6.72,0 0,6.72 0,15C0,23.28 6.72,30 15,30C23.28,30 30,23.28 30,15C30,6.72 23.28,0 15,0Z " /></g><g id="圆形 6" filter="url(#filter_134)"><path id="圆形 6" style="fill:#FF7070" transform="translate(5 5)  rotate(0 10 10)" opacity="1" d="M10,0C4.48,0 0,4.48 0,10C0,15.52 4.48,20 10,20C15.52,20 20,15.52 20,10C20,4.48 15.52,0 10,0Z " /></g></g><g opacity="1" transform="translate(70 601)  rotate(0 15 15)"><g id="圆形 6" filter="url(#filter_138)"><path id="圆形 6" style="fill:#000C63" transform="translate(0 0)  rotate(0 15 15)" opacity="1" d="M15,0C6.72,0 0,6.72 0,15C0,23.28 6.72,30 15,30C23.28,30 30,23.28 30,15C30,6.72 23.28,0 15,0Z " /></g><g id="圆形 6" filter="url(#filter_140)"><path id="圆形 6" style="fill:#999FD1" transform="translate(5 5)  rotate(0 10 10)" opacity="1" d="M10,0C4.48,0 0,4.48 0,10C0,15.52 4.48,20 10,20C15.52,20 20,15.52 20,10C20,4.48 15.52,0 10,0Z " /></g></g><g opacity="1" transform="translate(539 473)  rotate(0 15 15)"><g id="圆形 6" filter="url(#filter_144)"><path id="圆形 6" style="fill:#000C63" transform="translate(0 0)  rotate(0 15 15)" opacity="1" d="M15,0C6.72,0 0,6.72 0,15C0,23.28 6.72,30 15,30C23.28,30 30,23.28 30,15C30,6.72 23.28,0 15,0Z " /></g><g id="圆形 6" filter="url(#filter_146)"><path id="圆形 6" style="fill:#FF7070" transform="translate(5 5)  rotate(0 10 10)" opacity="1" d="M10,0C4.48,0 0,4.48 0,10C0,15.52 4.48,20 10,20C15.52,20 20,15.52 20,10C20,4.48 15.52,0 10,0Z " /></g></g><g opacity="1" transform="translate(539 601)  rotate(0 15 15)"><g id="圆形 6" filter="url(#filter_150)"><path id="圆形 6" style="fill:#000C63" transform="translate(0 0)  rotate(0 15 15)" opacity="1" d="M15,0C6.72,0 0,6.72 0,15C0,23.28 6.72,30 15,30C23.28,30 30,23.28 30,15C30,6.72 23.28,0 15,0Z " /></g><g id="圆形 6" filter="url(#filter_152)"><path id="圆形 6" style="fill:#999FD1" transform="translate(5 5)  rotate(0 10 10)" opacity="1" d="M10,0C4.48,0 0,4.48 0,10C0,15.52 4.48,20 10,20C15.52,20 20,15.52 20,10C20,4.48 15.52,0 10,0Z " /></g></g></g></g></g></svg>