<svg xmlns="http://www.w3.org/2000/svg" xmlns:xlink="http://www.w3.org/1999/xlink" width="420" height="120" viewBox="0 0 420 120" fill="none"><defs><path id="path_0"
        transform="translate(0 0) rotate(0 210 60)"
        d="M0,120L420,120L420,0L0,0L0,120Z" /><filter id="filter_8" x="-20" y="-20" width="430" height="128" filterUnits="userSpaceOnUse" color-interpolation-filters="sRGB"><feFlood flood-opacity="0" result="BackgroundImageFix"/>
          <feBlend mode="normal" in="SourceGraphic" in2="BackgroundImageFix" result="shape"/>
          <feColorMatrix in="SourceAlpha" type="matrix" values="0 0 0 0 0 0 0 0 0 0 0 0 0 0 0 0 0 0 127 0" result="hardAlpha"/>
          <feOffset dx="0" dy="0"/>
          <feGaussianBlur stdDeviation="5"/>
          <feComposite in2="hardAlpha" operator="arithmetic" k2="-1" k3="1"/>
          <feColorMatrix type="matrix" values="0 0 0 0 0.6588235294117647 0 0 0 0 0.6901960784313725 0 0 0 0 0.9294117647058824 0 0 0 1 0"/>
          <feBlend mode="normal" in2="shape" result="effect1_Shadow"/><feFlood flood-opacity="0" result="BackgroundImageFix"/>
          <feColorMatrix in="SourceAlpha" type="matrix" values="0 0 0 0 0 0 0 0 0 0 0 0 0 0 0 0 0 0 127 0"/>
          <feOffset dx="0" dy="10"/>
          <feGaussianBlur stdDeviation="10"/>
          <feColorMatrix type="matrix" values="0 0 0 0 0.11372549019607843 0 0 0 0 0.1568627450980392 0 0 0 0 0.4392156862745098 0 0 0 0.49 0"/>
          <feBlend mode="normal" in2="BackgroundImageFix" result="effect1_Shadow"/>
          <feBlend mode="normal" in="SourceGraphic" in2="effect1_Shadow" result="shape"/></filter><linearGradient id="linear_0" x1="59.175%" y1="100%" x2="60.175%" y2="0%" gradientUnits="objectBoundingBox"><stop offset="0" stop-color="#F7D9C1" stop-opacity="0" /><stop offset="1" stop-color="#FFF5ED" stop-opacity="1" /></linearGradient></defs><g opacity="1" transform="translate(0 0)  rotate(0 210 60)"><mask id="mask-0" fill="white"><use xlink:href="#path_0"></use></mask><g mask="url(#mask-0)"><path id="矩形 23" style="fill:#C4C4C4" transform="translate(0 0)  rotate(0 210 60)" opacity="0" d="M0,120L420,120L420,0L0,0L0,120Z " /></g><g mask="url(#mask-0)"><g opacity="1" transform="translate(15 6)  rotate(0 195 44)"><g opacity="1" transform="translate(0 0)  rotate(0 195 44)"><g id="矩形 12" filter="url(#filter_8)"><path id="矩形 12" style="fill:#16206E" transform="translate(0 0)  rotate(0 195 44)" opacity="1" d="M2.571758278209442e-15,45.99999999999999C0,57.139092573260854 4.424987295347556,67.82195691501755 12.301515190165013,75.69848480983501C20.17804308498247,83.57501270465247 30.86090742673918,88.00000000000001 42.00000000000003,88L348,88C359.1390925732608,88 369.82195691501755,83.57501270465247 377.698484809835,75.69848480983501C385.57501270465247,67.82195691501754 390,57.13909257326085 390,46L390,42.00000000000001C390,30.860907426739143 385.57501270465247,20.178043084982445 377.698484809835,12.301515190164992C369.82195691501755,4.424987295347535 359.1390925732608,-7.105427357601002e-15 348,-7.105427357601002e-15L42.00000000000001,0C30.860907426739153,-7.105427357601002e-15 20.178043084982452,4.424987295347542 12.301515190164992,12.301515190165002C4.424987295347535,20.17804308498246 -1.4210854715202004e-14,30.86090742673916 -1.4210854715202004e-14,42.000000000000014Z " /></g><path id="矩形 12" style="fill:#F8D9C1" transform="translate(9 7)  rotate(0 186 37)" opacity="1" d="M2.2655965784226034e-15,37C7.105427357601002e-15,46.813010124063126 3.898203093520465,56.224104901324964 10.83704909609774,63.16295090390225C17.77589509867502,70.10179690647954 27.186989875936867,74 36.99999999999999,74L335,74C344.8130101240631,74 354.22410490132495,70.10179690647954 361.16295090390224,63.16295090390226C368.10179690647954,56.22410490132497 372,46.813010124063126 372,37L372,37C372,27.18698987593686 368.10179690647954,17.775895098675004 361.16295090390224,10.837049096097726C354.22410490132495,3.8982030935204506 344.8130101240631,-7.105427357601002e-15 335,-7.105427357601002e-15L37,0C27.186989875936867,7.105427357601002e-15 17.77589509867502,3.898203093520465 10.837049096097736,10.837049096097743C3.8982030935204506,17.77589509867503 -7.105427357601002e-15,27.186989875936867 -7.105427357601002e-15,36.99999999999999Z " /><path id="矩形 12" fill="url(#linear_0)" transform="translate(14 7)  rotate(0 181 28.5)" opacity="1" d="M1.7451216887849782e-15,28.5C0,36.058669960427004 3.002669950414404,43.307756478047615 8.34745673618339,48.652543263816604C13.692243521952376,53.99733004958559 20.94133003957299,57 28.499999999999993,57L333.5,57C341.058669960427,57 348.3077564780476,53.9973300495856 353.6525432638166,48.65254326381661C358.99733004958557,43.30775647804762 362,36.05866996042701 362,28.500000000000004L362,28.5C362,20.94133003957299 358.99733004958557,13.692243521952372 353.6525432638166,8.347456736183386C348.3077564780476,3.0026699504144005 341.058669960427,-3.552713678800501e-15 333.5,-3.552713678800501e-15L28.5,0C20.941330039572996,0 13.692243521952381,3.002669950414404 8.347456736183393,8.347456736183393C3.002669950414404,13.692243521952381 -3.552713678800501e-15,20.94133003957299 -3.552713678800501e-15,28.499999999999993Z " /><path id="矩形 19" style="fill:#FFFFFF" transform="translate(268 14)  rotate(0 31.5 3.5)" opacity="1" d="M2.143131898507868e-16,3.5C0,4.428257714438404 0.36874894127896196,5.318496409584795 1.0251262658470828,5.974873734152917C1.681503590415204,6.631251058721038 2.571742285561595,7 3.499999999999999,7L59.5,7C60.4282577144384,7 61.318496409584796,6.631251058721038 61.974873734152915,5.974873734152917C62.631251058721034,5.318496409584795 63,4.428257714438405 63,3.5000000000000004L63,3.5C63,2.5717422855615952 62.631251058721034,1.6815035904152036 61.974873734152915,1.0251262658470823C61.318496409584796,0.3687489412789615 60.4282577144384,-4.440892098500626e-16 59.5,-4.440892098500626e-16L3.5,0C2.571742285561596,0 1.6815035904152047,0.36874894127896196 1.0251262658470832,1.0251262658470832C0.36874894127896196,1.681503590415205 -4.440892098500626e-16,2.5717422855615952 -4.440892098500626e-16,3.499999999999999Z " /><path id="矩形 19" style="fill:#FFFFFF" transform="translate(340 14)  rotate(0 3.5 3.5)" opacity="1" d="M2.143131898507868e-16,3.5C0,4.428257714438404 0.36874894127896196,5.318496409584795 1.0251262658470828,5.974873734152917C1.681503590415204,6.631251058721038 2.571742285561595,7 3.499999999999999,7L3.5,7C4.428257714438404,7 5.318496409584795,6.631251058721038 5.974873734152917,5.974873734152917C6.631251058721038,5.318496409584795 7,4.428257714438405 7,3.5000000000000004L6.999999999999999,3.5C7.000000013832118,2.5717423377156594 6.631251085818745,1.6815036370744811 5.974873771031408,1.0251263027255755C5.3184964562440715,0.36874896837667004 4.428257766592467,1.3832117673473476e-8 3.5000000521540637,0L3.5,0C2.571742285561596,0 1.6815035904152047,0.36874894127896196 1.0251262658470832,1.0251262658470832C0.36874894127896196,1.681503590415205 -4.440892098500626e-16,2.5717422855615952 -4.440892098500626e-16,3.499999999999999Z " /></g></g></g></g></svg>