<svg xmlns="http://www.w3.org/2000/svg" xmlns:xlink="http://www.w3.org/1999/xlink" width="26" height="23" viewBox="0 0 26 23" fill="none"><defs><path id="path_0"
        transform="translate(0 0) rotate(0 13 11.5)"
        d="M0,23L26,23L26,0L0,0L0,23Z" /></defs><g opacity="1" transform="translate(0 0)  rotate(0 13 11.5)"><mask id="mask-0" fill="white"><use xlink:href="#path_0"></use></mask><g mask="url(#mask-0)"><path id="矩形 4" style="fill:#C4C4C4" transform="translate(0 0)  rotate(0 13 11.5)" opacity="0" d="M0,23L26,23L26,0L0,0L0,23Z " /></g><g mask="url(#mask-0)"><path id="三角形 1" style="fill:#FF7070" transform="translate(-0.5 -1.5)  rotate(0 13.5 12)" opacity="1" d="M1.6765438945866293,21.01947752073488C1.3281995675322777,21.63875632438706 1.3345688587648015,22.39635730338208 1.6932759932492336,23.009691794923025C2.0519831277336658,23.623026286463972 2.709166991312094,24 3.419694968835727,24L23.580305031164272,24C24.290833008687905,24 24.948016872266333,23.623026286463972 25.306724006750766,23.009691794923025C25.6654311412352,22.39635730338208 25.671800432467723,21.63875632438706 25.32345610541337,21.01947752073488L15.243151074249099,3.098935243109509C14.888914470318197,2.4691812805656834 14.22254662472684,2.0794577223746264 13.5,2.0794577223746264C12.777453375273161,2.0794577223746264 12.111085529681803,2.4691812805656825 11.756848925750901,3.098935243109508Z " /></g><g mask="url(#mask-0)"><g opacity="1" transform="translate(8 4)  rotate(0 10 10)"><text><tspan x="0" y="18" font-size="20" line-height="20" fill="#FFFFFF" opacity="1" font-family="SourceHanSansCN-Medium" letter-spacing="0" >！</tspan></text></g></g></g></svg>